<svg xmlns="http://www.w3.org/2000/svg" width="154.367" height="160.053" viewBox="0 0 154.367 160.053"><path d="M1819.2,1309.757a86.89,86.89,0,0,1-33.562-6.294,78.185,78.185,0,0,1-25.909-17.072,75.8,75.8,0,0,1-16.617-25.4,82.675,82.675,0,0,1-5.907-31.264,79.8,79.8,0,0,1,6.342-32.118,77.826,77.826,0,0,1,17.381-25.288,79.262,79.262,0,0,1,26.02-16.643,86.2,86.2,0,0,1,32.252-5.975,80.3,80.3,0,0,1,21.538,2.878,84.274,84.274,0,0,1,19.459,8.079,76.525,76.525,0,0,1,16.4,12.623,81.45,81.45,0,0,1,12.575,16.5l-26.02,15.836a56.327,56.327,0,0,0-17.71-19.473Q1834.723,1179,1819.2,1179a55.431,55.431,0,0,0-20.992,3.893,50.708,50.708,0,0,0-16.617,10.733,49.066,49.066,0,0,0-10.932,16.1,50.56,50.56,0,0,0-3.935,19.993,49.265,49.265,0,0,0,3.935,19.677,49.45,49.45,0,0,0,27.22,26.729,54.039,54.039,0,0,0,20.663,3.89q16.612,0,28.1-8.021a55.056,55.056,0,0,0,17.817-20.53l27.112,13.547a88.352,88.352,0,0,1-12.788,18.175,82.932,82.932,0,0,1-16.838,14.2,79.753,79.753,0,0,1-20.114,9.143A78.734,78.734,0,0,1,1819.2,1309.757Z" transform="translate(-1737.203 -1149.703)" fill="#ffb046"/></svg>