<svg xmlns="http://www.w3.org/2000/svg" width="155.278" height="173.477" viewBox="0 0 155.278 173.477"><path d="M2007.958,1130.845l41.455,15.124q19.162,6.991,32.035,18.3a77.846,77.846,0,0,1,19.457,25.273,71.733,71.733,0,0,1,6.844,29.759,88.7,88.7,0,0,1-5.67,32.041,82.6,82.6,0,0,1-16.852,28.076,75.332,75.332,0,0,1-25.128,18.092,82.043,82.043,0,0,1-30.916,6.778,90.589,90.589,0,0,1-34-5.792l-42.7-15.582Zm18.755,36.583L1990.388,1267l11.04,4.027a67.754,67.754,0,0,0,23.864,4.459,50.441,50.441,0,0,0,37.424-16.206,53.025,53.025,0,0,0,11.037-18.28,61.632,61.632,0,0,0,4-21.318,44.322,44.322,0,0,0-4.469-19.451,49.475,49.475,0,0,0-13.526-16.618q-9.09-7.446-23.251-12.613Z" transform="translate(-1952.482 -1130.846)" fill="#00b3e3"/></svg>