<svg xmlns="http://www.w3.org/2000/svg" width="90.27" height="186.869" viewBox="0 0 90.27 186.869"><path d="M4932.288,572.2q2.973-9.119,10.2-12.9t16.6-.724q9.365,3.051,12.861,10.328t.519,16.394q-2.891,8.873-10.126,12.654t-16.6.724q-9.372-3.054-12.861-10.328T4932.288,572.2Zm20.822-25.393q1.885-11.66,4.67-24.795t6.134-26.769q3.354-13.635,7.118-27.27t7.78-25.961l9.4-28.843,33.034,10.767-9.4,28.843q-4.02,12.329-8.889,25.6t-10.2,26.266q-5.328,12.992-10.82,25.244T4971.1,552.675Z" transform="translate(-4930.977 -413.174)" fill="#ffb046"/></svg>