<svg xmlns="http://www.w3.org/2000/svg" width="169.074" height="170.48" viewBox="0 0 169.074 170.48"><path d="M1999.263,1157.938q-19.95-12.738-28.831-29.037a106.177,106.177,0,0,1-11.753-34.015l37-2.87a48.169,48.169,0,0,0,4.894,22.995,41.862,41.862,0,0,0,15.21,16.6q10.882,6.946,20.37,4.744t14.239-9.641a13.652,13.652,0,0,0,2.251-9.3,26.92,26.92,0,0,0-3.417-9.755,69.907,69.907,0,0,0-7.212-10.249q-4.423-5.3-9.137-10.793-5.959-7.105-11.664-14.6a58.947,58.947,0,0,1-8.716-15.893,43.238,43.238,0,0,1-2.429-17.525q.581-9.127,7.076-19.3a42.816,42.816,0,0,1,13.869-13.727,47.484,47.484,0,0,1,18.482-6.515,57.156,57.156,0,0,1,21.074,1.2,69.555,69.555,0,0,1,21.447,9.282,86.955,86.955,0,0,1,14.99,11.839,74.526,74.526,0,0,1,10.267,12.8,66.457,66.457,0,0,1,6.572,13.7,111.752,111.752,0,0,1,3.905,14.545l-33.777,3.144q-.2-20.574-17.323-31.508-10.077-6.439-18.311-5.082a17.7,17.7,0,0,0-12.614,8.2,13.113,13.113,0,0,0-2.208,8.791,26.017,26.017,0,0,0,3.24,9.367,66.667,66.667,0,0,0,7.009,10.125q4.316,5.233,9.115,11.046,5.953,7.111,11.576,14.968a66.782,66.782,0,0,1,8.7,16.579,45.1,45.1,0,0,1,2.479,18.112q-.613,9.393-7.23,19.765a49.274,49.274,0,0,1-13.923,14.257,50.576,50.576,0,0,1-18.934,7.888,58.725,58.725,0,0,1-22.294-.182A67.982,67.982,0,0,1,1999.263,1157.938Z" transform="translate(-1958.678 -998.566)" fill="#00b3e3"/></svg>