<svg xmlns="http://www.w3.org/2000/svg" width="38.828" height="39.15" viewBox="0 0 38.828 39.15"><path d="M1968,1035.166a18.772,18.772,0,0,1-6.621-6.668,24.391,24.391,0,0,1-2.7-7.812l8.5-.659a11.063,11.063,0,0,0,1.124,5.281,9.616,9.616,0,0,0,3.493,3.813,6.055,6.055,0,0,0,4.678,1.089,5.059,5.059,0,0,0,3.27-2.214,3.136,3.136,0,0,0,.517-2.136,6.19,6.19,0,0,0-.785-2.24,16.084,16.084,0,0,0-1.656-2.354q-1.016-1.218-2.1-2.479-1.369-1.632-2.679-3.353a13.545,13.545,0,0,1-2-3.65,9.928,9.928,0,0,1-.558-4.025,9.449,9.449,0,0,1,1.625-4.433,9.827,9.827,0,0,1,3.185-3.152,10.9,10.9,0,0,1,4.244-1.5,13.125,13.125,0,0,1,4.84.275,15.973,15.973,0,0,1,4.926,2.132,19.96,19.96,0,0,1,3.442,2.719,17.123,17.123,0,0,1,2.358,2.938,15.281,15.281,0,0,1,1.509,3.146,25.665,25.665,0,0,1,.9,3.34l-7.757.722a8.179,8.179,0,0,0-3.978-7.236,6.058,6.058,0,0,0-4.205-1.167,4.063,4.063,0,0,0-2.9,1.884,3.011,3.011,0,0,0-.507,2.019,5.973,5.973,0,0,0,.744,2.151,15.312,15.312,0,0,0,1.61,2.325l2.093,2.537q1.367,1.633,2.658,3.438a15.346,15.346,0,0,1,2,3.807,10.37,10.37,0,0,1,.569,4.159,9.692,9.692,0,0,1-1.661,4.539,11.318,11.318,0,0,1-3.2,3.274,11.617,11.617,0,0,1-4.348,1.811,13.49,13.49,0,0,1-5.12-.042A15.616,15.616,0,0,1,1968,1035.166Z" transform="translate(-1958.678 -998.566)" fill="#ffb046"/></svg>