<svg xmlns="http://www.w3.org/2000/svg" width="38.273" height="37.113" viewBox="0 0 38.273 37.113"><path d="M3.082,29.562Q-.265,24.329.023,19.732A8.939,8.939,0,0,1,4.477,12.47,11.02,11.02,0,0,1,8.458,10.8a25.17,25.17,0,0,1,3.629-.384q1.645,0,3.087-.037A4.845,4.845,0,0,0,17.7,9.648q2.331-1.491-.225-5.491L23.971,0q3.349,5.235,3.185,9.752t-4.579,7.341a11.069,11.069,0,0,1-4.657,1.8q-2.241.261-4.19.332-1.29,0-2.389.119a4.6,4.6,0,0,0-2.015.7q-2.168,1.387.338,5.3Z" transform="translate(26.793 -0.001) rotate(65)" fill="#ffb046"/></svg>