<svg xmlns="http://www.w3.org/2000/svg" width="35.66" height="39.838" viewBox="0 0 35.66 39.838"><path d="M1965.222,1130.845l9.52,3.473a22.929,22.929,0,0,1,7.357,4.2,17.875,17.875,0,0,1,4.468,5.8,16.471,16.471,0,0,1,1.572,6.834,20.365,20.365,0,0,1-1.3,7.358,18.968,18.968,0,0,1-3.87,6.448,17.3,17.3,0,0,1-5.77,4.155,18.842,18.842,0,0,1-7.1,1.557,20.8,20.8,0,0,1-7.808-1.33l-9.806-3.578Zm4.307,8.4-8.342,22.866,2.535.925a15.556,15.556,0,0,0,5.48,1.024,11.584,11.584,0,0,0,8.594-3.722,12.178,12.178,0,0,0,2.535-4.2,14.156,14.156,0,0,0,.918-4.9,10.177,10.177,0,0,0-1.026-4.467,11.361,11.361,0,0,0-3.106-3.816,18.213,18.213,0,0,0-5.34-2.9Z" transform="translate(-1952.483 -1130.846)" fill="#ffb046"/></svg>