<svg xmlns="http://www.w3.org/2000/svg" width="35.451" height="36.758" viewBox="0 0 35.451 36.758"><path d="M1756.033,1186.46a19.958,19.958,0,0,1-7.708-1.445,17.958,17.958,0,0,1-5.95-3.921,17.408,17.408,0,0,1-3.816-5.833,18.984,18.984,0,0,1-1.357-7.18,18.327,18.327,0,0,1,1.457-7.376,17.872,17.872,0,0,1,3.992-5.807,18.2,18.2,0,0,1,5.976-3.822,19.8,19.8,0,0,1,7.406-1.372,18.438,18.438,0,0,1,4.946.661,19.343,19.343,0,0,1,4.469,1.855,17.57,17.57,0,0,1,3.765,2.9,18.707,18.707,0,0,1,2.888,3.788l-5.975,3.637a12.938,12.938,0,0,0-4.067-4.472,10.622,10.622,0,0,0-6.026-1.64,12.73,12.73,0,0,0-4.821.894,11.643,11.643,0,0,0-3.816,2.465,11.268,11.268,0,0,0-2.51,3.7,11.613,11.613,0,0,0-.9,4.591,11.315,11.315,0,0,0,.9,4.519,11.357,11.357,0,0,0,6.251,6.138,12.413,12.413,0,0,0,4.745.893,10.989,10.989,0,0,0,6.453-1.842,12.642,12.642,0,0,0,4.092-4.715l6.227,3.111a20.287,20.287,0,0,1-2.937,4.174,19.039,19.039,0,0,1-3.867,3.26,18.314,18.314,0,0,1-4.619,2.1A18.085,18.085,0,0,1,1756.033,1186.46Z" transform="translate(-1737.202 -1149.702)" fill="#00b3e3"/></svg>