<svg xmlns="http://www.w3.org/2000/svg" width="24.73" height="51.199" viewBox="0 0 24.73 51.199"><path d="M1338.253-338.723a5.788,5.788,0,0,1,2.8-3.535,5.686,5.686,0,0,1,4.548-.2,5.569,5.569,0,0,1,3.523,2.829,5.864,5.864,0,0,1,.142,4.492,5.7,5.7,0,0,1-2.774,3.467,5.689,5.689,0,0,1-4.548.2,5.565,5.565,0,0,1-3.523-2.83A5.762,5.762,0,0,1,1338.253-338.723Zm5.7-6.958q.518-3.193,1.28-6.793t1.681-7.335q.918-3.735,1.949-7.472t2.132-7.113l2.576-7.9,9.051,2.95-2.576,7.9q-1.1,3.378-2.436,7.014t-2.794,7.2q-1.459,3.559-2.964,6.917t-2.968,6.243Z" transform="translate(-1337.894 382.294)" fill="#00b3e3"/></svg>