<svg xmlns="http://www.w3.org/2000/svg" width="49.098" height="57.793" viewBox="0 0 49.098 57.793"><path d="M1297.463-512.651a22.941,22.941,0,0,1,5.406-1.89,7.875,7.875,0,0,1,4.156.229,7.861,7.861,0,0,1,3.341,2.442,22.023,22.023,0,0,1,2.912,4.774l2.245,4.759a17.649,17.649,0,0,0,1.27,2.31,3.407,3.407,0,0,0,1.33,1.232,2.887,2.887,0,0,0,1.756.161,10.959,10.959,0,0,0,2.593-.923l2.893,6.133a12.144,12.144,0,0,0-2.374,1.389,2.739,2.739,0,0,0-1,1.433,3.4,3.4,0,0,0,.1,1.81,17.633,17.633,0,0,0,.975,2.449l2.383,5.053a22.031,22.031,0,0,1,1.832,5.283,7.862,7.862,0,0,1-.24,4.132,7.877,7.877,0,0,1-2.467,3.353,22.933,22.933,0,0,1-4.9,2.97l-.54.254-2.893-6.133a16.473,16.473,0,0,0,2.446-1.364,3.065,3.065,0,0,0,1.147-1.32,2.6,2.6,0,0,0-.01-1.675,17.1,17.1,0,0,0-.975-2.449l-2.384-5.053a14.211,14.211,0,0,1-1.538-5.422,6.285,6.285,0,0,1,1.469-4.261,6.144,6.144,0,0,1-4.247-1.565,14.6,14.6,0,0,1-3.182-4.647l-2.245-4.759a17.051,17.051,0,0,0-1.27-2.31,2.6,2.6,0,0,0-1.286-1.073,3.061,3.061,0,0,0-1.748.045,16.48,16.48,0,0,0-2.608,1.02l-2.893-6.133Z" transform="matrix(0.899, -0.438, 0.438, 0.899, -940.031, 1044.534)" fill="#00b3e3"/></svg>