<svg xmlns="http://www.w3.org/2000/svg" width="651.424" height="749.15" viewBox="0 0 651.424 749.15">
  <g id="Persona" transform="translate(-1593.939 -1834.064)">
    <path id="Path_291" data-name="Path 291" d="M1665.049,1923.75q1.177-41.7,20.136-66.143t52.156-23.508q16.589.468,28.407,5.783a168.585,168.585,0,0,1,21.6,11.572q9.119,6.233,17.281,11.447a32.525,32.525,0,0,0,16.794,5.457q18.574.528,19.484-31.342l51.786,1.458q-1.176,41.72-19.14,66.184-17.98,24.477-53.153,23.471-19.26-.544-32.676-7.563t-24.522-13.979q-7.185-4.844-13.72-8.363a30.875,30.875,0,0,0-13.844-3.712q-17.275-.483-18.142,30.719Z" transform="translate(189.469 0)" fill="#fff"/>
    <path id="Path_292" data-name="Path 292" d="M1749.328,1899.566l.737,53.442-92.047-30.173-.521-37.725Zm153.826-17.391q16.611-.226,26.856,9.512t10.477,26.806q.236,17.061-9.736,26.86t-26.589,10.022q-16.166.225-26.406-9.516t-10.477-26.806q-.236-17.073,9.736-26.86T1903.154,1882.175Z" transform="translate(169.347 128.174)" fill="#fff"/>
    <path id="Path_293" data-name="Path 293" d="M2012.279,1943.791a269.584,269.584,0,0,1-34.453,41.39,219.033,219.033,0,0,1-41.961,32.225,199.858,199.858,0,0,1-50.016,20.869,222.3,222.3,0,0,1-58.258,7.307q-31.507-.005-57.7-6.977a193.8,193.8,0,0,1-48.172-19.8,205.9,205.9,0,0,1-40.474-30.976,326.167,326.167,0,0,1-34.61-40.13l35.915-33.328a196.52,196.52,0,0,0,26,31.7,167.9,167.9,0,0,0,32.6,25.109,159.492,159.492,0,0,0,39.378,16.5,178.052,178.052,0,0,0,47.077,5.878q48.365.017,83.909-20.858t59.738-60.064Z" transform="translate(140.392 209.35)" fill="#fff"/>
    <path id="Path_294" data-name="Path 294" d="M1798.717,2189.667l-54.051,1.4L1607.4,1899.534l54.051-1.4Z" transform="translate(35.874 170.721)" fill="#fff"/>
    <g id="Group_103" data-name="Group 103" transform="translate(1593.939 1901.21)">
      <path id="Path_295" data-name="Path 295" d="M1683.674,1950.779l9.476,47.349h-48.162l9.059-46.931L1617.4,1982.48l-23.46-42,45.286-15.233-45.286-16.05,24.7-41.167,35.809,31.284-9.458-46.931h48.162l-9.875,47.759,37.048-32.112,23.877,41.988-46.106,15.647,46.106,15.644-24.7,41.167Z" transform="translate(-1593.939 -1852.388)" fill="#fff"/>
    </g>
    <path id="Path_296" data-name="Path 296" d="M1733.377,2067.721l85.451-28.52-85.77-27.531-.263-45.3,142.342,50.243.252,44.149-141.752,52.259Z" transform="translate(369.975 352.521)" fill="#fff"/>
    <path id="Path_297" data-name="Path 297" d="M1775.191,2009.885l-42.435.15,25.079,75.381,30.21-.106Z" transform="translate(369.87 468.465)" fill="#fff"/>
    <path id="Path_436" data-name="Path 436" d="M156.183,157.267a64.544,64.544,0,0,1-3.93,22.07,65.966,65.966,0,0,1-11.488,19.953,70.47,70.47,0,0,1-18.593,15.57,78.357,78.357,0,0,1-25.244,9.221v35.07H55.812V223.779q-21.767-3.628-38.093-13.756A121.927,121.927,0,0,1-10.4,186.29l37.488-29.325A58.538,58.538,0,0,0,39.94,172.232,61.13,61.13,0,0,0,56.719,182.36V124.012A201.355,201.355,0,0,1,35.556,116a74.243,74.243,0,0,1-18.9-11.942,59.209,59.209,0,0,1-13.6-17.384Q-2.234,76.547-2.234,62.338A55.489,55.489,0,0,1,2,40.722,60.357,60.357,0,0,1,13.94,22.431,72.488,72.488,0,0,1,32.231,8.524,73.928,73.928,0,0,1,55.812.664V-31.08H96.928V1.571Q114.16,4.9,126.555,12.757A133.642,133.642,0,0,1,149.532,31.2L115.369,56.9A46.955,46.955,0,0,0,95.718,40.571v52.6q10.581,3.628,21.465,8.616a82.34,82.34,0,0,1,19.5,12.4,59.034,59.034,0,0,1,14.058,17.988Q156.183,142.756,156.183,157.267Zm-41.721-.3a16.869,16.869,0,0,0-5.291-12.849A47.567,47.567,0,0,0,95.718,135.5V183.57a32.7,32.7,0,0,0,13.756-11.035A26.518,26.518,0,0,0,114.463,156.965ZM38.882,60.826q0,7.86,4.837,12.4a42,42,0,0,0,13,7.86V38.454a28.567,28.567,0,0,0-13.151,8.919A21.03,21.03,0,0,0,38.882,60.826Z" transform="translate(1895.939 2324.064)" fill="#fff"/>
  </g>
</svg>
