<svg xmlns="http://www.w3.org/2000/svg" width="286" height="328" viewBox="0 0 286 328">
  <g id="Group_221" data-name="Group 221" transform="translate(-37 -216)">
    <rect id="Rectangle_915" data-name="Rectangle 915" width="286" height="40" transform="translate(37 264)" fill="#ffb046"/>
    <rect id="Rectangle_916" data-name="Rectangle 916" width="286" height="40" transform="translate(37 312)" fill="#2138e3"/>
    <rect id="Rectangle_917" data-name="Rectangle 917" width="286" height="40" transform="translate(37 360)" fill="#ffb046"/>
    <rect id="Rectangle_918" data-name="Rectangle 918" width="286" height="40" transform="translate(37 408)" fill="#97d653"/>
    <rect id="Rectangle_919" data-name="Rectangle 919" width="286" height="40" transform="translate(37 456)" fill="#00b3e3"/>
    <rect id="Rectangle_920" data-name="Rectangle 920" width="286" height="40" transform="translate(37 504)" fill="#44c5b2"/>
    <rect id="Rectangle_914" data-name="Rectangle 914" width="286" height="40" transform="translate(37 216)" fill="#1428a0"/>
    <path id="Path_528" data-name="Path 528" d="M4.961-6.016h-1.8V0H1.992V-6.016H.205V-7.07H4.961ZM9.424-2.871a3.275,3.275,0,0,1-.049.576H6.055A1.322,1.322,0,0,0,7.48-.928a2.6,2.6,0,0,0,1.3-.342L9.2-.4a2.913,2.913,0,0,1-.845.381,3.625,3.625,0,0,1-.991.137A2.311,2.311,0,0,1,5.537-.61a2.967,2.967,0,0,1-.645-2.036A3.128,3.128,0,0,1,5.5-4.7,2.088,2.088,0,0,1,7.2-5.43a2.058,2.058,0,0,1,1.641.674A2.78,2.78,0,0,1,9.424-2.871ZM7.168-4.414q-.967,0-1.1,1.309H8.271a1.536,1.536,0,0,0-.308-.967A.985.985,0,0,0,7.168-4.414ZM12.686.117A2.379,2.379,0,0,1,10.84-.6a2.852,2.852,0,0,1-.654-2,3.446,3.446,0,0,1,.3-1.489,2.308,2.308,0,0,1,.859-.991,2.362,2.362,0,0,1,1.289-.352,2.979,2.979,0,0,1,.845.122,2.391,2.391,0,0,1,.728.347l-.42.9a2.77,2.77,0,0,0-1.172-.312,1.075,1.075,0,0,0-.923.449,2.109,2.109,0,0,0-.327,1.26q0,1.729,1.377,1.729a2.407,2.407,0,0,0,1.123-.3l.4.889A2.59,2.59,0,0,1,12.686.117ZM17.92-5.43a1.542,1.542,0,0,1,1.191.454,1.807,1.807,0,0,1,.42,1.274V0H18.379V-3.555q0-.791-.879-.791a1.618,1.618,0,0,0-.566.1,1.85,1.85,0,0,0-.518.3V0H15.264V-7.52h1.152v2.744A2.005,2.005,0,0,1,17.92-5.43Zm5.732,0a1.529,1.529,0,0,1,1.182.454,1.807,1.807,0,0,1,.42,1.274V0H24.1V-3.555q0-.791-.869-.791a1.682,1.682,0,0,0-1.074.4V0H21.006V-5.3h1.045v.645A2.024,2.024,0,0,1,23.652-5.43Zm3.1.127H27.9V0H26.748Zm.576-.762A.717.717,0,0,1,26.8-6.25a.663.663,0,0,1-.19-.5.683.683,0,0,1,.186-.513.725.725,0,0,1,.527-.181.717.717,0,0,1,.522.186.663.663,0,0,1,.19.5.683.683,0,0,1-.186.513A.725.725,0,0,1,27.324-6.064ZM31.572.117A2.379,2.379,0,0,1,29.727-.6a2.852,2.852,0,0,1-.654-2,3.446,3.446,0,0,1,.3-1.489,2.308,2.308,0,0,1,.859-.991,2.362,2.362,0,0,1,1.289-.352,2.979,2.979,0,0,1,.845.122,2.391,2.391,0,0,1,.728.347l-.42.9A2.77,2.77,0,0,0,31.5-4.375a1.075,1.075,0,0,0-.923.449,2.109,2.109,0,0,0-.327,1.26q0,1.729,1.377,1.729a2.407,2.407,0,0,0,1.123-.3l.4.889A2.59,2.59,0,0,1,31.572.117ZM35.8-5.43a2.225,2.225,0,0,1,1.479.449A1.581,1.581,0,0,1,37.813-3.7V0H36.777V-.742a1.69,1.69,0,0,1-1.572.85,1.611,1.611,0,0,1-1.191-.42,1.584,1.584,0,0,1-.42-1.172,1.508,1.508,0,0,1,.737-1.392A4.754,4.754,0,0,1,36.67-3.33v-.244q0-.82-1.064-.82a3.029,3.029,0,0,0-1.24.273l-.293-.9A3.938,3.938,0,0,1,35.8-5.43ZM35.488-.879a1.528,1.528,0,0,0,1.182-.547V-2.539a3.771,3.771,0,0,0-1.494.249.755.755,0,0,0-.469.718Q34.707-.879,35.488-.879Zm5.1.947a1.187,1.187,0,0,1-1.338-1.348V-7.52H40.4v6.025a.577.577,0,0,0,.117.4.483.483,0,0,0,.371.127A2.752,2.752,0,0,0,41.25-1l.078.977A3.05,3.05,0,0,1,40.586.068Zm5.732.049a4.709,4.709,0,0,1-1.226-.161A3.773,3.773,0,0,1,44.033-.5l.381-.937a3.808,3.808,0,0,0,1.9.527,1.657,1.657,0,0,0,.986-.244.83.83,0,0,0,.332-.713A.885.885,0,0,0,47.4-2.5a1.6,1.6,0,0,0-.757-.386l-.8-.225a2.664,2.664,0,0,1-1.318-.723,1.83,1.83,0,0,1-.41-1.25,1.975,1.975,0,0,1,.615-1.543,2.47,2.47,0,0,1,1.719-.557,5.121,5.121,0,0,1,1.089.122,5.316,5.316,0,0,1,1.06.347l-.391.938a5.055,5.055,0,0,0-1.777-.381,1.46,1.46,0,0,0-.879.225.764.764,0,0,0-.3.654.875.875,0,0,0,.244.64,1.637,1.637,0,0,0,.762.386l.8.225a2.642,2.642,0,0,1,1.318.728,1.849,1.849,0,0,1,.41,1.255,2.015,2.015,0,0,1-.649,1.6A2.651,2.651,0,0,1,46.318.117Zm7.725-2.988a3.275,3.275,0,0,1-.049.576h-3.32A1.322,1.322,0,0,0,52.1-.928a2.6,2.6,0,0,0,1.3-.342l.42.869a2.914,2.914,0,0,1-.845.381,3.625,3.625,0,0,1-.991.137A2.311,2.311,0,0,1,50.156-.61a2.967,2.967,0,0,1-.645-2.036A3.128,3.128,0,0,1,50.117-4.7a2.088,2.088,0,0,1,1.7-.728,2.058,2.058,0,0,1,1.641.674A2.78,2.78,0,0,1,54.043-2.871ZM51.787-4.414q-.967,0-1.1,1.309h2.207a1.536,1.536,0,0,0-.308-.967A.985.985,0,0,0,51.787-4.414Zm4.8,4.531a3.947,3.947,0,0,1-1.04-.137A3.165,3.165,0,0,1,54.668-.4l.4-.937A2.887,2.887,0,0,0,56.592-.9q.938,0,.938-.586a.491.491,0,0,0-.161-.381,1.2,1.2,0,0,0-.513-.234l-.693-.166a2.072,2.072,0,0,1-1.069-.522,1.357,1.357,0,0,1-.337-.972,1.522,1.522,0,0,1,.513-1.221,2.163,2.163,0,0,1,1.45-.439,3.853,3.853,0,0,1,.938.117,3.654,3.654,0,0,1,.85.322l-.439.928A2.966,2.966,0,0,0,56.7-4.4q-.84,0-.84.537a.449.449,0,0,0,.166.356,1.283,1.283,0,0,0,.518.229l.693.166a2.08,2.08,0,0,1,1.074.537,1.4,1.4,0,0,1,.332.986,1.552,1.552,0,0,1-.537,1.26A2.294,2.294,0,0,1,56.592.117Zm4.531,0a3.947,3.947,0,0,1-1.04-.137A3.165,3.165,0,0,1,59.2-.4l.4-.937A2.887,2.887,0,0,0,61.123-.9q.938,0,.938-.586a.491.491,0,0,0-.161-.381,1.2,1.2,0,0,0-.513-.234l-.693-.166a2.072,2.072,0,0,1-1.069-.522,1.357,1.357,0,0,1-.337-.972A1.522,1.522,0,0,1,59.8-4.98a2.163,2.163,0,0,1,1.45-.439,3.853,3.853,0,0,1,.938.117,3.654,3.654,0,0,1,.85.322l-.439.928A2.966,2.966,0,0,0,61.23-4.4q-.84,0-.84.537a.449.449,0,0,0,.166.356,1.283,1.283,0,0,0,.518.229l.693.166a2.08,2.08,0,0,1,1.074.537,1.4,1.4,0,0,1,.332.986,1.552,1.552,0,0,1-.537,1.26A2.294,2.294,0,0,1,61.123.117ZM64.307-5.3h1.152V0H64.307Zm.576-.762a.717.717,0,0,1-.522-.186.663.663,0,0,1-.19-.5.683.683,0,0,1,.186-.513.725.725,0,0,1,.527-.181.717.717,0,0,1,.522.186.663.663,0,0,1,.19.5.683.683,0,0,1-.186.513A.725.725,0,0,1,64.883-6.064ZM68.975.127a2.116,2.116,0,0,1-1.709-.7,3.129,3.129,0,0,1-.6-2.07,3.131,3.131,0,0,1,.6-2.075,2.123,2.123,0,0,1,1.714-.708,2.109,2.109,0,0,1,1.709.708,3.149,3.149,0,0,1,.6,2.075,3.111,3.111,0,0,1-.6,2.07A2.13,2.13,0,0,1,68.975.127Zm0-1.025a.944.944,0,0,0,.85-.439,2.441,2.441,0,0,0,.283-1.309q0-1.748-1.123-1.748T67.852-2.646a2.441,2.441,0,0,0,.283,1.309A.935.935,0,0,0,68.975-.9ZM75.127-5.43a1.529,1.529,0,0,1,1.182.454,1.807,1.807,0,0,1,.42,1.274V0H75.576V-3.555q0-.791-.869-.791a1.682,1.682,0,0,0-1.074.4V0H72.48V-5.3h1.045v.645A2.024,2.024,0,0,1,75.127-5.43ZM79.619.117a3.947,3.947,0,0,1-1.04-.137A3.165,3.165,0,0,1,77.7-.4l.4-.937A2.887,2.887,0,0,0,79.619-.9q.938,0,.938-.586a.491.491,0,0,0-.161-.381,1.2,1.2,0,0,0-.513-.234l-.693-.166a2.072,2.072,0,0,1-1.069-.522,1.357,1.357,0,0,1-.337-.972A1.522,1.522,0,0,1,78.3-4.98a2.163,2.163,0,0,1,1.45-.439,3.853,3.853,0,0,1,.938.117,3.654,3.654,0,0,1,.85.322l-.439.928A2.966,2.966,0,0,0,79.727-4.4q-.84,0-.84.537a.449.449,0,0,0,.166.356,1.283,1.283,0,0,0,.518.229l.693.166a2.08,2.08,0,0,1,1.074.537,1.4,1.4,0,0,1,.332.986,1.552,1.552,0,0,1-.537,1.26A2.294,2.294,0,0,1,79.619.117ZM86.6-5.43a2.225,2.225,0,0,1,1.479.449A1.581,1.581,0,0,1,88.613-3.7V0H87.578V-.742a1.69,1.69,0,0,1-1.572.85,1.611,1.611,0,0,1-1.191-.42,1.584,1.584,0,0,1-.42-1.172,1.508,1.508,0,0,1,.737-1.392,4.754,4.754,0,0,1,2.339-.454v-.244q0-.82-1.064-.82a3.029,3.029,0,0,0-1.24.273l-.293-.9A3.938,3.938,0,0,1,86.6-5.43ZM86.289-.879a1.528,1.528,0,0,0,1.182-.547V-2.539a3.771,3.771,0,0,0-1.494.249.755.755,0,0,0-.469.718Q85.508-.879,86.289-.879ZM92.715-5.43a1.529,1.529,0,0,1,1.182.454,1.807,1.807,0,0,1,.42,1.274V0H93.164V-3.555q0-.791-.869-.791a1.682,1.682,0,0,0-1.074.4V0H90.068V-5.3h1.045v.645A2.024,2.024,0,0,1,92.715-5.43ZM98.877,0V-.732a1.625,1.625,0,0,1-1.484.859A1.639,1.639,0,0,1,95.967-.6a3.559,3.559,0,0,1-.508-2.056A3.492,3.492,0,0,1,95.977-4.7a1.679,1.679,0,0,1,1.455-.732,1.889,1.889,0,0,1,.752.146,1.592,1.592,0,0,1,.586.43V-7.52h1.152V0ZM97.754-.947a1.194,1.194,0,0,0,.532-.117,1.694,1.694,0,0,0,.483-.381V-3.9a1.418,1.418,0,0,0-.483-.361,1.385,1.385,0,0,0-.581-.127q-1.064,0-1.064,1.7Q96.641-.947,97.754-.947Zm9.961-5.068h-1.8V0h-1.172V-6.016h-1.787V-7.07h4.756Zm3.623.586a1.542,1.542,0,0,1,1.191.454,1.807,1.807,0,0,1,.42,1.274V0H111.8V-3.555q0-.791-.879-.791a1.618,1.618,0,0,0-.566.1,1.85,1.85,0,0,0-.518.3V0h-1.152V-7.52h1.152v2.744A2.005,2.005,0,0,1,111.338-5.43ZM118.6-2.871a3.274,3.274,0,0,1-.049.576h-3.32A1.322,1.322,0,0,0,116.66-.928a2.6,2.6,0,0,0,1.3-.342l.42.869a2.913,2.913,0,0,1-.845.381,3.625,3.625,0,0,1-.991.137,2.311,2.311,0,0,1-1.826-.728,2.967,2.967,0,0,1-.645-2.036,3.128,3.128,0,0,1,.605-2.056,2.088,2.088,0,0,1,1.7-.728,2.058,2.058,0,0,1,1.641.674A2.78,2.78,0,0,1,118.6-2.871Zm-2.256-1.543q-.967,0-1.1,1.309h2.207a1.536,1.536,0,0,0-.308-.967A.985.985,0,0,0,116.348-4.414Zm5.137-1.016a2.225,2.225,0,0,1,1.479.449A1.581,1.581,0,0,1,123.5-3.7V0h-1.035V-.742a1.69,1.69,0,0,1-1.572.85,1.611,1.611,0,0,1-1.191-.42,1.584,1.584,0,0,1-.42-1.172,1.508,1.508,0,0,1,.737-1.392,4.754,4.754,0,0,1,2.339-.454v-.244q0-.82-1.064-.82a3.029,3.029,0,0,0-1.24.273l-.293-.9A3.938,3.938,0,0,1,121.484-5.43Zm-.312,4.551a1.528,1.528,0,0,0,1.182-.547V-2.539a3.771,3.771,0,0,0-1.494.249.755.755,0,0,0-.469.718Q120.391-.879,121.172-.879Zm5.771.957a1.55,1.55,0,0,1-1.777-1.729V-4.307h-.84v-1h.84V-6.777h1.152V-5.3H127.8v1h-1.484v2.461a1,1,0,0,0,.19.679.8.8,0,0,0,.62.21,2.2,2.2,0,0,0,.566-.078l.176.977A3.105,3.105,0,0,1,126.943.078Zm5.977-2.949a3.275,3.275,0,0,1-.049.576h-3.32a1.322,1.322,0,0,0,1.426,1.367,2.6,2.6,0,0,0,1.3-.342l.42.869a2.914,2.914,0,0,1-.845.381,3.625,3.625,0,0,1-.991.137,2.311,2.311,0,0,1-1.826-.728,2.967,2.967,0,0,1-.645-2.036,3.128,3.128,0,0,1,.605-2.056,2.088,2.088,0,0,1,1.7-.728,2.058,2.058,0,0,1,1.641.674A2.78,2.78,0,0,1,132.92-2.871Zm-2.256-1.543q-.967,0-1.1,1.309h2.207a1.536,1.536,0,0,0-.308-.967A.985.985,0,0,0,130.664-4.414Zm5.83-1a1.379,1.379,0,0,1,.605.127l-.234,1.094a2,2,0,0,0-.635-.1,1.279,1.279,0,0,0-.6.127,1.165,1.165,0,0,0-.43.41V0h-1.152V-5.3H135.1v.811A1.549,1.549,0,0,1,136.494-5.41ZM3.3,8.93V16H2.139V10.131L.6,10.668.264,9.711,2.295,8.93Zm5.9,6.055V16H4.8V14.975L7.168,12.24A6.14,6.14,0,0,0,7.8,11.4a1.207,1.207,0,0,0,.176-.6.844.844,0,0,0-.293-.679,1.2,1.2,0,0,0-.8-.249,2.642,2.642,0,0,0-.82.137,3.257,3.257,0,0,0-.8.391l-.527-.889A3.633,3.633,0,0,1,5.781,9a3.958,3.958,0,0,1,1.2-.2,2.576,2.576,0,0,1,1.138.239,1.8,1.8,0,0,1,.762.669,1.84,1.84,0,0,1,.269,1A2.195,2.195,0,0,1,8.9,11.713a6.025,6.025,0,0,1-.859,1.182l-1.865,2.09Zm2.07-3.33a.75.75,0,0,1-.547-.19.7.7,0,0,1-.2-.522.709.709,0,0,1,.2-.532.88.88,0,0,1,1.094,0,.7.7,0,0,1,.2.522.709.709,0,0,1-.2.532A.75.75,0,0,1,11.27,11.654Zm0,3.125a.75.75,0,0,1-.547-.19.7.7,0,0,1-.2-.522.709.709,0,0,1,.2-.532.88.88,0,0,1,1.094,0,.7.7,0,0,1,.2.522.709.709,0,0,1-.2.532A.75.75,0,0,1,11.27,14.779Zm4.521-3.154a2.058,2.058,0,0,1,1.353.688,2.165,2.165,0,0,1,.5,1.47,2.4,2.4,0,0,1-.308,1.226,2.1,2.1,0,0,1-.874.825,2.831,2.831,0,0,1-1.318.293,4.167,4.167,0,0,1-1.172-.171,3.3,3.3,0,0,1-.986-.454l.439-.957a4.132,4.132,0,0,0,.879.376,2.992,2.992,0,0,0,.84.132,1.33,1.33,0,0,0,.967-.332,1.247,1.247,0,0,0,.342-.937,1.191,1.191,0,0,0-.327-.889,1.231,1.231,0,0,0-.9-.322,2.772,2.772,0,0,0-.635.078l-.449-.576,2.012-2.129h-3V8.93h4.268V9.945Zm5.508,4.5a2.093,2.093,0,0,1-1.851-.889,4.973,4.973,0,0,1-.61-2.773,5,5,0,0,1,.605-2.778A2.085,2.085,0,0,1,21.289,8.8a2.107,2.107,0,0,1,1.86.884,4.97,4.97,0,0,1,.61,2.778,4.973,4.973,0,0,1-.61,2.773A2.093,2.093,0,0,1,21.3,16.127Zm0-1.035a1.009,1.009,0,0,0,.967-.63,4.889,4.889,0,0,0,.3-2,4.82,4.82,0,0,0-.308-2,1.018,1.018,0,0,0-.972-.63,1,1,0,0,0-.957.63,4.889,4.889,0,0,0-.3,2,4.889,4.889,0,0,0,.3,2A1.009,1.009,0,0,0,21.3,15.092ZM29.8,8.93a2.279,2.279,0,0,1,1.709.62,2.4,2.4,0,0,1,.605,1.753,2.394,2.394,0,0,1-.625,1.763,2.352,2.352,0,0,1-1.748.63H28.418V16H27.246V8.93H29.8Zm0,3.721q1.1,0,1.1-1.328,0-1.348-1.162-1.348H28.418V12.65ZM39.766,8.93V16H38.623V10.795l-1.592,3.8H35.811l-1.611-3.8V16H33.086V8.93h1.406l1.943,4.58,1.9-4.58Zm3.32,3.682H48.2v.869H43.086ZM53.8,11.488a2.125,2.125,0,0,1,1.1.283,1.9,1.9,0,0,1,.737.8A2.82,2.82,0,0,1,55.605,15a2.039,2.039,0,0,1-.825.835,2.521,2.521,0,0,1-1.235.293,2.551,2.551,0,0,1-1.265-.3,2.094,2.094,0,0,1-.84-.859,2.691,2.691,0,0,1-.3-1.289,3.846,3.846,0,0,1,.3-1.528,6.9,6.9,0,0,1,1.045-1.606L53.936,8.8l.908.7-1.455,1.66q-.254.293-.371.439A2.774,2.774,0,0,1,53.8,11.488Zm-.254,3.623a1.091,1.091,0,0,0,.859-.352,1.419,1.419,0,0,0,.313-.977,1.431,1.431,0,0,0-.332-1.006,1.185,1.185,0,0,0-.918-.361,2.211,2.211,0,0,0-.928.205,2.233,2.233,0,0,0-.225,1.045,1.583,1.583,0,0,0,.327,1.064A1.128,1.128,0,0,0,53.545,15.111Zm4.18-3.457a.75.75,0,0,1-.547-.19.7.7,0,0,1-.2-.522.709.709,0,0,1,.2-.532.88.88,0,0,1,1.094,0,.7.7,0,0,1,.2.522.709.709,0,0,1-.2.532A.75.75,0,0,1,57.725,11.654Zm0,3.125a.75.75,0,0,1-.547-.19.7.7,0,0,1-.2-.522.709.709,0,0,1,.2-.532.88.88,0,0,1,1.094,0,.7.7,0,0,1,.2.522.709.709,0,0,1-.2.532A.75.75,0,0,1,57.725,14.779Zm4.521-5.85V16H61.084V10.131l-1.543.537-.332-.957L61.24,8.93Zm3.818,2.51a2.359,2.359,0,0,1,1.177.283,1.969,1.969,0,0,1,.781.8,2.477,2.477,0,0,1,.278,1.191,2.514,2.514,0,0,1-.312,1.27,2.135,2.135,0,0,1-.879.845,2.793,2.793,0,0,1-1.318.3,3.97,3.97,0,0,1-1.118-.161,2.936,2.936,0,0,1-.913-.425l.43-.947a3.9,3.9,0,0,0,.82.347,2.81,2.81,0,0,0,.781.122,1.3,1.3,0,0,0,.972-.352,1.317,1.317,0,0,0,.347-.967,1.271,1.271,0,0,0-.317-.923,1.187,1.187,0,0,0-.894-.327,2.436,2.436,0,0,0-1.113.283l-.713-.381.186-3.467h3.721V9.945H65.293l-.127,1.641A2.823,2.823,0,0,1,66.064,11.439Zm8.242-2.51a2.279,2.279,0,0,1,1.709.62,2.4,2.4,0,0,1,.605,1.753A2.394,2.394,0,0,1,76,13.065a2.352,2.352,0,0,1-1.748.63H72.92V16H71.748V8.93h2.559Zm0,3.721q1.1,0,1.1-1.328,0-1.348-1.162-1.348H72.92V12.65ZM84.268,8.93V16H83.125V10.795l-1.592,3.8H80.313l-1.611-3.8V16H77.588V8.93h1.406l1.943,4.58,1.9-4.58Z" transform="translate(131 472)"/>
    <path id="Path_529" data-name="Path 529" d="M3.027-7.07a3.1,3.1,0,0,1,2.393.889,3.764,3.764,0,0,1,.82,2.637A3.783,3.783,0,0,1,5.415-.894,3.1,3.1,0,0,1,3.018,0H.82V-7.07Zm-.02,6.025a1.829,1.829,0,0,0,1.514-.63,2.932,2.932,0,0,0,.508-1.87q0-2.48-2.031-2.48H1.992v4.98ZM11.6-2.871a3.275,3.275,0,0,1-.049.576H8.232A1.322,1.322,0,0,0,9.658-.928a2.6,2.6,0,0,0,1.3-.342l.42.869a2.913,2.913,0,0,1-.845.381,3.625,3.625,0,0,1-.991.137A2.311,2.311,0,0,1,7.715-.61,2.967,2.967,0,0,1,7.07-2.646,3.128,3.128,0,0,1,7.676-4.7a2.088,2.088,0,0,1,1.7-.728,2.058,2.058,0,0,1,1.641.674A2.78,2.78,0,0,1,11.6-2.871ZM9.346-4.414q-.967,0-1.1,1.309h2.207a1.536,1.536,0,0,0-.308-.967A.985.985,0,0,0,9.346-4.414ZM16.816-5.3,15.068,0h-1.25L12.061-5.3h1.182l1.211,4.141L15.645-5.3ZM19.131.117a3.947,3.947,0,0,1-1.04-.137A3.165,3.165,0,0,1,17.207-.4l.4-.937A2.887,2.887,0,0,0,19.131-.9q.938,0,.938-.586a.491.491,0,0,0-.161-.381,1.2,1.2,0,0,0-.513-.234L18.7-2.266a2.072,2.072,0,0,1-1.069-.522,1.357,1.357,0,0,1-.337-.972,1.522,1.522,0,0,1,.513-1.221,2.163,2.163,0,0,1,1.45-.439A3.853,3.853,0,0,1,20.2-5.3a3.654,3.654,0,0,1,.85.322l-.439.928A2.966,2.966,0,0,0,19.238-4.4q-.84,0-.84.537a.449.449,0,0,0,.166.356,1.283,1.283,0,0,0,.518.229l.693.166a2.08,2.08,0,0,1,1.074.537,1.4,1.4,0,0,1,.332.986,1.552,1.552,0,0,1-.537,1.26A2.294,2.294,0,0,1,19.131.117Zm9.668-3.2H26.953v2.021H25.889V-3.086H24.043V-4.111h1.846V-6.133h1.064v2.021H28.8ZM34.336-7.07a3.1,3.1,0,0,1,2.393.889,3.764,3.764,0,0,1,.82,2.637,3.783,3.783,0,0,1-.825,2.651,3.1,3.1,0,0,1-2.4.894h-2.2V-7.07Zm-.02,6.025a1.829,1.829,0,0,0,1.514-.63,2.932,2.932,0,0,0,.508-1.87q0-2.48-2.031-2.48H33.3v4.98ZM41.27-5.41a1.379,1.379,0,0,1,.605.127l-.234,1.094a2,2,0,0,0-.635-.1,1.279,1.279,0,0,0-.6.127,1.165,1.165,0,0,0-.43.41V0H38.828V-5.3h1.045v.811A1.549,1.549,0,0,1,41.27-5.41Zm1.523.107h1.152V0H42.793Zm.576-.762a.717.717,0,0,1-.522-.186.663.663,0,0,1-.19-.5.683.683,0,0,1,.186-.513.725.725,0,0,1,.527-.181.717.717,0,0,1,.522.186.663.663,0,0,1,.19.5.683.683,0,0,1-.186.513A.725.725,0,0,1,43.369-6.064Zm4.766.635a1.529,1.529,0,0,1,1.182.454,1.807,1.807,0,0,1,.42,1.274V0H48.584V-3.555q0-.791-.869-.791a1.682,1.682,0,0,0-1.074.4V0H45.488V-5.3h1.045v.645A2.024,2.024,0,0,1,48.135-5.43Zm4.844,3.223-.615.713V0H51.211V-7.52h1.152v4.58L54.3-5.3h1.338L53.721-3.066,55.762,0H54.434ZM58.018.117a3.947,3.947,0,0,1-1.04-.137A3.165,3.165,0,0,1,56.094-.4l.4-.937A2.887,2.887,0,0,0,58.018-.9q.938,0,.938-.586a.491.491,0,0,0-.161-.381,1.2,1.2,0,0,0-.513-.234l-.693-.166a2.072,2.072,0,0,1-1.069-.522,1.357,1.357,0,0,1-.337-.972,1.522,1.522,0,0,1,.513-1.221,2.163,2.163,0,0,1,1.45-.439,3.853,3.853,0,0,1,.938.117,3.654,3.654,0,0,1,.85.322l-.439.928A2.966,2.966,0,0,0,58.125-4.4q-.84,0-.84.537a.449.449,0,0,0,.166.356,1.283,1.283,0,0,0,.518.229l.693.166a2.08,2.08,0,0,1,1.074.537,1.4,1.4,0,0,1,.332.986,1.552,1.552,0,0,1-.537,1.26A2.294,2.294,0,0,1,58.018.117ZM3.1,11.488a2.125,2.125,0,0,1,1.1.283,1.9,1.9,0,0,1,.737.8A2.82,2.82,0,0,1,4.9,15a2.039,2.039,0,0,1-.825.835,2.521,2.521,0,0,1-1.235.293,2.551,2.551,0,0,1-1.265-.3,2.1,2.1,0,0,1-.84-.859,2.691,2.691,0,0,1-.3-1.289,3.846,3.846,0,0,1,.3-1.528,6.9,6.9,0,0,1,1.045-1.606L3.232,8.8l.908.7-1.455,1.66q-.254.293-.371.439A2.774,2.774,0,0,1,3.1,11.488Zm-.254,3.623A1.091,1.091,0,0,0,3.7,14.76a1.419,1.419,0,0,0,.313-.977,1.431,1.431,0,0,0-.332-1.006,1.185,1.185,0,0,0-.918-.361,2.211,2.211,0,0,0-.928.205,2.233,2.233,0,0,0-.225,1.045,1.583,1.583,0,0,0,.327,1.064A1.128,1.128,0,0,0,2.842,15.111Zm4.18-3.457a.75.75,0,0,1-.547-.19.7.7,0,0,1-.2-.522.709.709,0,0,1,.2-.532.75.75,0,0,1,.547-.19.75.75,0,0,1,.547.19.7.7,0,0,1,.2.522.709.709,0,0,1-.2.532A.75.75,0,0,1,7.021,11.654Zm0,3.125a.75.75,0,0,1-.547-.19.7.7,0,0,1-.2-.522.709.709,0,0,1,.2-.532.75.75,0,0,1,.547-.19.75.75,0,0,1,.547.19.7.7,0,0,1,.2.522.709.709,0,0,1-.2.532A.75.75,0,0,1,7.021,14.779Zm4.521,1.348a2.093,2.093,0,0,1-1.851-.889,4.973,4.973,0,0,1-.61-2.773,5,5,0,0,1,.605-2.778A2.085,2.085,0,0,1,11.533,8.8a2.107,2.107,0,0,1,1.86.884A4.97,4.97,0,0,1,14,12.465a4.973,4.973,0,0,1-.61,2.773A2.093,2.093,0,0,1,11.543,16.127Zm0-1.035a1.009,1.009,0,0,0,.967-.63,4.889,4.889,0,0,0,.3-2,4.82,4.82,0,0,0-.308-2,1.018,1.018,0,0,0-.972-.63,1,1,0,0,0-.957.63,4.889,4.889,0,0,0-.3,2,4.889,4.889,0,0,0,.3,2A1.009,1.009,0,0,0,11.543,15.092Zm6.113,1.035a2.093,2.093,0,0,1-1.851-.889,4.973,4.973,0,0,1-.61-2.773A5,5,0,0,1,15.8,9.687,2.085,2.085,0,0,1,17.646,8.8a2.107,2.107,0,0,1,1.86.884,4.97,4.97,0,0,1,.61,2.778,4.973,4.973,0,0,1-.61,2.773A2.093,2.093,0,0,1,17.656,16.127Zm0-1.035a1.009,1.009,0,0,0,.967-.63,4.889,4.889,0,0,0,.3-2,4.82,4.82,0,0,0-.308-2,1.018,1.018,0,0,0-.972-.63,1,1,0,0,0-.957.63,4.889,4.889,0,0,0-.3,2,4.889,4.889,0,0,0,.3,2A1.009,1.009,0,0,0,17.656,15.092ZM26.162,8.93a2.279,2.279,0,0,1,1.709.62,2.4,2.4,0,0,1,.605,1.753,2.394,2.394,0,0,1-.625,1.763,2.352,2.352,0,0,1-1.748.63H24.775V16H23.6V8.93h2.559Zm0,3.721q1.1,0,1.1-1.328,0-1.348-1.162-1.348H24.775V12.65ZM36.123,8.93V16H34.98V10.795l-1.592,3.8H32.168l-1.611-3.8V16H29.443V8.93H30.85l1.943,4.58,1.9-4.58Zm3.32,3.682h5.117v.869H39.443Zm12.2-3.682V9.945L48.906,16.1l-1.094-.449,2.617-5.7H47.178V8.93Zm1.445,2.725a.75.75,0,0,1-.547-.19.7.7,0,0,1-.2-.522.709.709,0,0,1,.2-.532.88.88,0,0,1,1.094,0,.7.7,0,0,1,.2.522.709.709,0,0,1-.2.532A.75.75,0,0,1,53.086,11.654Zm0,3.125a.75.75,0,0,1-.547-.19.7.7,0,0,1-.2-.522.709.709,0,0,1,.2-.532.88.88,0,0,1,1.094,0,.7.7,0,0,1,.2.522.709.709,0,0,1-.2.532A.75.75,0,0,1,53.086,14.779Zm4.521-3.154a2.058,2.058,0,0,1,1.353.688,2.165,2.165,0,0,1,.5,1.47,2.4,2.4,0,0,1-.308,1.226,2.1,2.1,0,0,1-.874.825,2.831,2.831,0,0,1-1.318.293,4.167,4.167,0,0,1-1.172-.171A3.3,3.3,0,0,1,54.8,15.5l.439-.957a4.132,4.132,0,0,0,.879.376,2.992,2.992,0,0,0,.84.132,1.33,1.33,0,0,0,.967-.332,1.247,1.247,0,0,0,.342-.937,1.191,1.191,0,0,0-.327-.889,1.231,1.231,0,0,0-.9-.322,2.772,2.772,0,0,0-.635.078l-.449-.576,2.012-2.129h-3V8.93h4.268V9.945Zm5.508,4.5a2.093,2.093,0,0,1-1.851-.889,4.973,4.973,0,0,1-.61-2.773,5,5,0,0,1,.605-2.778A2.085,2.085,0,0,1,63.105,8.8a2.107,2.107,0,0,1,1.86.884,4.97,4.97,0,0,1,.61,2.778,4.973,4.973,0,0,1-.61,2.773A2.093,2.093,0,0,1,63.115,16.127Zm0-1.035a1.009,1.009,0,0,0,.967-.63,4.889,4.889,0,0,0,.3-2,4.82,4.82,0,0,0-.308-2,1.018,1.018,0,0,0-.972-.63,1,1,0,0,0-.957.63,4.889,4.889,0,0,0-.3,2,4.889,4.889,0,0,0,.3,2A1.009,1.009,0,0,0,63.115,15.092ZM71.621,8.93a2.279,2.279,0,0,1,1.709.62,2.4,2.4,0,0,1,.605,1.753,2.394,2.394,0,0,1-.625,1.763,2.352,2.352,0,0,1-1.748.63H70.234V16H69.063V8.93h2.559Zm0,3.721q1.1,0,1.1-1.328,0-1.348-1.162-1.348H70.234V12.65ZM81.582,8.93V16H80.439V10.795l-1.592,3.8H77.627l-1.611-3.8V16H74.9V8.93h1.406l1.943,4.58,1.9-4.58Z" transform="translate(131 520)"/>
    <path id="Path_523" data-name="Path 523" d="M3.008-2.529H1.992V0H.82V-7.07H3.291a2.3,2.3,0,0,1,1.694.6,2.247,2.247,0,0,1,.6,1.67,2.481,2.481,0,0,1-.352,1.367,1.88,1.88,0,0,1-1.016.771L6,0H4.59ZM1.992-3.535h1.3q1.084,0,1.084-1.25T3.252-6.035H1.992Zm9.092.664a3.275,3.275,0,0,1-.049.576H7.715A1.322,1.322,0,0,0,9.141-.928a2.6,2.6,0,0,0,1.3-.342l.42.869a2.913,2.913,0,0,1-.845.381,3.625,3.625,0,0,1-.991.137A2.311,2.311,0,0,1,7.2-.61a2.967,2.967,0,0,1-.645-2.036A3.128,3.128,0,0,1,7.158-4.7a2.088,2.088,0,0,1,1.7-.728,2.058,2.058,0,0,1,1.641.674A2.78,2.78,0,0,1,11.084-2.871ZM8.828-4.414q-.967,0-1.1,1.309H9.932a1.536,1.536,0,0,0-.308-.967A.985.985,0,0,0,8.828-4.414ZM16.367-5.3V-.146a2.239,2.239,0,0,1-.625,1.694,2.448,2.448,0,0,1-1.768.6,4.151,4.151,0,0,1-.894-.1,3.231,3.231,0,0,1-.786-.273L12.627.85a2.986,2.986,0,0,0,1.24.283q1.348,0,1.348-1.279V-.869a1.6,1.6,0,0,1-1.377.7A1.688,1.688,0,0,1,12.4-.859,3.216,3.216,0,0,1,11.885-2.8a3.149,3.149,0,0,1,.522-1.938,1.738,1.738,0,0,1,1.47-.688,1.821,1.821,0,0,1,.835.19,1.609,1.609,0,0,1,.61.532v-.6ZM14.2-1.24a1.184,1.184,0,0,0,.537-.122,1.7,1.7,0,0,0,.479-.376V-3.9a1.418,1.418,0,0,0-.483-.361,1.385,1.385,0,0,0-.581-.127q-1.084,0-1.084,1.553Q13.066-1.24,14.2-1.24ZM17.91-5.3h1.152V0H17.91Zm.576-.762a.717.717,0,0,1-.522-.186.663.663,0,0,1-.19-.5.683.683,0,0,1,.186-.513.725.725,0,0,1,.527-.181.717.717,0,0,1,.522.186.663.663,0,0,1,.19.5.683.683,0,0,1-.186.513A.725.725,0,0,1,18.486-6.064ZM22.021.117a3.947,3.947,0,0,1-1.04-.137A3.165,3.165,0,0,1,20.1-.4l.4-.937A2.887,2.887,0,0,0,22.021-.9q.938,0,.938-.586a.491.491,0,0,0-.161-.381,1.2,1.2,0,0,0-.513-.234l-.693-.166a2.072,2.072,0,0,1-1.069-.522,1.357,1.357,0,0,1-.337-.972A1.522,1.522,0,0,1,20.7-4.98a2.163,2.163,0,0,1,1.45-.439,3.853,3.853,0,0,1,.938.117,3.654,3.654,0,0,1,.85.322l-.439.928A2.966,2.966,0,0,0,22.129-4.4q-.84,0-.84.537a.449.449,0,0,0,.166.356,1.283,1.283,0,0,0,.518.229l.693.166a2.08,2.08,0,0,1,1.074.537,1.4,1.4,0,0,1,.332.986,1.552,1.552,0,0,1-.537,1.26A2.294,2.294,0,0,1,22.021.117ZM27.178.078A1.55,1.55,0,0,1,25.4-1.65V-4.307h-.84v-1h.84V-6.777h1.152V-5.3h1.484v1H26.553v2.461a1,1,0,0,0,.19.679.8.8,0,0,0,.62.21,2.2,2.2,0,0,0,.566-.078l.176.977A3.105,3.105,0,0,1,27.178.078ZM31.514-5.41a1.379,1.379,0,0,1,.605.127l-.234,1.094a2,2,0,0,0-.635-.1,1.279,1.279,0,0,0-.6.127,1.165,1.165,0,0,0-.43.41V0H29.072V-5.3h1.045v.811A1.549,1.549,0,0,1,31.514-5.41Zm3.105-.02A2.225,2.225,0,0,1,36.1-4.98,1.581,1.581,0,0,1,36.631-3.7V0H35.6V-.742a1.69,1.69,0,0,1-1.572.85,1.611,1.611,0,0,1-1.191-.42,1.584,1.584,0,0,1-.42-1.172,1.508,1.508,0,0,1,.737-1.392,4.754,4.754,0,0,1,2.339-.454v-.244q0-.82-1.064-.82a3.029,3.029,0,0,0-1.24.273l-.293-.9A3.938,3.938,0,0,1,34.619-5.43ZM34.307-.879a1.528,1.528,0,0,0,1.182-.547V-2.539a3.771,3.771,0,0,0-1.494.249.755.755,0,0,0-.469.718Q33.525-.879,34.307-.879Zm5.771.957A1.55,1.55,0,0,1,38.3-1.65V-4.307h-.84v-1h.84V-6.777h1.152V-5.3h1.484v1H39.453v2.461a1,1,0,0,0,.19.679.8.8,0,0,0,.62.21,2.2,2.2,0,0,0,.566-.078l.176.977A3.105,3.105,0,0,1,40.078.078ZM41.992-5.3h1.152V0H41.992Zm.576-.762a.717.717,0,0,1-.522-.186.663.663,0,0,1-.19-.5.683.683,0,0,1,.186-.513.725.725,0,0,1,.527-.181.717.717,0,0,1,.522.186.663.663,0,0,1,.19.5.683.683,0,0,1-.186.513A.725.725,0,0,1,42.568-6.064ZM46.66.127a2.116,2.116,0,0,1-1.709-.7,3.129,3.129,0,0,1-.6-2.07,3.131,3.131,0,0,1,.6-2.075A2.123,2.123,0,0,1,46.67-5.43a2.109,2.109,0,0,1,1.709.708,3.149,3.149,0,0,1,.6,2.075,3.111,3.111,0,0,1-.6,2.07A2.13,2.13,0,0,1,46.66.127Zm0-1.025a.944.944,0,0,0,.85-.439,2.441,2.441,0,0,0,.283-1.309q0-1.748-1.123-1.748T45.537-2.646a2.441,2.441,0,0,0,.283,1.309A.935.935,0,0,0,46.66-.9ZM52.813-5.43a1.529,1.529,0,0,1,1.182.454,1.807,1.807,0,0,1,.42,1.274V0H53.262V-3.555q0-.791-.869-.791a1.682,1.682,0,0,0-1.074.4V0H50.166V-5.3h1.045v.645A2.024,2.024,0,0,1,52.813-5.43ZM4.58,8.93V9.945L1.846,16.1.752,15.648l2.617-5.7H.117V8.93Zm1.445,2.725a.75.75,0,0,1-.547-.19.7.7,0,0,1-.2-.522.709.709,0,0,1,.2-.532.75.75,0,0,1,.547-.19.75.75,0,0,1,.547.19.7.7,0,0,1,.2.522.709.709,0,0,1-.2.532A.75.75,0,0,1,6.025,11.654Zm0,3.125a.75.75,0,0,1-.547-.19.7.7,0,0,1-.2-.522.709.709,0,0,1,.2-.532.75.75,0,0,1,.547-.19.75.75,0,0,1,.547.19.7.7,0,0,1,.2.522.709.709,0,0,1-.2.532A.75.75,0,0,1,6.025,14.779Zm4.521,1.348A2.093,2.093,0,0,1,8.7,15.238a4.973,4.973,0,0,1-.61-2.773,5,5,0,0,1,.605-2.778A2.085,2.085,0,0,1,10.537,8.8a2.107,2.107,0,0,1,1.86.884,4.97,4.97,0,0,1,.61,2.778,4.973,4.973,0,0,1-.61,2.773A2.093,2.093,0,0,1,10.547,16.127Zm0-1.035a1.009,1.009,0,0,0,.967-.63,4.889,4.889,0,0,0,.3-2,4.82,4.82,0,0,0-.308-2,1.018,1.018,0,0,0-.972-.63,1,1,0,0,0-.957.63,4.889,4.889,0,0,0-.3,2,4.889,4.889,0,0,0,.3,2A1.009,1.009,0,0,0,10.547,15.092Zm6.113,1.035a2.093,2.093,0,0,1-1.851-.889,4.973,4.973,0,0,1-.61-2.773A5,5,0,0,1,14.8,9.687,2.085,2.085,0,0,1,16.65,8.8a2.107,2.107,0,0,1,1.86.884,4.97,4.97,0,0,1,.61,2.778,4.973,4.973,0,0,1-.61,2.773A2.093,2.093,0,0,1,16.66,16.127Zm0-1.035a1.009,1.009,0,0,0,.967-.63,4.889,4.889,0,0,0,.3-2,4.82,4.82,0,0,0-.308-2,1.018,1.018,0,0,0-.972-.63,1,1,0,0,0-.957.63,4.889,4.889,0,0,0-.3,2,4.889,4.889,0,0,0,.3,2A1.009,1.009,0,0,0,16.66,15.092Zm9.473-.732H23.477L22.969,16h-1.23L24.17,8.93h1.279L27.881,16h-1.24Zm-.322-1.025-1.016-3.262-1.006,3.262Zm9.766-4.4V16H34.434V10.795l-1.592,3.8H31.621l-1.611-3.8V16H28.9V8.93H30.3l1.943,4.58,1.9-4.58Zm3.32,3.682h5.117v.869H38.9Zm12.2-3.682V9.945L48.359,16.1l-1.094-.449,2.617-5.7H46.631V8.93Zm1.445,2.725a.75.75,0,0,1-.547-.19.7.7,0,0,1-.2-.522.709.709,0,0,1,.2-.532.88.88,0,0,1,1.094,0,.7.7,0,0,1,.2.522.709.709,0,0,1-.2.532A.75.75,0,0,1,52.539,11.654Zm0,3.125a.75.75,0,0,1-.547-.19.7.7,0,0,1-.2-.522.709.709,0,0,1,.2-.532.88.88,0,0,1,1.094,0,.7.7,0,0,1,.2.522.709.709,0,0,1-.2.532A.75.75,0,0,1,52.539,14.779Zm4.521-3.154a2.058,2.058,0,0,1,1.353.688,2.165,2.165,0,0,1,.5,1.47,2.4,2.4,0,0,1-.308,1.226,2.1,2.1,0,0,1-.874.825,2.831,2.831,0,0,1-1.318.293,4.167,4.167,0,0,1-1.172-.171,3.3,3.3,0,0,1-.986-.454l.439-.957a4.132,4.132,0,0,0,.879.376,2.992,2.992,0,0,0,.84.132,1.33,1.33,0,0,0,.967-.332,1.247,1.247,0,0,0,.342-.937,1.191,1.191,0,0,0-.327-.889,1.231,1.231,0,0,0-.9-.322,2.772,2.772,0,0,0-.635.078l-.449-.576,2.012-2.129h-3V8.93h4.268V9.945Zm5.508,4.5a2.093,2.093,0,0,1-1.851-.889,4.973,4.973,0,0,1-.61-2.773,5,5,0,0,1,.605-2.778A2.085,2.085,0,0,1,62.559,8.8a2.107,2.107,0,0,1,1.86.884,4.97,4.97,0,0,1,.61,2.778,4.973,4.973,0,0,1-.61,2.773A2.093,2.093,0,0,1,62.568,16.127Zm0-1.035a1.009,1.009,0,0,0,.967-.63,4.889,4.889,0,0,0,.3-2,4.82,4.82,0,0,0-.308-2,1.018,1.018,0,0,0-.972-.63,1,1,0,0,0-.957.63,4.889,4.889,0,0,0-.3,2,4.889,4.889,0,0,0,.3,2A1.009,1.009,0,0,0,62.568,15.092ZM71.074,8.93a2.279,2.279,0,0,1,1.709.62,2.4,2.4,0,0,1,.605,1.753,2.394,2.394,0,0,1-.625,1.763,2.352,2.352,0,0,1-1.748.63H69.688V16H68.516V8.93h2.559Zm0,3.721q1.1,0,1.1-1.328,0-1.348-1.162-1.348H69.688V12.65ZM81.035,8.93V16H79.893V10.795l-1.592,3.8H77.08l-1.611-3.8V16H74.355V8.93h1.406l1.943,4.58,1.9-4.58Z" transform="translate(131 232)" fill="#fff"/>
    <g id="Group_182" data-name="Group 182" transform="translate(-484.75 287.514)">
      <path id="Path_476" data-name="Path 476" d="M576.774-50.736a.53.53,0,0,0-.751,0,.531.531,0,0,0,0,.751l4.025,4.026a.529.529,0,0,0,.375.156.53.53,0,0,0,.375-.156l9.8-9.8a.531.531,0,0,0,0-.751.531.531,0,0,0-.752,0l-9.426,9.428Z" transform="translate(-2.901 -1.514)" fill="#fff"/>
      <path id="Path_477" data-name="Path 477" d="M587.225-52.721a.518.518,0,0,0-.517.518v9.916H568.785v-17.93h14.071a.518.518,0,0,0,.517-.518.518.518,0,0,0-.517-.518H568.267a.518.518,0,0,0-.517.518V-41.77a.518.518,0,0,0,.517.518h18.958a.518.518,0,0,0,.517-.518V-52.2A.518.518,0,0,0,587.225-52.721Z" fill="#fff"/>
    </g>
    <path id="Path_524" data-name="Path 524" d="M4.58-3.73A1.6,1.6,0,0,1,5.9-2.09,1.989,1.989,0,0,1,5.3-.547,2.378,2.378,0,0,1,3.633,0H.82V-7.07H3.3a2.328,2.328,0,0,1,1.621.522A1.883,1.883,0,0,1,5.5-5.078,1.3,1.3,0,0,1,4.58-3.73Zm-2.6-2.295v1.9H3.3q1.006,0,1.006-.937,0-.967-1.064-.967Zm1.709,4.98A.9.9,0,0,0,4.7-2.07.932.932,0,0,0,3.633-3.115H1.982v2.07ZM9.521-5.41a1.379,1.379,0,0,1,.605.127L9.893-4.189a2,2,0,0,0-.635-.1,1.279,1.279,0,0,0-.6.127,1.165,1.165,0,0,0-.43.41V0H7.08V-5.3H8.125v.811A1.549,1.549,0,0,1,9.521-5.41ZM15.01-2.871a3.275,3.275,0,0,1-.049.576h-3.32A1.322,1.322,0,0,0,13.066-.928a2.6,2.6,0,0,0,1.3-.342l.42.869a2.913,2.913,0,0,1-.845.381,3.625,3.625,0,0,1-.991.137A2.311,2.311,0,0,1,11.123-.61a2.967,2.967,0,0,1-.645-2.036A3.128,3.128,0,0,1,11.084-4.7a2.088,2.088,0,0,1,1.7-.728,2.058,2.058,0,0,1,1.641.674A2.78,2.78,0,0,1,15.01-2.871ZM12.754-4.414q-.967,0-1.1,1.309h2.207a1.536,1.536,0,0,0-.308-.967A.985.985,0,0,0,12.754-4.414ZM17.891-5.43a2.225,2.225,0,0,1,1.479.449A1.581,1.581,0,0,1,19.9-3.7V0H18.867V-.742a1.69,1.69,0,0,1-1.572.85A1.611,1.611,0,0,1,16.1-.312a1.584,1.584,0,0,1-.42-1.172,1.508,1.508,0,0,1,.737-1.392A4.754,4.754,0,0,1,18.76-3.33v-.244q0-.82-1.064-.82a3.029,3.029,0,0,0-1.24.273l-.293-.9A3.938,3.938,0,0,1,17.891-5.43ZM17.578-.879a1.528,1.528,0,0,0,1.182-.547V-2.539a3.771,3.771,0,0,0-1.494.249.755.755,0,0,0-.469.718Q16.8-.879,17.578-.879Zm5.547-1.328-.615.713V0H21.357V-7.52H22.51v4.58L24.443-5.3h1.338L23.867-3.066,25.908,0H24.58Zm3.838-2.1h-.83v-1h.84v-.469a1.794,1.794,0,0,1,.537-1.392,2.157,2.157,0,0,1,1.514-.493,2.914,2.914,0,0,1,.566.049V-6.6a3.87,3.87,0,0,0-.566-.039q-.908,0-.908.869V-5.3H29.4v1H28.115V0H26.963Zm4.99-1.123a2.225,2.225,0,0,1,1.479.449A1.581,1.581,0,0,1,33.965-3.7V0H32.93V-.742a1.69,1.69,0,0,1-1.572.85,1.611,1.611,0,0,1-1.191-.42,1.584,1.584,0,0,1-.42-1.172,1.508,1.508,0,0,1,.737-1.392,4.754,4.754,0,0,1,2.339-.454v-.244q0-.82-1.064-.82a3.029,3.029,0,0,0-1.24.273l-.293-.9A3.938,3.938,0,0,1,31.953-5.43ZM31.641-.879a1.528,1.528,0,0,0,1.182-.547V-2.539a3.771,3.771,0,0,0-1.494.249.755.755,0,0,0-.469.718Q30.859-.879,31.641-.879Zm5.2,1A3.947,3.947,0,0,1,35.8-.02,3.165,3.165,0,0,1,34.912-.4l.4-.937A2.887,2.887,0,0,0,36.836-.9q.938,0,.938-.586a.491.491,0,0,0-.161-.381A1.2,1.2,0,0,0,37.1-2.1l-.693-.166a2.072,2.072,0,0,1-1.069-.522A1.357,1.357,0,0,1,35-3.76a1.522,1.522,0,0,1,.513-1.221,2.163,2.163,0,0,1,1.45-.439A3.853,3.853,0,0,1,37.9-5.3a3.654,3.654,0,0,1,.85.322l-.439.928A2.966,2.966,0,0,0,36.943-4.4q-.84,0-.84.537a.449.449,0,0,0,.166.356,1.283,1.283,0,0,0,.518.229l.693.166a2.08,2.08,0,0,1,1.074.537,1.4,1.4,0,0,1,.332.986,1.552,1.552,0,0,1-.537,1.26A2.294,2.294,0,0,1,36.836.117ZM41.992.078A1.55,1.55,0,0,1,40.215-1.65V-4.307h-.84v-1h.84V-6.777h1.152V-5.3h1.484v1H41.367v2.461a1,1,0,0,0,.19.679.8.8,0,0,0,.62.21,2.2,2.2,0,0,0,.566-.078l.176.977A3.105,3.105,0,0,1,41.992.078ZM2.871,16.127a3.149,3.149,0,0,1-1.284-.244,1.921,1.921,0,0,1-.85-.693,1.83,1.83,0,0,1-.3-1.035,1.726,1.726,0,0,1,.4-1.089,2.344,2.344,0,0,1,1.05-.747,1.714,1.714,0,0,1-.854-.654A1.754,1.754,0,0,1,.7,10.639a1.731,1.731,0,0,1,.269-.962,1.776,1.776,0,0,1,.757-.645A2.661,2.661,0,0,1,2.871,8.8a2.694,2.694,0,0,1,1.147.229,1.771,1.771,0,0,1,.762.645,1.731,1.731,0,0,1,.269.962,1.689,1.689,0,0,1-.327,1.011,1.739,1.739,0,0,1-.864.64,2.066,2.066,0,0,1,1.055.7,1.792,1.792,0,0,1,.4,1.147,1.825,1.825,0,0,1-.3,1.045,1.985,1.985,0,0,1-.854.7A3.1,3.1,0,0,1,2.871,16.127Zm.049-4.248a1.711,1.711,0,0,0,.718-.459.988.988,0,0,0,.259-.674.928.928,0,0,0-.273-.708,1.05,1.05,0,0,0-.752-.259,1.044,1.044,0,0,0-.747.254.921.921,0,0,0-.269.7.964.964,0,0,0,.283.674A1.844,1.844,0,0,0,2.92,11.879Zm-.049,3.262a1.41,1.41,0,0,0,.938-.288.963.963,0,0,0,.342-.776A1.08,1.08,0,0,0,3.8,13.31a2.576,2.576,0,0,0-.967-.581,2.122,2.122,0,0,0-.9.552,1.138,1.138,0,0,0-.327.786.98.98,0,0,0,.337.786A1.39,1.39,0,0,0,2.871,15.141Zm4.346-3.486a.75.75,0,0,1-.547-.19.7.7,0,0,1-.2-.522.709.709,0,0,1,.2-.532.75.75,0,0,1,.547-.19.75.75,0,0,1,.547.19.7.7,0,0,1,.2.522.709.709,0,0,1-.2.532A.75.75,0,0,1,7.217,11.654Zm0,3.125a.75.75,0,0,1-.547-.19.7.7,0,0,1-.2-.522.709.709,0,0,1,.2-.532.75.75,0,0,1,.547-.19.75.75,0,0,1,.547.19.7.7,0,0,1,.2.522.709.709,0,0,1-.2.532A.75.75,0,0,1,7.217,14.779Zm4.521,1.348a2.093,2.093,0,0,1-1.851-.889,4.973,4.973,0,0,1-.61-2.773,5,5,0,0,1,.605-2.778A2.085,2.085,0,0,1,11.729,8.8a2.107,2.107,0,0,1,1.86.884,4.97,4.97,0,0,1,.61,2.778,4.973,4.973,0,0,1-.61,2.773A2.093,2.093,0,0,1,11.738,16.127Zm0-1.035a1.009,1.009,0,0,0,.967-.63,4.889,4.889,0,0,0,.3-2,4.82,4.82,0,0,0-.308-2,1.018,1.018,0,0,0-.972-.63,1,1,0,0,0-.957.63,4.889,4.889,0,0,0-.3,2,4.889,4.889,0,0,0,.3,2A1.009,1.009,0,0,0,11.738,15.092Zm6.113,1.035A2.093,2.093,0,0,1,16,15.238a4.973,4.973,0,0,1-.61-2.773A5,5,0,0,1,16,9.687,2.085,2.085,0,0,1,17.842,8.8a2.107,2.107,0,0,1,1.86.884,4.97,4.97,0,0,1,.61,2.778,4.973,4.973,0,0,1-.61,2.773A2.093,2.093,0,0,1,17.852,16.127Zm0-1.035a1.009,1.009,0,0,0,.967-.63,4.889,4.889,0,0,0,.3-2,4.82,4.82,0,0,0-.308-2,1.018,1.018,0,0,0-.972-.63,1,1,0,0,0-.957.63,4.889,4.889,0,0,0-.3,2,4.889,4.889,0,0,0,.3,2A1.009,1.009,0,0,0,17.852,15.092Zm9.473-.732H24.668L24.16,16H22.93l2.432-7.07h1.279L29.072,16h-1.24ZM27,13.334l-1.016-3.262L24.98,13.334Zm9.766-4.4V16H35.625V10.795l-1.592,3.8H32.813l-1.611-3.8V16H30.088V8.93h1.406l1.943,4.58,1.9-4.58Zm3.32,3.682h5.117v.869H40.088ZM50.42,8.8a2.551,2.551,0,0,1,1.265.3,2.094,2.094,0,0,1,.84.859,2.691,2.691,0,0,1,.3,1.289,3.846,3.846,0,0,1-.3,1.528,6.772,6.772,0,0,1-1.055,1.606l-1.436,1.738-.918-.7,1.465-1.66.361-.439a2.427,2.427,0,0,1-.771.117,2.125,2.125,0,0,1-1.1-.283,1.9,1.9,0,0,1-.737-.8,2.82,2.82,0,0,1,.034-2.432,2.039,2.039,0,0,1,.825-.835A2.521,2.521,0,0,1,50.42,8.8Zm-1.172,2.344a1.445,1.445,0,0,0,.327,1.006,1.181,1.181,0,0,0,.923.361,2.234,2.234,0,0,0,.918-.205,2.228,2.228,0,0,0,.234-1.045,1.583,1.583,0,0,0-.327-1.064,1.128,1.128,0,0,0-.9-.381,1.087,1.087,0,0,0-.864.352A1.434,1.434,0,0,0,49.248,11.146Zm5.381.508a.75.75,0,0,1-.547-.19.7.7,0,0,1-.2-.522.709.709,0,0,1,.2-.532.88.88,0,0,1,1.094,0,.7.7,0,0,1,.2.522.709.709,0,0,1-.2.532A.75.75,0,0,1,54.629,11.654Zm0,3.125a.75.75,0,0,1-.547-.19.7.7,0,0,1-.2-.522.709.709,0,0,1,.2-.532.88.88,0,0,1,1.094,0,.7.7,0,0,1,.2.522.709.709,0,0,1-.2.532A.75.75,0,0,1,54.629,14.779Zm6.748-1.172v1h-.859V16H59.385V14.6H56.309v-1L58.887,8.93h1.631v4.678Zm-1.992,0V9.975L57.51,13.607Zm4.941-2.168a2.359,2.359,0,0,1,1.177.283,1.969,1.969,0,0,1,.781.8,2.477,2.477,0,0,1,.278,1.191,2.514,2.514,0,0,1-.312,1.27,2.135,2.135,0,0,1-.879.845,2.793,2.793,0,0,1-1.318.3,3.97,3.97,0,0,1-1.118-.161,2.936,2.936,0,0,1-.913-.425l.43-.947a3.9,3.9,0,0,0,.82.347,2.81,2.81,0,0,0,.781.122,1.3,1.3,0,0,0,.972-.352,1.317,1.317,0,0,0,.347-.967,1.271,1.271,0,0,0-.317-.923,1.187,1.187,0,0,0-.894-.327,2.436,2.436,0,0,0-1.113.283l-.713-.381L62.52,8.93H66.24V9.945H63.555l-.127,1.641A2.823,2.823,0,0,1,64.326,11.439Zm9.209,2.92H70.879L70.371,16h-1.23l2.432-7.07h1.279L75.283,16h-1.24Zm-.322-1.025L72.2,10.072l-1.006,3.262Zm9.766-4.4V16H81.836V10.795l-1.592,3.8H79.023l-1.611-3.8V16H76.3V8.93h1.406l1.943,4.58,1.9-4.58Z" transform="translate(131 280)"/>
    <g id="Group_200" data-name="Group 200" transform="translate(-2584.273 452.25)">
      <path id="Path_495" data-name="Path 495" d="M2687.979-177.988c-1.085,0-1.927.934-2.31,2.562-.365,1.548-1.4,6.164-1.69,7.51a.816.816,0,0,0,.164.687.82.82,0,0,0,.641.305h1.227v6.967a1.971,1.971,0,0,0,1.969,1.969,1.971,1.971,0,0,0,1.969-1.969v-16.062A1.971,1.971,0,0,0,2687.979-177.988Zm.984,18.031a.985.985,0,0,1-.984.985.985.985,0,0,1-.985-.985v-7.952h-2.01c.337-1.55,1.294-5.817,1.642-7.291.266-1.129.771-1.8,1.352-1.8a1,1,0,0,1,.984.985Z" transform="translate(-4.703)" fill="#1a1a1a"/>
      <path id="Path_496" data-name="Path 496" d="M2677.1-177.988h-5.643a1.184,1.184,0,0,0-1.183,1.183v5.619a3.187,3.187,0,0,0,2.035,2.965v8.264a1.971,1.971,0,0,0,1.969,1.969,1.971,1.971,0,0,0,1.969-1.969v-8.264a3.187,3.187,0,0,0,2.035-2.965v-5.619A1.184,1.184,0,0,0,2677.1-177.988Zm.2,6.8a2.205,2.205,0,0,1-1.666,2.13l-.369.1v9a.985.985,0,0,1-.985.985.985.985,0,0,1-.985-.985v-9l-.369-.1a2.205,2.205,0,0,1-1.666-2.13v-5.619a.2.2,0,0,1,.2-.2h1.243v2.952a.492.492,0,0,0,.492.492.492.492,0,0,0,.492-.492V-177h1.205v3.018a.492.492,0,0,0,.492.492.493.493,0,0,0,.492-.492V-177h1.227a.2.2,0,0,1,.2.2Z" transform="translate(0)" fill="#1a1a1a"/>
    </g>
    <path id="Path_526" data-name="Path 526" d="M4.922-1.055V0H.82V-7.07H1.992v6.016ZM10.01-5.3V0H8.955V-.713a1.81,1.81,0,0,1-1.572.84A1.482,1.482,0,0,1,6.23-.322a1.816,1.816,0,0,1-.41-1.27V-5.3H6.973v3.555q0,.8.84.8a1.28,1.28,0,0,0,.552-.117,1.705,1.705,0,0,0,.493-.371V-5.3Zm4.17-.127a1.529,1.529,0,0,1,1.182.454,1.807,1.807,0,0,1,.42,1.274V0H14.629V-3.555q0-.791-.869-.791a1.682,1.682,0,0,0-1.074.4V0H11.533V-5.3h1.045v.645A2.024,2.024,0,0,1,14.18-5.43ZM19.385.117A2.379,2.379,0,0,1,17.539-.6a2.852,2.852,0,0,1-.654-2,3.446,3.446,0,0,1,.3-1.489,2.308,2.308,0,0,1,.859-.991,2.362,2.362,0,0,1,1.289-.352,2.979,2.979,0,0,1,.845.122,2.391,2.391,0,0,1,.728.347l-.42.9a2.77,2.77,0,0,0-1.172-.312,1.075,1.075,0,0,0-.923.449,2.109,2.109,0,0,0-.327,1.26q0,1.729,1.377,1.729a2.407,2.407,0,0,0,1.123-.3l.4.889A2.59,2.59,0,0,1,19.385.117ZM24.619-5.43a1.542,1.542,0,0,1,1.191.454A1.807,1.807,0,0,1,26.23-3.7V0H25.078V-3.555q0-.791-.879-.791a1.618,1.618,0,0,0-.566.1,1.85,1.85,0,0,0-.518.3V0H21.963V-7.52h1.152v2.744A2.005,2.005,0,0,1,24.619-5.43ZM3.3,8.93V16H2.139V10.131L.6,10.668.264,9.711,2.295,8.93Zm4.482,0V16H6.621V10.131l-1.543.537-.332-.957L6.777,8.93Zm2.646,2.725a.75.75,0,0,1-.547-.19.7.7,0,0,1-.2-.522.709.709,0,0,1,.2-.532.88.88,0,0,1,1.094,0,.7.7,0,0,1,.2.522.709.709,0,0,1-.2.532A.75.75,0,0,1,10.43,11.654Zm0,3.125a.75.75,0,0,1-.547-.19.7.7,0,0,1-.2-.522.709.709,0,0,1,.2-.532.88.88,0,0,1,1.094,0,.7.7,0,0,1,.2.522.709.709,0,0,1-.2.532A.75.75,0,0,1,10.43,14.779Zm4.521-3.154a2.058,2.058,0,0,1,1.353.688,2.165,2.165,0,0,1,.5,1.47,2.4,2.4,0,0,1-.308,1.226,2.1,2.1,0,0,1-.874.825,2.831,2.831,0,0,1-1.318.293,4.167,4.167,0,0,1-1.172-.171,3.3,3.3,0,0,1-.986-.454l.439-.957a4.132,4.132,0,0,0,.879.376,2.992,2.992,0,0,0,.84.132,1.33,1.33,0,0,0,.967-.332,1.247,1.247,0,0,0,.342-.937,1.191,1.191,0,0,0-.327-.889,1.231,1.231,0,0,0-.9-.322,2.772,2.772,0,0,0-.635.078l-.449-.576,2.012-2.129h-3V8.93h4.268V9.945Zm5.508,4.5a2.093,2.093,0,0,1-1.851-.889A4.973,4.973,0,0,1,18,12.465,5,5,0,0,1,18.6,9.687,2.085,2.085,0,0,1,20.449,8.8a2.107,2.107,0,0,1,1.86.884,4.97,4.97,0,0,1,.61,2.778,4.973,4.973,0,0,1-.61,2.773A2.093,2.093,0,0,1,20.459,16.127Zm0-1.035a1.009,1.009,0,0,0,.967-.63,4.889,4.889,0,0,0,.3-2,4.82,4.82,0,0,0-.308-2,1.018,1.018,0,0,0-.972-.63,1,1,0,0,0-.957.63,4.889,4.889,0,0,0-.3,2,4.889,4.889,0,0,0,.3,2A1.009,1.009,0,0,0,20.459,15.092Zm9.473-.732H27.275L26.768,16h-1.23l2.432-7.07h1.279L31.68,16h-1.24Zm-.322-1.025-1.016-3.262-1.006,3.262Zm9.766-4.4V16H38.232V10.795l-1.592,3.8H35.42l-1.611-3.8V16H32.7V8.93H34.1l1.943,4.58,1.9-4.58Zm3.32,3.682h5.117v.869H42.7ZM52.93,8.93V16H51.768V10.131l-1.543.537-.332-.957,2.031-.781Zm2.646,2.725a.75.75,0,0,1-.547-.19.7.7,0,0,1-.2-.522.709.709,0,0,1,.2-.532.88.88,0,0,1,1.094,0,.7.7,0,0,1,.2.522.709.709,0,0,1-.2.532A.75.75,0,0,1,55.576,11.654Zm0,3.125a.75.75,0,0,1-.547-.19.7.7,0,0,1-.2-.522.709.709,0,0,1,.2-.532.88.88,0,0,1,1.094,0,.7.7,0,0,1,.2.522.709.709,0,0,1-.2.532A.75.75,0,0,1,55.576,14.779ZM60.1,11.625a2.058,2.058,0,0,1,1.353.688,2.165,2.165,0,0,1,.5,1.47,2.4,2.4,0,0,1-.308,1.226,2.1,2.1,0,0,1-.874.825,2.831,2.831,0,0,1-1.318.293,4.167,4.167,0,0,1-1.172-.171,3.3,3.3,0,0,1-.986-.454l.439-.957a4.132,4.132,0,0,0,.879.376,2.992,2.992,0,0,0,.84.132,1.33,1.33,0,0,0,.967-.332,1.247,1.247,0,0,0,.342-.937,1.191,1.191,0,0,0-.327-.889,1.231,1.231,0,0,0-.9-.322,2.772,2.772,0,0,0-.635.078l-.449-.576,2.012-2.129h-3V8.93h4.268V9.945Zm5.508,4.5a2.093,2.093,0,0,1-1.851-.889,4.973,4.973,0,0,1-.61-2.773,5,5,0,0,1,.605-2.778A2.085,2.085,0,0,1,65.6,8.8a2.107,2.107,0,0,1,1.86.884,4.97,4.97,0,0,1,.61,2.778,4.973,4.973,0,0,1-.61,2.773A2.093,2.093,0,0,1,65.605,16.127Zm0-1.035a1.009,1.009,0,0,0,.967-.63,4.889,4.889,0,0,0,.3-2,4.82,4.82,0,0,0-.308-2,1.018,1.018,0,0,0-.972-.63,1,1,0,0,0-.957.63,4.889,4.889,0,0,0-.3,2,4.889,4.889,0,0,0,.3,2A1.009,1.009,0,0,0,65.605,15.092ZM74.111,8.93a2.279,2.279,0,0,1,1.709.62,2.4,2.4,0,0,1,.605,1.753,2.394,2.394,0,0,1-.625,1.763,2.352,2.352,0,0,1-1.748.63H72.725V16H71.553V8.93h2.559Zm0,3.721q1.1,0,1.1-1.328,0-1.348-1.162-1.348H72.725V12.65ZM84.072,8.93V16H82.93V10.795l-1.592,3.8H80.117l-1.611-3.8V16H77.393V8.93H78.8l1.943,4.58,1.9-4.58Z" transform="translate(131 376)"/>
    <g id="Group_201" data-name="Group 201" transform="translate(-2584.273 547.988)">
      <path id="Path_495-2" data-name="Path 495" d="M2687.979-177.988c-1.085,0-1.927.934-2.31,2.562-.365,1.548-1.4,6.164-1.69,7.51a.816.816,0,0,0,.164.687.82.82,0,0,0,.641.305h1.227v6.967a1.971,1.971,0,0,0,1.969,1.969,1.971,1.971,0,0,0,1.969-1.969v-16.062A1.971,1.971,0,0,0,2687.979-177.988Zm.984,18.031a.985.985,0,0,1-.984.985.985.985,0,0,1-.985-.985v-7.952h-2.01c.337-1.55,1.294-5.817,1.642-7.291.266-1.129.771-1.8,1.352-1.8a1,1,0,0,1,.984.985Z" transform="translate(-4.703)" fill="#1a1a1a"/>
      <path id="Path_496-2" data-name="Path 496" d="M2677.1-177.988h-5.643a1.184,1.184,0,0,0-1.183,1.183v5.619a3.187,3.187,0,0,0,2.035,2.965v8.264a1.971,1.971,0,0,0,1.969,1.969,1.971,1.971,0,0,0,1.969-1.969v-8.264a3.187,3.187,0,0,0,2.035-2.965v-5.619A1.184,1.184,0,0,0,2677.1-177.988Zm.2,6.8a2.205,2.205,0,0,1-1.666,2.13l-.369.1v9a.985.985,0,0,1-.985.985.985.985,0,0,1-.985-.985v-9l-.369-.1a2.205,2.205,0,0,1-1.666-2.13v-5.619a.2.2,0,0,1,.2-.2h1.243v2.952a.492.492,0,0,0,.492.492.492.492,0,0,0,.492-.492V-177h1.205v3.018a.492.492,0,0,0,.492.492.493.493,0,0,0,.492-.492V-177h1.227a.2.2,0,0,1,.2.2Z" transform="translate(0)" fill="#1a1a1a"/>
    </g>
    <path id="Path_525" data-name="Path 525" d="M3.486.127A2.7,2.7,0,0,1,1.279-.8,4.222,4.222,0,0,1,.518-3.535a4.222,4.222,0,0,1,.762-2.739A2.7,2.7,0,0,1,3.486-7.2,2.712,2.712,0,0,1,5.7-6.274a4.2,4.2,0,0,1,.767,2.739A4.2,4.2,0,0,1,5.7-.8,2.712,2.712,0,0,1,3.486.127Zm0-1.045q1.768,0,1.768-2.617T3.486-6.152q-1.758,0-1.758,2.617T3.486-.918ZM10.273-5.43A1.636,1.636,0,0,1,11.7-4.7a3.563,3.563,0,0,1,.508,2.051A3.488,3.488,0,0,1,11.689-.6a1.683,1.683,0,0,1-1.455.728A1.889,1.889,0,0,1,9.482-.02,1.592,1.592,0,0,1,8.9-.449V2.021H7.744V-5.3H8.789v.732A1.639,1.639,0,0,1,10.273-5.43ZM9.961-.908q1.064,0,1.064-1.7,0-1.738-1.113-1.738a1.194,1.194,0,0,0-.532.117,1.765,1.765,0,0,0-.483.371V-1.4a1.418,1.418,0,0,0,.483.361A1.385,1.385,0,0,0,9.961-.908Zm7.617-1.963a3.275,3.275,0,0,1-.049.576h-3.32A1.322,1.322,0,0,0,15.635-.928a2.6,2.6,0,0,0,1.3-.342l.42.869a2.913,2.913,0,0,1-.845.381,3.625,3.625,0,0,1-.991.137A2.311,2.311,0,0,1,13.691-.61a2.967,2.967,0,0,1-.645-2.036A3.128,3.128,0,0,1,13.652-4.7a2.088,2.088,0,0,1,1.7-.728,2.058,2.058,0,0,1,1.641.674A2.78,2.78,0,0,1,17.578-2.871ZM15.322-4.414q-.967,0-1.1,1.309h2.207a1.536,1.536,0,0,0-.308-.967A.985.985,0,0,0,15.322-4.414ZM21.357-5.43a1.529,1.529,0,0,1,1.182.454,1.807,1.807,0,0,1,.42,1.274V0H21.807V-3.555q0-.791-.869-.791a1.682,1.682,0,0,0-1.074.4V0H18.711V-5.3h1.045v.645A2.024,2.024,0,0,1,21.357-5.43Zm3.1.127h1.152V0H24.453Zm.576-.762a.717.717,0,0,1-.522-.186.663.663,0,0,1-.19-.5.683.683,0,0,1,.186-.513.725.725,0,0,1,.527-.181.717.717,0,0,1,.522.186.663.663,0,0,1,.19.5.683.683,0,0,1-.186.513A.725.725,0,0,1,25.029-6.064Zm4.766.635a1.529,1.529,0,0,1,1.182.454A1.807,1.807,0,0,1,31.4-3.7V0H30.244V-3.555q0-.791-.869-.791a1.682,1.682,0,0,0-1.074.4V0H27.148V-5.3h1.045v.645A2.024,2.024,0,0,1,29.795-5.43Zm7.227.127V-.146A2.239,2.239,0,0,1,36.4,1.548a2.448,2.448,0,0,1-1.768.6,4.151,4.151,0,0,1-.894-.1,3.231,3.231,0,0,1-.786-.273L33.281.85a2.986,2.986,0,0,0,1.24.283q1.348,0,1.348-1.279V-.869a1.6,1.6,0,0,1-1.377.7,1.688,1.688,0,0,1-1.44-.693A3.216,3.216,0,0,1,32.539-2.8a3.149,3.149,0,0,1,.522-1.938,1.738,1.738,0,0,1,1.47-.688,1.821,1.821,0,0,1,.835.19,1.609,1.609,0,0,1,.61.532v-.6ZM34.854-1.24a1.184,1.184,0,0,0,.537-.122,1.7,1.7,0,0,0,.479-.376V-3.9a1.418,1.418,0,0,0-.483-.361,1.385,1.385,0,0,0-.581-.127q-1.084,0-1.084,1.553Q33.721-1.24,34.854-1.24Zm7.793-1.8-.8.986V0H40.674V-7.07h1.172v3.525l2.7-3.525h1.4L43.389-3.945,46.094,0H44.7Zm8.105.166a3.275,3.275,0,0,1-.049.576h-3.32A1.322,1.322,0,0,0,48.809-.928a2.6,2.6,0,0,0,1.3-.342l.42.869a2.914,2.914,0,0,1-.845.381,3.625,3.625,0,0,1-.991.137A2.311,2.311,0,0,1,46.865-.61a2.967,2.967,0,0,1-.645-2.036A3.128,3.128,0,0,1,46.826-4.7a2.088,2.088,0,0,1,1.7-.728,2.058,2.058,0,0,1,1.641.674A2.78,2.78,0,0,1,50.752-2.871ZM48.5-4.414q-.967,0-1.1,1.309H49.6a1.536,1.536,0,0,0-.308-.967A.985.985,0,0,0,48.5-4.414ZM55.928-5.3,54.248-.2a3.2,3.2,0,0,1-.913,1.431,4.755,4.755,0,0,1-1.7.913l-.391-.977A5.115,5.115,0,0,0,52.329.659,2.2,2.2,0,0,0,52.979.01L51.211-5.3h1.182L53.584-1.24,54.756-5.3Zm3.594-.127a1.529,1.529,0,0,1,1.182.454,1.807,1.807,0,0,1,.42,1.274V0H59.971V-3.555q0-.791-.869-.791a1.682,1.682,0,0,0-1.074.4V0H56.875V-5.3H57.92v.645A2.024,2.024,0,0,1,59.521-5.43ZM64.57.127a2.116,2.116,0,0,1-1.709-.7,3.129,3.129,0,0,1-.6-2.07,3.131,3.131,0,0,1,.6-2.075A2.123,2.123,0,0,1,64.58-5.43a2.109,2.109,0,0,1,1.709.708,3.149,3.149,0,0,1,.6,2.075,3.111,3.111,0,0,1-.6,2.07A2.13,2.13,0,0,1,64.57.127Zm0-1.025a.944.944,0,0,0,.85-.439A2.441,2.441,0,0,0,65.7-2.646q0-1.748-1.123-1.748T63.447-2.646a2.441,2.441,0,0,0,.283,1.309A.935.935,0,0,0,64.57-.9Zm5.5.977A1.55,1.55,0,0,1,68.291-1.65V-4.307h-.84v-1h.84V-6.777h1.152V-5.3h1.484v1H69.443v2.461a1,1,0,0,0,.19.679.8.8,0,0,0,.62.21,2.2,2.2,0,0,0,.566-.078L71-.059A3.105,3.105,0,0,1,70.068.078Zm5.977-2.949A3.274,3.274,0,0,1,76-2.295h-3.32A1.322,1.322,0,0,0,74.1-.928a2.6,2.6,0,0,0,1.3-.342l.42.869a2.913,2.913,0,0,1-.845.381,3.625,3.625,0,0,1-.991.137A2.311,2.311,0,0,1,72.158-.61a2.967,2.967,0,0,1-.645-2.036A3.128,3.128,0,0,1,72.119-4.7a2.088,2.088,0,0,1,1.7-.728,2.058,2.058,0,0,1,1.641.674A2.78,2.78,0,0,1,76.045-2.871ZM73.789-4.414q-.967,0-1.1,1.309h2.207a1.536,1.536,0,0,0-.308-.967A.985.985,0,0,0,73.789-4.414ZM3.3,8.93V16H2.139V10.131L.6,10.668.264,9.711,2.295,8.93Zm4.238,7.2a2.093,2.093,0,0,1-1.851-.889,4.973,4.973,0,0,1-.61-2.773,5,5,0,0,1,.605-2.778A2.085,2.085,0,0,1,7.529,8.8a2.107,2.107,0,0,1,1.86.884A4.97,4.97,0,0,1,10,12.465a4.973,4.973,0,0,1-.61,2.773A2.093,2.093,0,0,1,7.539,16.127Zm0-1.035a1.009,1.009,0,0,0,.967-.63,4.889,4.889,0,0,0,.3-2,4.82,4.82,0,0,0-.308-2,1.018,1.018,0,0,0-.972-.63,1,1,0,0,0-.957.63,4.889,4.889,0,0,0-.3,2,4.889,4.889,0,0,0,.3,2A1.009,1.009,0,0,0,7.539,15.092Zm4.521-3.437a.75.75,0,0,1-.547-.19.7.7,0,0,1-.2-.522.709.709,0,0,1,.2-.532.88.88,0,0,1,1.094,0,.7.7,0,0,1,.2.522.709.709,0,0,1-.2.532A.75.75,0,0,1,12.061,11.654Zm0,3.125a.75.75,0,0,1-.547-.19.7.7,0,0,1-.2-.522.709.709,0,0,1,.2-.532.88.88,0,0,1,1.094,0,.7.7,0,0,1,.2.522.709.709,0,0,1-.2.532A.75.75,0,0,1,12.061,14.779Zm4.521,1.348a2.093,2.093,0,0,1-1.851-.889,4.973,4.973,0,0,1-.61-2.773,5,5,0,0,1,.605-2.778A2.085,2.085,0,0,1,16.572,8.8a2.107,2.107,0,0,1,1.86.884,4.97,4.97,0,0,1,.61,2.778,4.973,4.973,0,0,1-.61,2.773A2.093,2.093,0,0,1,16.582,16.127Zm0-1.035a1.009,1.009,0,0,0,.967-.63,4.889,4.889,0,0,0,.3-2,4.82,4.82,0,0,0-.308-2,1.018,1.018,0,0,0-.972-.63,1,1,0,0,0-.957.63,4.889,4.889,0,0,0-.3,2,4.889,4.889,0,0,0,.3,2A1.009,1.009,0,0,0,16.582,15.092ZM22.7,16.127a2.093,2.093,0,0,1-1.851-.889,4.973,4.973,0,0,1-.61-2.773,5,5,0,0,1,.605-2.778A2.085,2.085,0,0,1,22.686,8.8a2.107,2.107,0,0,1,1.86.884,4.97,4.97,0,0,1,.61,2.778,4.973,4.973,0,0,1-.61,2.773A2.093,2.093,0,0,1,22.7,16.127Zm0-1.035a1.009,1.009,0,0,0,.967-.63,4.889,4.889,0,0,0,.3-2,4.82,4.82,0,0,0-.308-2,1.018,1.018,0,0,0-.972-.63,1,1,0,0,0-.957.63,4.889,4.889,0,0,0-.3,2,4.889,4.889,0,0,0,.3,2A1.009,1.009,0,0,0,22.7,15.092Zm9.473-.732H29.512L29,16h-1.23l2.432-7.07h1.279L33.916,16h-1.24Zm-.322-1.025L30.83,10.072l-1.006,3.262Zm9.766-4.4V16H40.469V10.795l-1.592,3.8H37.656l-1.611-3.8V16H34.932V8.93h1.406l1.943,4.58,1.9-4.58Zm3.32,3.682h5.117v.869H44.932ZM55.166,8.93V16H54V10.131l-1.543.537-.332-.957L54.16,8.93Zm4.482,0V16H58.486V10.131l-1.543.537-.332-.957,2.031-.781Zm2.646,2.725a.75.75,0,0,1-.547-.19.7.7,0,0,1-.2-.522.709.709,0,0,1,.2-.532.88.88,0,0,1,1.094,0,.7.7,0,0,1,.2.522.709.709,0,0,1-.2.532A.75.75,0,0,1,62.295,11.654Zm0,3.125a.75.75,0,0,1-.547-.19.7.7,0,0,1-.2-.522.709.709,0,0,1,.2-.532.88.88,0,0,1,1.094,0,.7.7,0,0,1,.2.522.709.709,0,0,1-.2.532A.75.75,0,0,1,62.295,14.779Zm4.521-3.154a2.058,2.058,0,0,1,1.353.688,2.165,2.165,0,0,1,.5,1.47,2.4,2.4,0,0,1-.308,1.226,2.1,2.1,0,0,1-.874.825,2.831,2.831,0,0,1-1.318.293A4.167,4.167,0,0,1,65,15.956a3.3,3.3,0,0,1-.986-.454l.439-.957a4.132,4.132,0,0,0,.879.376,2.992,2.992,0,0,0,.84.132,1.33,1.33,0,0,0,.967-.332,1.247,1.247,0,0,0,.342-.937,1.191,1.191,0,0,0-.327-.889,1.231,1.231,0,0,0-.9-.322,2.772,2.772,0,0,0-.635.078l-.449-.576,2.012-2.129h-3V8.93h4.268V9.945Zm5.508,4.5a2.093,2.093,0,0,1-1.851-.889,4.973,4.973,0,0,1-.61-2.773,5,5,0,0,1,.605-2.778A2.085,2.085,0,0,1,72.314,8.8a2.107,2.107,0,0,1,1.86.884,4.97,4.97,0,0,1,.61,2.778,4.973,4.973,0,0,1-.61,2.773A2.093,2.093,0,0,1,72.324,16.127Zm0-1.035a1.009,1.009,0,0,0,.967-.63,4.889,4.889,0,0,0,.3-2,4.82,4.82,0,0,0-.308-2,1.018,1.018,0,0,0-.972-.63,1,1,0,0,0-.957.63,4.889,4.889,0,0,0-.3,2,4.889,4.889,0,0,0,.3,2A1.009,1.009,0,0,0,72.324,15.092Zm9.473-.732H79.141L78.633,16H77.4l2.432-7.07h1.279L83.545,16H82.3Zm-.322-1.025-1.016-3.262-1.006,3.262Zm9.766-4.4V16H90.1V10.795l-1.592,3.8H87.285l-1.611-3.8V16H84.561V8.93h1.406l1.943,4.58,1.9-4.58Z" transform="translate(131 328)" fill="#fff"/>
    <g id="Group_202" data-name="Group 202" transform="translate(-678.75 383.254)">
      <path id="Path_484" data-name="Path 484" d="M777.55-47.955a4.98,4.98,0,0,0,2.372-3.171,5.007,5.007,0,0,0-3.718-6.018,4.967,4.967,0,0,0-3.779.612,4.969,4.969,0,0,0-2.24,3.106,4.969,4.969,0,0,0,.612,3.778,4.979,4.979,0,0,0,1.735,1.695,7.736,7.736,0,0,0-3.028,1.9,7.726,7.726,0,0,0-2.225,5.518.517.517,0,0,0,.517.512h14.514a.517.517,0,0,0,.517-.509v-.148a7.724,7.724,0,0,0-2.328-5.476A7.77,7.77,0,0,0,777.55-47.955Zm-3.409-.46a3.941,3.941,0,0,1-2.463-1.777,3.941,3.941,0,0,1-.486-3,3.942,3.942,0,0,1,1.777-2.463,3.942,3.942,0,0,1,2.078-.593,3.989,3.989,0,0,1,.92.108,3.973,3.973,0,0,1,2.949,4.775,3.941,3.941,0,0,1-1.777,2.463,3.949,3.949,0,0,1-1.537.549c-.206-.014-.413-.027-.621-.025-.132,0-.261.015-.391.023A3.981,3.981,0,0,1,774.141-48.415Zm-5.813,7.363a6.688,6.688,0,0,1,1.915-4.272,6.684,6.684,0,0,1,4.21-1.987,5.03,5.03,0,0,0,.6.037,4.845,4.845,0,0,0,.52-.044,6.687,6.687,0,0,1,4.2,1.9,6.691,6.691,0,0,1,2,4.361Z" transform="translate(-3.273 -1.235)" fill="#fff"/>
      <path id="Path_485" data-name="Path 485" d="M794.788-46.642a7.51,7.51,0,0,0-3.326-4.734,7.628,7.628,0,0,0-1.664-.784,4.825,4.825,0,0,0,1.982-2.076,4.873,4.873,0,0,0-2.212-6.516,4.872,4.872,0,0,0-6.516,2.213.517.517,0,0,0,.235.692.518.518,0,0,0,.693-.235,3.835,3.835,0,0,1,5.131-1.742,3.836,3.836,0,0,1,1.742,5.132,3.842,3.842,0,0,1-4.9,1.848.516.516,0,0,0-.675.281.517.517,0,0,0,.105.555.508.508,0,0,0-.015.256.516.516,0,0,0,.617.391,6.482,6.482,0,0,1,4.92.859,6.481,6.481,0,0,1,2.871,4.086,6.464,6.464,0,0,1,.136.9h-5.582a.517.517,0,0,0-.517.517.517.517,0,0,0,.517.517h6.12a.518.518,0,0,0,.366-.152A.514.514,0,0,0,794.97-45,7.57,7.57,0,0,0,794.788-46.642Z" transform="translate(-8.158 0)" fill="#fff"/>
      <path id="Path_486" data-name="Path 486" d="M763.387-45.518h-5.582a6.455,6.455,0,0,1,.136-.9,6.481,6.481,0,0,1,2.871-4.086,6.483,6.483,0,0,1,4.92-.859.515.515,0,0,0,.617-.391.5.5,0,0,0-.015-.256.519.519,0,0,0,.106-.555.518.518,0,0,0-.675-.281,3.843,3.843,0,0,1-4.9-1.848,3.837,3.837,0,0,1,1.742-5.132,3.836,3.836,0,0,1,5.132,1.742.518.518,0,0,0,.693.235.517.517,0,0,0,.235-.692,4.872,4.872,0,0,0-6.516-2.213,4.873,4.873,0,0,0-2.212,6.516,4.829,4.829,0,0,0,1.982,2.076,7.627,7.627,0,0,0-1.664.784,7.511,7.511,0,0,0-3.326,4.733A7.577,7.577,0,0,0,756.75-45a.52.52,0,0,0,.151.366.518.518,0,0,0,.366.152h6.12A.517.517,0,0,0,763.9-45,.517.517,0,0,0,763.387-45.518Z" fill="#fff"/>
    </g>
    <path id="Path_527" data-name="Path 527" d="M5.293-1.045V0H.82V-7.07H5.166v1.045H1.992v1.885H4.336v1.055H1.992v2.041ZM9.131,0,8.066-1.807,7.021,0H5.771L7.461-2.7,5.84-5.3H7.119l.986,1.709L9.131-5.3h1.25L8.7-2.705,10.4,0Zm4.824-5.43a1.542,1.542,0,0,1,1.191.454,1.807,1.807,0,0,1,.42,1.274V0H14.414V-3.555q0-.791-.879-.791a1.618,1.618,0,0,0-.566.1,1.85,1.85,0,0,0-.518.3V0H11.3V-7.52h1.152v2.744A2.005,2.005,0,0,1,13.955-5.43Zm3.105.127h1.152V0H17.061Zm.576-.762a.717.717,0,0,1-.522-.186.663.663,0,0,1-.19-.5.683.683,0,0,1,.186-.513.725.725,0,0,1,.527-.181.717.717,0,0,1,.522.186.663.663,0,0,1,.19.5.683.683,0,0,1-.186.513A.725.725,0,0,1,17.637-6.064Zm4.648.635a1.636,1.636,0,0,1,1.426.732,3.563,3.563,0,0,1,.508,2.051A3.488,3.488,0,0,1,23.7-.6a1.683,1.683,0,0,1-1.455.728,1.861,1.861,0,0,1-.835-.186,1.569,1.569,0,0,1-.61-.527V0H19.756V-7.52h1.152v2.783A1.6,1.6,0,0,1,22.285-5.43ZM21.973-.908q1.064,0,1.064-1.7,0-1.738-1.113-1.738a1.194,1.194,0,0,0-.532.117,1.765,1.765,0,0,0-.483.371V-1.4a1.418,1.418,0,0,0,.483.361A1.385,1.385,0,0,0,21.973-.908ZM25.43-5.3h1.152V0H25.43Zm.576-.762a.717.717,0,0,1-.522-.186.663.663,0,0,1-.19-.5.683.683,0,0,1,.186-.513.725.725,0,0,1,.527-.181.717.717,0,0,1,.522.186.663.663,0,0,1,.19.5.683.683,0,0,1-.186.513A.725.725,0,0,1,26.006-6.064ZM30.117.078A1.55,1.55,0,0,1,28.34-1.65V-4.307H27.5v-1h.84V-6.777h1.152V-5.3h1.484v1H29.492v2.461a1,1,0,0,0,.19.679.8.8,0,0,0,.62.21,2.2,2.2,0,0,0,.566-.078l.176.977A3.105,3.105,0,0,1,30.117.078ZM32.031-5.3h1.152V0H32.031Zm.576-.762a.717.717,0,0,1-.522-.186.663.663,0,0,1-.19-.5.683.683,0,0,1,.186-.513.725.725,0,0,1,.527-.181.717.717,0,0,1,.522.186.663.663,0,0,1,.19.5.683.683,0,0,1-.186.513A.725.725,0,0,1,32.607-6.064ZM36.7.127a2.116,2.116,0,0,1-1.709-.7,3.129,3.129,0,0,1-.6-2.07A3.131,3.131,0,0,1,35-4.722a2.123,2.123,0,0,1,1.714-.708,2.109,2.109,0,0,1,1.709.708,3.149,3.149,0,0,1,.6,2.075,3.111,3.111,0,0,1-.6,2.07A2.13,2.13,0,0,1,36.7.127ZM36.7-.9a.944.944,0,0,0,.85-.439,2.441,2.441,0,0,0,.283-1.309q0-1.748-1.123-1.748T35.576-2.646a2.441,2.441,0,0,0,.283,1.309A.935.935,0,0,0,36.7-.9ZM42.852-5.43a1.529,1.529,0,0,1,1.182.454,1.807,1.807,0,0,1,.42,1.274V0H43.3V-3.555q0-.791-.869-.791a1.682,1.682,0,0,0-1.074.4V0H40.205V-5.3H41.25v.645A2.024,2.024,0,0,1,42.852-5.43ZM53.281-7.07V0H52.109V-3.066H49.229V0H48.057V-7.07h1.172v2.959h2.881V-7.07Zm3.33,1.641a2.225,2.225,0,0,1,1.479.449A1.581,1.581,0,0,1,58.623-3.7V0H57.588V-.742a1.69,1.69,0,0,1-1.572.85,1.611,1.611,0,0,1-1.191-.42,1.584,1.584,0,0,1-.42-1.172,1.508,1.508,0,0,1,.737-1.392A4.754,4.754,0,0,1,57.48-3.33v-.244q0-.82-1.064-.82a3.029,3.029,0,0,0-1.24.273l-.293-.9A3.938,3.938,0,0,1,56.611-5.43ZM56.3-.879a1.528,1.528,0,0,0,1.182-.547V-2.539a3.771,3.771,0,0,0-1.494.249.755.755,0,0,0-.469.718Q55.518-.879,56.3-.879Zm5.1.947a1.187,1.187,0,0,1-1.338-1.348V-7.52h1.152v6.025a.577.577,0,0,0,.117.4.483.483,0,0,0,.371.127A2.752,2.752,0,0,0,62.061-1l.078.977A3.05,3.05,0,0,1,61.4.068Zm3.125,0a1.187,1.187,0,0,1-1.338-1.348V-7.52h1.152v6.025a.577.577,0,0,0,.117.4.483.483,0,0,0,.371.127A2.752,2.752,0,0,0,65.186-1l.078.977A3.05,3.05,0,0,1,64.521.068Zm5.625-5.5a2.225,2.225,0,0,1,1.479.449A1.581,1.581,0,0,1,72.158-3.7V0H71.123V-.742a1.69,1.69,0,0,1-1.572.85,1.611,1.611,0,0,1-1.191-.42,1.584,1.584,0,0,1-.42-1.172,1.508,1.508,0,0,1,.737-1.392,4.754,4.754,0,0,1,2.339-.454v-.244q0-.82-1.064-.82a3.029,3.029,0,0,0-1.24.273l-.293-.9A3.938,3.938,0,0,1,70.146-5.43ZM69.834-.879a1.528,1.528,0,0,0,1.182-.547V-2.539a3.771,3.771,0,0,0-1.494.249.755.755,0,0,0-.469.718Q69.053-.879,69.834-.879ZM76.26-5.43a1.529,1.529,0,0,1,1.182.454,1.807,1.807,0,0,1,.42,1.274V0H76.709V-3.555q0-.791-.869-.791a1.682,1.682,0,0,0-1.074.4V0H73.613V-5.3h1.045v.645A2.024,2.024,0,0,1,76.26-5.43ZM82.422,0V-.732a1.625,1.625,0,0,1-1.484.859A1.639,1.639,0,0,1,79.512-.6,3.559,3.559,0,0,1,79-2.656,3.492,3.492,0,0,1,79.521-4.7a1.679,1.679,0,0,1,1.455-.732,1.889,1.889,0,0,1,.752.146,1.592,1.592,0,0,1,.586.43V-7.52h1.152V0ZM81.3-.947a1.194,1.194,0,0,0,.532-.117,1.694,1.694,0,0,0,.483-.381V-3.9a1.418,1.418,0,0,0-.483-.361,1.385,1.385,0,0,0-.581-.127q-1.064,0-1.064,1.7Q80.186-.947,81.3-.947ZM89.941.117a3.061,3.061,0,0,1-2.378-.923,3.685,3.685,0,0,1-.845-2.583A4.9,4.9,0,0,1,87.1-5.41a2.982,2.982,0,0,1,1.1-1.323A3.035,3.035,0,0,1,89.893-7.2a3.783,3.783,0,0,1,1.03.142,3.238,3.238,0,0,1,.894.4l-.4.908a3.459,3.459,0,0,0-1.543-.381,1.675,1.675,0,0,0-1.436.693,3.277,3.277,0,0,0-.508,1.963,2.911,2.911,0,0,0,.522,1.885A1.888,1.888,0,0,0,90-.957,2.924,2.924,0,0,0,91.475-1.3l.4.889a2.344,2.344,0,0,1-.825.386A4.15,4.15,0,0,1,89.941.117Zm4.775.01a2.116,2.116,0,0,1-1.709-.7,3.129,3.129,0,0,1-.6-2.07,3.131,3.131,0,0,1,.6-2.075,2.123,2.123,0,0,1,1.714-.708,2.109,2.109,0,0,1,1.709.708,3.149,3.149,0,0,1,.6,2.075,3.111,3.111,0,0,1-.6,2.07A2.13,2.13,0,0,1,94.717.127Zm0-1.025a.944.944,0,0,0,.85-.439,2.441,2.441,0,0,0,.283-1.309q0-1.748-1.123-1.748T93.594-2.646a2.441,2.441,0,0,0,.283,1.309A.935.935,0,0,0,94.717-.9Zm6.592.9V-.732a1.625,1.625,0,0,1-1.484.859A1.639,1.639,0,0,1,98.4-.6a3.559,3.559,0,0,1-.508-2.056A3.492,3.492,0,0,1,98.408-4.7a1.679,1.679,0,0,1,1.455-.732,1.889,1.889,0,0,1,.752.146,1.592,1.592,0,0,1,.586.43V-7.52h1.152V0Zm-1.123-.947a1.194,1.194,0,0,0,.532-.117,1.694,1.694,0,0,0,.483-.381V-3.9a1.418,1.418,0,0,0-.483-.361,1.385,1.385,0,0,0-.581-.127q-1.064,0-1.064,1.7Q99.072-.947,100.186-.947Zm7.871-1.924a3.274,3.274,0,0,1-.049.576h-3.32a1.322,1.322,0,0,0,1.426,1.367,2.6,2.6,0,0,0,1.3-.342l.42.869a2.913,2.913,0,0,1-.845.381A3.625,3.625,0,0,1,106,.117,2.311,2.311,0,0,1,104.17-.61a2.967,2.967,0,0,1-.645-2.036,3.128,3.128,0,0,1,.605-2.056,2.088,2.088,0,0,1,1.7-.728,2.058,2.058,0,0,1,1.641.674A2.78,2.78,0,0,1,108.057-2.871ZM105.8-4.414q-.967,0-1.1,1.309H106.9a1.536,1.536,0,0,0-.308-.967A.985.985,0,0,0,105.8-4.414Zm9.619,3.359V0h-4.1V-7.07h1.172v6.016Zm2.764-4.375a2.225,2.225,0,0,1,1.479.449A1.581,1.581,0,0,1,120.2-3.7V0H119.16V-.742a1.69,1.69,0,0,1-1.572.85,1.611,1.611,0,0,1-1.191-.42,1.584,1.584,0,0,1-.42-1.172,1.508,1.508,0,0,1,.737-1.392,4.754,4.754,0,0,1,2.339-.454v-.244q0-.82-1.064-.82a3.029,3.029,0,0,0-1.24.273l-.293-.9A3.938,3.938,0,0,1,118.184-5.43Zm-.312,4.551a1.528,1.528,0,0,0,1.182-.547V-2.539a3.771,3.771,0,0,0-1.494.249.755.755,0,0,0-.469.718Q117.09-.879,117.871-.879ZM124.18-5.43a1.636,1.636,0,0,1,1.426.732,3.563,3.563,0,0,1,.508,2.051A3.488,3.488,0,0,1,125.6-.6a1.683,1.683,0,0,1-1.455.728,1.861,1.861,0,0,1-.835-.186,1.57,1.57,0,0,1-.61-.527V0H121.65V-7.52H122.8v2.783A1.6,1.6,0,0,1,124.18-5.43Zm-.312,4.521q1.064,0,1.064-1.7,0-1.738-1.113-1.738a1.194,1.194,0,0,0-.532.117,1.765,1.765,0,0,0-.483.371V-1.4a1.418,1.418,0,0,0,.483.361A1.385,1.385,0,0,0,123.867-.908ZM3.3,8.93V16H2.139V10.131L.6,10.668.264,9.711,2.295,8.93Zm4.482,0V16H6.621V10.131l-1.543.537-.332-.957L6.777,8.93Zm2.646,2.725a.75.75,0,0,1-.547-.19.7.7,0,0,1-.2-.522.709.709,0,0,1,.2-.532.88.88,0,0,1,1.094,0,.7.7,0,0,1,.2.522.709.709,0,0,1-.2.532A.75.75,0,0,1,10.43,11.654Zm0,3.125a.75.75,0,0,1-.547-.19.7.7,0,0,1-.2-.522.709.709,0,0,1,.2-.532.88.88,0,0,1,1.094,0,.7.7,0,0,1,.2.522.709.709,0,0,1-.2.532A.75.75,0,0,1,10.43,14.779Zm4.521-3.154a2.058,2.058,0,0,1,1.353.688,2.165,2.165,0,0,1,.5,1.47,2.4,2.4,0,0,1-.308,1.226,2.1,2.1,0,0,1-.874.825,2.831,2.831,0,0,1-1.318.293,4.167,4.167,0,0,1-1.172-.171,3.3,3.3,0,0,1-.986-.454l.439-.957a4.132,4.132,0,0,0,.879.376,2.992,2.992,0,0,0,.84.132,1.33,1.33,0,0,0,.967-.332,1.247,1.247,0,0,0,.342-.937,1.191,1.191,0,0,0-.327-.889,1.231,1.231,0,0,0-.9-.322,2.772,2.772,0,0,0-.635.078l-.449-.576,2.012-2.129h-3V8.93h4.268V9.945Zm5.508,4.5a2.093,2.093,0,0,1-1.851-.889A4.973,4.973,0,0,1,18,12.465,5,5,0,0,1,18.6,9.687,2.085,2.085,0,0,1,20.449,8.8a2.107,2.107,0,0,1,1.86.884,4.97,4.97,0,0,1,.61,2.778,4.973,4.973,0,0,1-.61,2.773A2.093,2.093,0,0,1,20.459,16.127Zm0-1.035a1.009,1.009,0,0,0,.967-.63,4.889,4.889,0,0,0,.3-2,4.82,4.82,0,0,0-.308-2,1.018,1.018,0,0,0-.972-.63,1,1,0,0,0-.957.63,4.889,4.889,0,0,0-.3,2,4.889,4.889,0,0,0,.3,2A1.009,1.009,0,0,0,20.459,15.092Zm9.473-.732H27.275L26.768,16h-1.23l2.432-7.07h1.279L31.68,16h-1.24Zm-.322-1.025-1.016-3.262-1.006,3.262Zm9.766-4.4V16H38.232V10.795l-1.592,3.8H35.42l-1.611-3.8V16H32.7V8.93H34.1l1.943,4.58,1.9-4.58Zm3.32,3.682h5.117v.869H42.7Zm10.713-1.123a2.125,2.125,0,0,1,1.1.283,1.9,1.9,0,0,1,.737.8A2.82,2.82,0,0,1,55.215,15a2.039,2.039,0,0,1-.825.835,2.521,2.521,0,0,1-1.235.293,2.551,2.551,0,0,1-1.265-.3,2.094,2.094,0,0,1-.84-.859,2.691,2.691,0,0,1-.3-1.289,3.846,3.846,0,0,1,.3-1.528A6.9,6.9,0,0,1,52.1,10.541L53.545,8.8l.908.7L53,11.166q-.254.293-.371.439A2.774,2.774,0,0,1,53.408,11.488Zm-.254,3.623a1.091,1.091,0,0,0,.859-.352,1.419,1.419,0,0,0,.313-.977,1.431,1.431,0,0,0-.332-1.006,1.185,1.185,0,0,0-.918-.361,2.211,2.211,0,0,0-.928.205,2.233,2.233,0,0,0-.225,1.045,1.583,1.583,0,0,0,.327,1.064A1.128,1.128,0,0,0,53.154,15.111Zm4.18-3.457a.75.75,0,0,1-.547-.19.7.7,0,0,1-.2-.522.709.709,0,0,1,.2-.532.88.88,0,0,1,1.094,0,.7.7,0,0,1,.2.522.709.709,0,0,1-.2.532A.75.75,0,0,1,57.334,11.654Zm0,3.125a.75.75,0,0,1-.547-.19.7.7,0,0,1-.2-.522.709.709,0,0,1,.2-.532.88.88,0,0,1,1.094,0,.7.7,0,0,1,.2.522.709.709,0,0,1-.2.532A.75.75,0,0,1,57.334,14.779Zm4.521,1.348A2.093,2.093,0,0,1,60,15.238a4.973,4.973,0,0,1-.61-2.773A5,5,0,0,1,60,9.687,2.085,2.085,0,0,1,61.846,8.8a2.107,2.107,0,0,1,1.86.884,4.97,4.97,0,0,1,.61,2.778,4.973,4.973,0,0,1-.61,2.773A2.093,2.093,0,0,1,61.855,16.127Zm0-1.035a1.009,1.009,0,0,0,.967-.63,4.889,4.889,0,0,0,.3-2,4.82,4.82,0,0,0-.308-2,1.018,1.018,0,0,0-.972-.63,1,1,0,0,0-.957.63,4.889,4.889,0,0,0-.3,2,4.889,4.889,0,0,0,.3,2A1.009,1.009,0,0,0,61.855,15.092Zm6.113,1.035a2.093,2.093,0,0,1-1.851-.889,4.973,4.973,0,0,1-.61-2.773,5,5,0,0,1,.605-2.778A2.085,2.085,0,0,1,67.959,8.8a2.107,2.107,0,0,1,1.86.884,4.97,4.97,0,0,1,.61,2.778,4.973,4.973,0,0,1-.61,2.773A2.093,2.093,0,0,1,67.969,16.127Zm0-1.035a1.009,1.009,0,0,0,.967-.63,4.889,4.889,0,0,0,.3-2,4.82,4.82,0,0,0-.308-2,1.018,1.018,0,0,0-.972-.63,1,1,0,0,0-.957.63,4.889,4.889,0,0,0-.3,2,4.889,4.889,0,0,0,.3,2A1.009,1.009,0,0,0,67.969,15.092ZM76.475,8.93a2.279,2.279,0,0,1,1.709.62,2.4,2.4,0,0,1,.605,1.753,2.394,2.394,0,0,1-.625,1.763,2.352,2.352,0,0,1-1.748.63H75.088V16H73.916V8.93h2.559Zm0,3.721q1.1,0,1.1-1.328,0-1.348-1.162-1.348H75.088V12.65ZM86.436,8.93V16H85.293V10.795l-1.592,3.8H82.48l-1.611-3.8V16H79.756V8.93h1.406l1.943,4.58,1.9-4.58Z" transform="translate(131 424)"/>
    <path id="Path_497" data-name="Path 497" d="M4659.95-62.089l-6.2-6.2a.51.51,0,0,0-.665-.026l-.514-.513a6.821,6.821,0,0,0,1.139-3.778,6.872,6.872,0,0,0-6.864-6.864,6.872,6.872,0,0,0-6.864,6.864,6.872,6.872,0,0,0,6.864,6.864,6.818,6.818,0,0,0,3.908-1.229l.492.493a.494.494,0,0,0,.025.665l6.2,6.2a.5.5,0,0,0,.353.145.5.5,0,0,0,.352-.145l1.772-1.772a.5.5,0,0,0,.146-.352A.5.5,0,0,0,4659.95-62.089ZM4640.983-72.6a5.875,5.875,0,0,1,5.868-5.868,5.875,5.875,0,0,1,5.868,5.868,5.841,5.841,0,0,1-1.6,4.016l-.251.252a5.839,5.839,0,0,1-4.015,1.6A5.874,5.874,0,0,1,4640.983-72.6Zm10.833,4.725.15-.149.412.412-.429.429-.413-.412.038-.038C4651.657-67.715,4651.737-67.795,4651.815-67.877Zm6.011,7.208-5.493-5.493,1.068-1.068,5.493,5.493Z" transform="translate(-4556.988 497.467)" fill="#1a1a1a"/>
    <g id="Group_208" data-name="Group 208" transform="translate(-764.75 527.254)">
      <path id="Path_492" data-name="Path 492" d="M864.854-49.355V-59.784a1.469,1.469,0,0,0-1.468-1.466h-15.17a1.469,1.469,0,0,0-1.466,1.466v10.43a1.469,1.469,0,0,0,1.466,1.465h2.329v4.223a.518.518,0,0,0,.281.46.514.514,0,0,0,.237.057.516.516,0,0,0,.3-.1l6.5-4.644h5.524A1.469,1.469,0,0,0,864.854-49.355Zm-7.154.431a.519.519,0,0,0-.3.1l-5.818,4.155v-3.734a.518.518,0,0,0-.517-.518h-2.846a.432.432,0,0,1-.431-.431V-59.784a.431.431,0,0,1,.431-.431h15.172a.432.432,0,0,1,.431.431v10.429a.432.432,0,0,1-.431.431Z"/>
      <path id="Path_493" data-name="Path 493" d="M873.237-57.128h-.948a.518.518,0,0,0-.518.518.518.518,0,0,0,.518.518h.948a.431.431,0,0,1,.431.431v10.429a.431.431,0,0,1-.431.431h-2.844a.518.518,0,0,0-.518.518v2.718l-3.9-3.122a.52.52,0,0,0-.324-.113h-1.9a.518.518,0,0,0-.518.518.518.518,0,0,0,.518.518h1.715l4.6,3.681a.517.517,0,0,0,.324.114.524.524,0,0,0,.224-.051.519.519,0,0,0,.293-.466v-3.278h2.327a1.469,1.469,0,0,0,1.465-1.466V-55.662A1.469,1.469,0,0,0,873.237-57.128Z" transform="translate(-5.111 -1.278)"/>
    </g>
    <path id="Path_498" data-name="Path 498" d="M2735.125-173.2c0-.005,0-.011,0-.016a12.086,12.086,0,0,0-.86-3.823.514.514,0,0,0-.475-.316h-9.133a.513.513,0,0,0-.475.316,12.038,12.038,0,0,0-.86,3.831l0,.008v.005a4.553,4.553,0,0,0,.133,1.213,46.119,46.119,0,0,1,1.667,7.806v5.654a.515.515,0,0,0,.268.451,8.53,8.53,0,0,0,3.835.715,8.526,8.526,0,0,0,3.834-.715.516.516,0,0,0,.268-.451v-5.654a46.119,46.119,0,0,1,1.667-7.806,4.537,4.537,0,0,0,.133-1.208Zm-10.118-3.129h8.428a11.617,11.617,0,0,1,.625,2.615h-9.683A11.732,11.732,0,0,1,2725.007-176.327Zm7.288,12.153v5.317a8.8,8.8,0,0,1-3.074.476,8.832,8.832,0,0,1-3.075-.475v-5.317a45.2,45.2,0,0,0-1.7-8.069,2.977,2.977,0,0,1-.074-.442h9.7a2.8,2.8,0,0,1-.075.442A45.217,45.217,0,0,0,2732.295-164.174Z" transform="translate(-2636.316 691.354)" fill="#1a1a1a"/>
  </g>
</svg>
