<svg xmlns="http://www.w3.org/2000/svg" width="286" height="40" viewBox="0 0 286 40">
  <g id="Group_220" data-name="Group 220" transform="translate(-37 -216)">
    <rect id="Rectangle_914" data-name="Rectangle 914" width="286" height="40" transform="translate(37 216)" fill="#1428a0"/>
    <path id="Path_522" data-name="Path 522" d="M3.008-2.529H1.992V0H.82V-7.07H3.291a2.3,2.3,0,0,1,1.694.6,2.247,2.247,0,0,1,.6,1.67,2.481,2.481,0,0,1-.352,1.367,1.88,1.88,0,0,1-1.016.771L6,0H4.59ZM1.992-3.535h1.3q1.084,0,1.084-1.25T3.252-6.035H1.992Zm9.092.664a3.275,3.275,0,0,1-.049.576H7.715A1.322,1.322,0,0,0,9.141-.928a2.6,2.6,0,0,0,1.3-.342l.42.869a2.913,2.913,0,0,1-.845.381,3.625,3.625,0,0,1-.991.137A2.311,2.311,0,0,1,7.2-.61a2.967,2.967,0,0,1-.645-2.036A3.128,3.128,0,0,1,7.158-4.7a2.088,2.088,0,0,1,1.7-.728,2.058,2.058,0,0,1,1.641.674A2.78,2.78,0,0,1,11.084-2.871ZM8.828-4.414q-.967,0-1.1,1.309H9.932a1.536,1.536,0,0,0-.308-.967A.985.985,0,0,0,8.828-4.414ZM16.367-5.3V-.146a2.239,2.239,0,0,1-.625,1.694,2.448,2.448,0,0,1-1.768.6,4.151,4.151,0,0,1-.894-.1,3.231,3.231,0,0,1-.786-.273L12.627.85a2.986,2.986,0,0,0,1.24.283q1.348,0,1.348-1.279V-.869a1.6,1.6,0,0,1-1.377.7A1.688,1.688,0,0,1,12.4-.859,3.216,3.216,0,0,1,11.885-2.8a3.149,3.149,0,0,1,.522-1.938,1.738,1.738,0,0,1,1.47-.688,1.821,1.821,0,0,1,.835.19,1.609,1.609,0,0,1,.61.532v-.6ZM14.2-1.24a1.184,1.184,0,0,0,.537-.122,1.7,1.7,0,0,0,.479-.376V-3.9a1.418,1.418,0,0,0-.483-.361,1.385,1.385,0,0,0-.581-.127q-1.084,0-1.084,1.553Q13.066-1.24,14.2-1.24ZM17.91-5.3h1.152V0H17.91Zm.576-.762a.717.717,0,0,1-.522-.186.663.663,0,0,1-.19-.5.683.683,0,0,1,.186-.513.725.725,0,0,1,.527-.181.717.717,0,0,1,.522.186.663.663,0,0,1,.19.5.683.683,0,0,1-.186.513A.725.725,0,0,1,18.486-6.064ZM22.021.117a3.947,3.947,0,0,1-1.04-.137A3.165,3.165,0,0,1,20.1-.4l.4-.937A2.887,2.887,0,0,0,22.021-.9q.938,0,.938-.586a.491.491,0,0,0-.161-.381,1.2,1.2,0,0,0-.513-.234l-.693-.166a2.072,2.072,0,0,1-1.069-.522,1.357,1.357,0,0,1-.337-.972A1.522,1.522,0,0,1,20.7-4.98a2.163,2.163,0,0,1,1.45-.439,3.853,3.853,0,0,1,.938.117,3.654,3.654,0,0,1,.85.322l-.439.928A2.966,2.966,0,0,0,22.129-4.4q-.84,0-.84.537a.449.449,0,0,0,.166.356,1.283,1.283,0,0,0,.518.229l.693.166a2.08,2.08,0,0,1,1.074.537,1.4,1.4,0,0,1,.332.986,1.552,1.552,0,0,1-.537,1.26A2.294,2.294,0,0,1,22.021.117ZM27.178.078A1.55,1.55,0,0,1,25.4-1.65V-4.307h-.84v-1h.84V-6.777h1.152V-5.3h1.484v1H26.553v2.461a1,1,0,0,0,.19.679.8.8,0,0,0,.62.21,2.2,2.2,0,0,0,.566-.078l.176.977A3.105,3.105,0,0,1,27.178.078ZM31.514-5.41a1.379,1.379,0,0,1,.605.127l-.234,1.094a2,2,0,0,0-.635-.1,1.279,1.279,0,0,0-.6.127,1.165,1.165,0,0,0-.43.41V0H29.072V-5.3h1.045v.811A1.549,1.549,0,0,1,31.514-5.41Zm3.105-.02A2.225,2.225,0,0,1,36.1-4.98,1.581,1.581,0,0,1,36.631-3.7V0H35.6V-.742a1.69,1.69,0,0,1-1.572.85,1.611,1.611,0,0,1-1.191-.42,1.584,1.584,0,0,1-.42-1.172,1.508,1.508,0,0,1,.737-1.392,4.754,4.754,0,0,1,2.339-.454v-.244q0-.82-1.064-.82a3.029,3.029,0,0,0-1.24.273l-.293-.9A3.938,3.938,0,0,1,34.619-5.43ZM34.307-.879a1.528,1.528,0,0,0,1.182-.547V-2.539a3.771,3.771,0,0,0-1.494.249.755.755,0,0,0-.469.718Q33.525-.879,34.307-.879Zm5.771.957A1.55,1.55,0,0,1,38.3-1.65V-4.307h-.84v-1h.84V-6.777h1.152V-5.3h1.484v1H39.453v2.461a1,1,0,0,0,.19.679.8.8,0,0,0,.62.21,2.2,2.2,0,0,0,.566-.078l.176.977A3.105,3.105,0,0,1,40.078.078ZM41.992-5.3h1.152V0H41.992Zm.576-.762a.717.717,0,0,1-.522-.186.663.663,0,0,1-.19-.5.683.683,0,0,1,.186-.513.725.725,0,0,1,.527-.181.717.717,0,0,1,.522.186.663.663,0,0,1,.19.5.683.683,0,0,1-.186.513A.725.725,0,0,1,42.568-6.064ZM46.66.127a2.116,2.116,0,0,1-1.709-.7,3.129,3.129,0,0,1-.6-2.07,3.131,3.131,0,0,1,.6-2.075A2.123,2.123,0,0,1,46.67-5.43a2.109,2.109,0,0,1,1.709.708,3.149,3.149,0,0,1,.6,2.075,3.111,3.111,0,0,1-.6,2.07A2.13,2.13,0,0,1,46.66.127Zm0-1.025a.944.944,0,0,0,.85-.439,2.441,2.441,0,0,0,.283-1.309q0-1.748-1.123-1.748T45.537-2.646a2.441,2.441,0,0,0,.283,1.309A.935.935,0,0,0,46.66-.9ZM52.813-5.43a1.529,1.529,0,0,1,1.182.454,1.807,1.807,0,0,1,.42,1.274V0H53.262V-3.555q0-.791-.869-.791a1.682,1.682,0,0,0-1.074.4V0H50.166V-5.3h1.045v.645A2.024,2.024,0,0,1,52.813-5.43ZM3.3,8.93V16H2.139V10.131L.6,10.668.264,9.711,2.295,8.93Zm5.9,6.055V16H4.8V14.975L7.168,12.24A6.14,6.14,0,0,0,7.8,11.4a1.207,1.207,0,0,0,.176-.6.844.844,0,0,0-.293-.679,1.2,1.2,0,0,0-.8-.249,2.642,2.642,0,0,0-.82.137,3.257,3.257,0,0,0-.8.391l-.527-.889A3.633,3.633,0,0,1,5.781,9a3.958,3.958,0,0,1,1.2-.2,2.576,2.576,0,0,1,1.138.239,1.8,1.8,0,0,1,.762.669,1.84,1.84,0,0,1,.269,1A2.195,2.195,0,0,1,8.9,11.713a6.025,6.025,0,0,1-.859,1.182l-1.865,2.09Zm2.07-3.33a.75.75,0,0,1-.547-.19.7.7,0,0,1-.2-.522.709.709,0,0,1,.2-.532.88.88,0,0,1,1.094,0,.7.7,0,0,1,.2.522.709.709,0,0,1-.2.532A.75.75,0,0,1,11.27,11.654Zm0,3.125a.75.75,0,0,1-.547-.19.7.7,0,0,1-.2-.522.709.709,0,0,1,.2-.532.88.88,0,0,1,1.094,0,.7.7,0,0,1,.2.522.709.709,0,0,1-.2.532A.75.75,0,0,1,11.27,14.779Zm4.521,1.348a2.093,2.093,0,0,1-1.851-.889,4.973,4.973,0,0,1-.61-2.773,5,5,0,0,1,.605-2.778A2.085,2.085,0,0,1,15.781,8.8a2.107,2.107,0,0,1,1.86.884,4.97,4.97,0,0,1,.61,2.778,4.973,4.973,0,0,1-.61,2.773A2.093,2.093,0,0,1,15.791,16.127Zm0-1.035a1.009,1.009,0,0,0,.967-.63,4.889,4.889,0,0,0,.3-2,4.82,4.82,0,0,0-.308-2,1.018,1.018,0,0,0-.972-.63,1,1,0,0,0-.957.63,4.889,4.889,0,0,0-.3,2,4.889,4.889,0,0,0,.3,2A1.009,1.009,0,0,0,15.791,15.092ZM21.9,16.127a2.093,2.093,0,0,1-1.851-.889,4.973,4.973,0,0,1-.61-2.773,5,5,0,0,1,.605-2.778A2.085,2.085,0,0,1,21.895,8.8a2.107,2.107,0,0,1,1.86.884,4.97,4.97,0,0,1,.61,2.778,4.973,4.973,0,0,1-.61,2.773A2.093,2.093,0,0,1,21.9,16.127Zm0-1.035a1.009,1.009,0,0,0,.967-.63,4.889,4.889,0,0,0,.3-2,4.82,4.82,0,0,0-.308-2,1.018,1.018,0,0,0-.972-.63,1,1,0,0,0-.957.63,4.889,4.889,0,0,0-.3,2,4.889,4.889,0,0,0,.3,2A1.009,1.009,0,0,0,21.9,15.092ZM30.41,8.93a2.279,2.279,0,0,1,1.709.62,2.4,2.4,0,0,1,.605,1.753,2.394,2.394,0,0,1-.625,1.763,2.352,2.352,0,0,1-1.748.63H29.023V16H27.852V8.93H30.41Zm0,3.721q1.1,0,1.1-1.328,0-1.348-1.162-1.348H29.023V12.65ZM40.371,8.93V16H39.229V10.795l-1.592,3.8H36.416l-1.611-3.8V16H33.691V8.93H35.1l1.943,4.58,1.9-4.58Zm3.32,3.682h5.117v.869H43.691ZM54.18,16.127a3.149,3.149,0,0,1-1.284-.244,1.921,1.921,0,0,1-.85-.693,1.83,1.83,0,0,1-.3-1.035,1.726,1.726,0,0,1,.4-1.089,2.344,2.344,0,0,1,1.05-.747,1.714,1.714,0,0,1-.854-.654,1.754,1.754,0,0,1-.327-1.025,1.731,1.731,0,0,1,.269-.962,1.776,1.776,0,0,1,.757-.645A2.661,2.661,0,0,1,54.18,8.8a2.694,2.694,0,0,1,1.147.229,1.771,1.771,0,0,1,.762.645,1.731,1.731,0,0,1,.269.962,1.689,1.689,0,0,1-.327,1.011,1.739,1.739,0,0,1-.864.64,2.066,2.066,0,0,1,1.055.7,1.792,1.792,0,0,1,.4,1.147,1.825,1.825,0,0,1-.3,1.045,1.985,1.985,0,0,1-.854.7A3.1,3.1,0,0,1,54.18,16.127Zm.049-4.248a1.711,1.711,0,0,0,.718-.459.988.988,0,0,0,.259-.674.928.928,0,0,0-.273-.708,1.224,1.224,0,0,0-1.5,0,.921.921,0,0,0-.269.7.964.964,0,0,0,.283.674A1.844,1.844,0,0,0,54.229,11.879Zm-.049,3.262a1.41,1.41,0,0,0,.938-.288.963.963,0,0,0,.342-.776,1.08,1.08,0,0,0-.352-.767,2.576,2.576,0,0,0-.967-.581,2.122,2.122,0,0,0-.9.552,1.138,1.138,0,0,0-.327.786.98.98,0,0,0,.337.786A1.39,1.39,0,0,0,54.18,15.141Zm4.346-3.486a.75.75,0,0,1-.547-.19.7.7,0,0,1-.2-.522.709.709,0,0,1,.2-.532.88.88,0,0,1,1.094,0,.7.7,0,0,1,.2.522.709.709,0,0,1-.2.532A.75.75,0,0,1,58.525,11.654Zm0,3.125a.75.75,0,0,1-.547-.19.7.7,0,0,1-.2-.522.709.709,0,0,1,.2-.532.88.88,0,0,1,1.094,0,.7.7,0,0,1,.2.522.709.709,0,0,1-.2.532A.75.75,0,0,1,58.525,14.779Zm4.521,1.348a2.093,2.093,0,0,1-1.851-.889,4.973,4.973,0,0,1-.61-2.773,5,5,0,0,1,.605-2.778A2.085,2.085,0,0,1,63.037,8.8a2.107,2.107,0,0,1,1.86.884,4.97,4.97,0,0,1,.61,2.778,4.973,4.973,0,0,1-.61,2.773A2.093,2.093,0,0,1,63.047,16.127Zm0-1.035a1.009,1.009,0,0,0,.967-.63,4.889,4.889,0,0,0,.3-2,4.82,4.82,0,0,0-.308-2,1.018,1.018,0,0,0-.972-.63,1,1,0,0,0-.957.63,4.889,4.889,0,0,0-.3,2,4.889,4.889,0,0,0,.3,2A1.009,1.009,0,0,0,63.047,15.092Zm6.113,1.035a2.093,2.093,0,0,1-1.851-.889,4.973,4.973,0,0,1-.61-2.773A5,5,0,0,1,67.3,9.687,2.085,2.085,0,0,1,69.15,8.8a2.107,2.107,0,0,1,1.86.884,4.97,4.97,0,0,1,.61,2.778,4.973,4.973,0,0,1-.61,2.773A2.093,2.093,0,0,1,69.16,16.127Zm0-1.035a1.009,1.009,0,0,0,.967-.63,4.889,4.889,0,0,0,.3-2,4.82,4.82,0,0,0-.308-2,1.018,1.018,0,0,0-.972-.63,1,1,0,0,0-.957.63,4.889,4.889,0,0,0-.3,2,4.889,4.889,0,0,0,.3,2A1.009,1.009,0,0,0,69.16,15.092ZM77.666,8.93a2.279,2.279,0,0,1,1.709.62A2.4,2.4,0,0,1,79.98,11.3a2.394,2.394,0,0,1-.625,1.763,2.352,2.352,0,0,1-1.748.63H76.279V16H75.107V8.93h2.559Zm0,3.721q1.1,0,1.1-1.328,0-1.348-1.162-1.348H76.279V12.65ZM87.627,8.93V16H86.484V10.795l-1.592,3.8H83.672l-1.611-3.8V16H80.947V8.93h1.406L84.3,13.51l1.9-4.58Z" transform="translate(131 232)" fill="#fff"/>
    <g id="Group_182" data-name="Group 182" transform="translate(-484.75 287.514)">
      <path id="Path_476" data-name="Path 476" d="M576.774-50.736a.53.53,0,0,0-.751,0,.531.531,0,0,0,0,.751l4.025,4.026a.529.529,0,0,0,.375.156.53.53,0,0,0,.375-.156l9.8-9.8a.531.531,0,0,0,0-.751.531.531,0,0,0-.752,0l-9.426,9.428Z" transform="translate(-2.901 -1.514)" fill="#fff"/>
      <path id="Path_477" data-name="Path 477" d="M587.225-52.721a.518.518,0,0,0-.517.518v9.916H568.785v-17.93h14.071a.518.518,0,0,0,.517-.518.518.518,0,0,0-.517-.518H568.267a.518.518,0,0,0-.517.518V-41.77a.518.518,0,0,0,.517.518h18.958a.518.518,0,0,0,.517-.518V-52.2A.518.518,0,0,0,587.225-52.721Z" fill="#fff"/>
    </g>
  </g>
</svg>
