<svg xmlns="http://www.w3.org/2000/svg" width="1627.822" height="426.492" viewBox="0 0 1627.822 426.492">
  <g id="Group_213" data-name="Group 213" transform="translate(-139.27 -590.008)">
    <g id="Group_210" data-name="Group 210">
      <g id="Schedule">
        <path id="Path_522" data-name="Path 522" d="M-10.573-17.676v2.539L-17.409.244-20.143-.879-13.6-15.137h-8.13v-2.539ZM3.548-2.953H-1.233L-2.147,0H-4.362L.015-12.727h2.3L6.695,0H4.462ZM2.968-4.8,1.14-10.67-.67-4.8Zm17.578-7.928V0H18.49V-9.369L15.625-2.531h-2.2l-2.9-6.838V0h-2V-12.727h2.531l3.5,8.244,3.428-8.244Z" transform="translate(161 608)"/>
        <path id="Path_523" data-name="Path 523" d="M-.012.317a7.873,7.873,0,0,1-3.21-.61A4.8,4.8,0,0,1-5.347-2.026a4.575,4.575,0,0,1-.745-2.588A4.316,4.316,0,0,1-5.1-7.336,5.86,5.86,0,0,1-2.478-9.2,4.286,4.286,0,0,1-4.614-10.84,4.385,4.385,0,0,1-5.432-13.4a4.328,4.328,0,0,1,.671-2.4,4.44,4.44,0,0,1,1.892-1.611,6.652,6.652,0,0,1,2.856-.574,6.735,6.735,0,0,1,2.869.574,4.427,4.427,0,0,1,1.9,1.611,4.328,4.328,0,0,1,.671,2.4,4.222,4.222,0,0,1-.818,2.527,4.347,4.347,0,0,1-2.161,1.6A5.164,5.164,0,0,1,5.09-7.532a4.48,4.48,0,0,1,1,2.869,4.563,4.563,0,0,1-.757,2.612A4.963,4.963,0,0,1,3.2-.305,7.739,7.739,0,0,1-.012.317ZM.11-10.3A4.277,4.277,0,0,0,1.9-11.45a2.47,2.47,0,0,0,.647-1.685,2.32,2.32,0,0,0-.684-1.77,2.624,2.624,0,0,0-1.88-.647,2.61,2.61,0,0,0-1.868.635,2.3,2.3,0,0,0-.671,1.758,2.41,2.41,0,0,0,.708,1.685A4.609,4.609,0,0,0,.11-10.3ZM-.012-2.148a3.524,3.524,0,0,0,2.344-.72A2.407,2.407,0,0,0,3.186-4.81a2.7,2.7,0,0,0-.879-1.917A6.439,6.439,0,0,0-.11-8.179,5.3,5.3,0,0,0-2.368-6.8a2.845,2.845,0,0,0-.818,1.965,2.45,2.45,0,0,0,.842,1.965A3.475,3.475,0,0,0-.012-2.148Z" transform="translate(284 608)"/>
        <path id="Path_524" data-name="Path 524" d="M-.159-17.993A6.377,6.377,0,0,1,3-17.236a5.236,5.236,0,0,1,2.1,2.148,6.728,6.728,0,0,1,.745,3.223A9.615,9.615,0,0,1,5.09-8.044,16.931,16.931,0,0,1,2.454-4.028L-1.135.317-3.43-1.44.232-5.591l.9-1.1A6.068,6.068,0,0,1-.793-6.4,5.314,5.314,0,0,1-3.552-7.1,4.738,4.738,0,0,1-5.4-9.094a6.5,6.5,0,0,1-.647-2.966,6.443,6.443,0,0,1,.732-3.113,5.1,5.1,0,0,1,2.063-2.087A6.3,6.3,0,0,1-.159-17.993Zm-2.93,5.859a3.612,3.612,0,0,0,.818,2.515,2.953,2.953,0,0,0,2.307.9,5.585,5.585,0,0,0,2.295-.513,5.569,5.569,0,0,0,.586-2.612A3.958,3.958,0,0,0,2.1-14.5a2.819,2.819,0,0,0-2.258-.952,2.719,2.719,0,0,0-2.161.879A3.584,3.584,0,0,0-3.088-12.134Z" transform="translate(407 608)"/>
        <path id="Path_525" data-name="Path 525" d="M-4.993-17.676V0H-7.9V-14.673l-3.857,1.343-.83-2.393,5.078-1.953ZM5.6.317A5.233,5.233,0,0,1,.977-1.9Q-.549-4.126-.549-8.838q0-4.736,1.514-6.946a5.212,5.212,0,0,1,4.614-2.209,5.268,5.268,0,0,1,4.651,2.209q1.526,2.209,1.526,6.946,0,4.712-1.526,6.934A5.233,5.233,0,0,1,5.6.317Zm0-2.588A2.522,2.522,0,0,0,8.02-3.845a12.223,12.223,0,0,0,.757-4.993,12.049,12.049,0,0,0-.769-4.993,2.545,2.545,0,0,0-2.429-1.575,2.5,2.5,0,0,0-2.393,1.575,12.223,12.223,0,0,0-.757,4.993,12.223,12.223,0,0,0,.757,4.993A2.522,2.522,0,0,0,5.6-2.271Z" transform="translate(530 608)"/>
        <path id="Path_526" data-name="Path 526" d="M-2.954-17.676V0H-5.859V-14.673L-9.717-13.33l-.83-2.393,5.078-1.953Zm11.206,0V0H5.347V-14.673L1.489-13.33l-.83-2.393,5.078-1.953Z" transform="translate(653 608)"/>
        <path id="Path_527" data-name="Path 527" d="M-19.214-17.676V0h-2.905V-14.673l-3.857,1.343-.83-2.393,5.078-1.953ZM-4.468-2.539V0H-15.454V-2.563L-9.546-9.4a15.35,15.35,0,0,0,1.587-2.112,3.018,3.018,0,0,0,.439-1.5,2.11,2.11,0,0,0-.732-1.7,2.992,2.992,0,0,0-2-.623,6.6,6.6,0,0,0-2.051.342,8.141,8.141,0,0,0-2,.977l-1.318-2.222a9.083,9.083,0,0,1,2.612-1.27,9.9,9.9,0,0,1,3-.488,6.44,6.44,0,0,1,2.844.6,4.5,4.5,0,0,1,1.9,1.672,4.6,4.6,0,0,1,.671,2.49,5.486,5.486,0,0,1-.635,2.515A15.061,15.061,0,0,1-7.373-7.764l-4.663,5.225ZM8.06-12.727a4.1,4.1,0,0,1,3.076,1.116,4.328,4.328,0,0,1,1.09,3.155A4.309,4.309,0,0,1,11.1-5.282,4.234,4.234,0,0,1,7.954-4.148H5.563V0H3.454V-12.727H8.06Zm0,6.7q1.986,0,1.986-2.391,0-2.426-2.092-2.426H5.563v4.816Zm17.93-6.7V0H23.933V-9.369L21.067-2.531h-2.2l-2.9-6.838V0h-2V-12.727H16.5L20-4.482l3.428-8.244Z" transform="translate(776 608)"/>
        <path id="Path_528" data-name="Path 528" d="M2.649-17.676V0H-.256V-14.673L-4.114-13.33l-.83-2.393L.134-17.676Z" transform="translate(899 608)"/>
        <path id="Path_529" data-name="Path 529" d="M5.261-2.539V0H-5.725V-2.563L.183-9.4A15.35,15.35,0,0,0,1.77-11.511a3.018,3.018,0,0,0,.439-1.5,2.11,2.11,0,0,0-.732-1.7,2.992,2.992,0,0,0-2-.623,6.6,6.6,0,0,0-2.051.342,8.141,8.141,0,0,0-2,.977L-5.9-16.235A9.083,9.083,0,0,1-3.284-17.5a9.9,9.9,0,0,1,3-.488,6.44,6.44,0,0,1,2.844.6,4.5,4.5,0,0,1,1.9,1.672,4.6,4.6,0,0,1,.671,2.49A5.486,5.486,0,0,1,4.5-10.718,15.061,15.061,0,0,1,2.356-7.764L-2.307-2.539Z" transform="translate(1023 608)"/>
        <path id="Path_530" data-name="Path 530" d="M.757-10.937A5.146,5.146,0,0,1,4.138-9.216,5.413,5.413,0,0,1,5.4-5.542a6.012,6.012,0,0,1-.769,3.064A5.246,5.246,0,0,1,2.441-.415a7.077,7.077,0,0,1-3.3.732A10.419,10.419,0,0,1-3.784-.11,8.236,8.236,0,0,1-6.25-1.245l1.1-2.393a10.33,10.33,0,0,0,2.2.94,7.479,7.479,0,0,0,2.1.33A3.326,3.326,0,0,0,1.563-3.2a3.117,3.117,0,0,0,.854-2.344A2.977,2.977,0,0,0,1.6-7.764,3.079,3.079,0,0,0-.659-8.569a6.93,6.93,0,0,0-1.587.2l-1.123-1.44L1.66-15.137h-7.5v-2.539H4.834v2.539Z" transform="translate(1146 608)"/>
        <path id="Path_531" data-name="Path 531" d="M6.091-5.981v2.49H3.943V0H1.111V-3.491H-6.58v-2.49L-.134-17.676H3.943V-5.981Zm-4.98,0v-9.082L-3.577-5.981Z" transform="translate(1270 608)"/>
        <path id="Path_532" data-name="Path 532" d="M-.2-11.4a5.9,5.9,0,0,1,2.942.708,4.923,4.923,0,0,1,1.953,2,6.192,6.192,0,0,1,.7,2.979,6.285,6.285,0,0,1-.781,3.174,5.336,5.336,0,0,1-2.2,2.112,6.981,6.981,0,0,1-3.3.745,9.924,9.924,0,0,1-2.8-.4A7.34,7.34,0,0,1-5.957-1.147l1.074-2.368a9.745,9.745,0,0,0,2.051.867,7.024,7.024,0,0,0,1.953.305A3.258,3.258,0,0,0,1.55-3.223,3.293,3.293,0,0,0,2.417-5.64a3.177,3.177,0,0,0-.793-2.307A2.968,2.968,0,0,0-.61-8.765a5.832,5.832,0,0,0-1.416.183,5.877,5.877,0,0,0-1.367.525l-1.782-.952.464-8.667h9.3v2.539H-2.124l-.317,4.1A7.058,7.058,0,0,1-.2-11.4Z" transform="translate(1394 608)"/>
        <path id="Path_533" data-name="Path 533" d="M.793-11.279a5.314,5.314,0,0,1,2.759.708A4.738,4.738,0,0,1,5.4-8.582a6.5,6.5,0,0,1,.647,2.966A6.443,6.443,0,0,1,5.31-2.5,5.1,5.1,0,0,1,3.247-.415,6.3,6.3,0,0,1,.159.317,6.377,6.377,0,0,1-3-.439,5.236,5.236,0,0,1-5.1-2.588a6.728,6.728,0,0,1-.745-3.223A9.615,9.615,0,0,1-5.09-9.631a17.249,17.249,0,0,1,2.612-4.016l3.613-4.346,2.271,1.758-3.638,4.15q-.635.732-.928,1.1A6.936,6.936,0,0,1,.793-11.279ZM.159-2.222A2.727,2.727,0,0,0,2.307-3.1a3.548,3.548,0,0,0,.781-2.441,3.578,3.578,0,0,0-.83-2.515,2.961,2.961,0,0,0-2.295-.9,5.527,5.527,0,0,0-2.319.513,5.582,5.582,0,0,0-.562,2.612A3.958,3.958,0,0,0-2.1-3.174,2.819,2.819,0,0,0,.159-2.222Z" transform="translate(1515 608)"/>
        <path id="Path_534" data-name="Path 534" d="M5.383-17.676v2.539L-1.453.244-4.187-.879,2.356-15.137h-8.13v-2.539Z" transform="translate(1638 608)"/>
        <path id="Path_535" data-name="Path 535" d="M-.012.317a7.873,7.873,0,0,1-3.21-.61A4.8,4.8,0,0,1-5.347-2.026a4.575,4.575,0,0,1-.745-2.588A4.316,4.316,0,0,1-5.1-7.336,5.86,5.86,0,0,1-2.478-9.2,4.286,4.286,0,0,1-4.614-10.84,4.385,4.385,0,0,1-5.432-13.4a4.328,4.328,0,0,1,.671-2.4,4.44,4.44,0,0,1,1.892-1.611,6.652,6.652,0,0,1,2.856-.574,6.735,6.735,0,0,1,2.869.574,4.427,4.427,0,0,1,1.9,1.611,4.328,4.328,0,0,1,.671,2.4,4.222,4.222,0,0,1-.818,2.527,4.347,4.347,0,0,1-2.161,1.6A5.164,5.164,0,0,1,5.09-7.532a4.48,4.48,0,0,1,1,2.869,4.563,4.563,0,0,1-.757,2.612A4.963,4.963,0,0,1,3.2-.305,7.739,7.739,0,0,1-.012.317ZM.11-10.3A4.277,4.277,0,0,0,1.9-11.45a2.47,2.47,0,0,0,.647-1.685,2.32,2.32,0,0,0-.684-1.77,2.624,2.624,0,0,0-1.88-.647,2.61,2.61,0,0,0-1.868.635,2.3,2.3,0,0,0-.671,1.758,2.41,2.41,0,0,0,.708,1.685A4.609,4.609,0,0,0,.11-10.3ZM-.012-2.148a3.524,3.524,0,0,0,2.344-.72A2.407,2.407,0,0,0,3.186-4.81a2.7,2.7,0,0,0-.879-1.917A6.439,6.439,0,0,0-.11-8.179,5.3,5.3,0,0,0-2.368-6.8a2.845,2.845,0,0,0-.818,1.965,2.45,2.45,0,0,0,.842,1.965A3.475,3.475,0,0,0-.012-2.148Z" transform="translate(1761 608)"/>
        <line id="Line_104" data-name="Line 104" y2="384" transform="translate(160.5 632)" fill="none" stroke="#d7d2cb" stroke-width="1"/>
        <line id="Line_105" data-name="Line 105" y2="384" transform="translate(283.5 632)" fill="none" stroke="#d7d2cb" stroke-width="1"/>
        <line id="Line_106" data-name="Line 106" y2="384" transform="translate(406.5 632)" fill="none" stroke="#d7d2cb" stroke-width="1"/>
        <line id="Line_107" data-name="Line 107" y2="384" transform="translate(529.5 632)" fill="none" stroke="#d7d2cb" stroke-width="1"/>
        <line id="Line_108" data-name="Line 108" y2="384" transform="translate(652.5 632)" fill="none" stroke="#d7d2cb" stroke-width="1"/>
        <line id="Line_109" data-name="Line 109" y2="384" transform="translate(775.5 632.5)" fill="none" stroke="#d7d2cb" stroke-width="1"/>
        <line id="Line_110" data-name="Line 110" y2="384" transform="translate(898.5 632)" fill="none" stroke="#d7d2cb" stroke-width="1"/>
        <line id="Line_111" data-name="Line 111" y2="384" transform="translate(1022.5 632)" fill="none" stroke="#d7d2cb" stroke-width="1"/>
        <line id="Line_112" data-name="Line 112" y2="384" transform="translate(1145.5 632)" fill="none" stroke="#d7d2cb" stroke-width="1"/>
        <line id="Line_113" data-name="Line 113" y2="384" transform="translate(1268.5 632)" fill="none" stroke="#d7d2cb" stroke-width="1"/>
        <line id="Line_114" data-name="Line 114" y2="384" transform="translate(1391.5 632)" fill="none" stroke="#d7d2cb" stroke-width="1"/>
        <line id="Line_115" data-name="Line 115" y2="384" transform="translate(1514.5 632)" fill="none" stroke="#d7d2cb" stroke-width="1"/>
        <line id="Line_116" data-name="Line 116" y2="384" transform="translate(1637.5 632)" fill="none" stroke="#d7d2cb" stroke-width="1"/>
        <line id="Line_117" data-name="Line 117" y2="384" transform="translate(1760.5 632)" fill="none" stroke="#d7d2cb" stroke-width="1"/>
        <g id="Group_155" data-name="Group 155" transform="translate(0 8)">
          <rect id="Rectangle_863" data-name="Rectangle 863" width="984" height="64" transform="translate(776 640)" fill="#1d24a0"/>
          <g id="Group_188" data-name="Group 188" transform="translate(10)">
            <path id="Path_521" data-name="Path 521" d="M-49.111-5.059h-2.031V0h-2.344V-14.141h4.941a4.6,4.6,0,0,1,3.389,1.191,4.494,4.494,0,0,1,1.2,3.34,4.961,4.961,0,0,1-.7,2.734,3.76,3.76,0,0,1-2.031,1.543L-43.135,0h-2.812ZM-51.143-7.07h2.6q2.168,0,2.168-2.5t-2.246-2.5h-2.52Zm18.184,1.328a6.549,6.549,0,0,1-.1,1.152H-39.7q.293,2.734,2.852,2.734a5.2,5.2,0,0,0,2.6-.684l.84,1.738A5.827,5.827,0,0,1-35.1-.039,7.249,7.249,0,0,1-37.08.234a4.623,4.623,0,0,1-3.652-1.455,5.934,5.934,0,0,1-1.289-4.072A6.255,6.255,0,0,1-40.811-9.4a4.177,4.177,0,0,1,3.4-1.455,4.117,4.117,0,0,1,3.281,1.348A5.561,5.561,0,0,1-32.959-5.742Zm-4.512-3.086q-1.934,0-2.207,2.617h4.414a3.073,3.073,0,0,0-.615-1.934A1.97,1.97,0,0,0-37.471-8.828Zm15.078-1.777V-.293A4.479,4.479,0,0,1-23.643,3.1a4.9,4.9,0,0,1-3.535,1.2,8.3,8.3,0,0,1-1.787-.2,6.461,6.461,0,0,1-1.572-.547l.664-1.855a5.972,5.972,0,0,0,2.48.566q2.7,0,2.7-2.559V-1.738A3.19,3.19,0,0,1-27.451-.332a3.375,3.375,0,0,1-2.881-1.387,6.432,6.432,0,0,1-1.025-3.887,6.3,6.3,0,0,1,1.045-3.877,3.476,3.476,0,0,1,2.939-1.377,3.642,3.642,0,0,1,1.67.381,3.218,3.218,0,0,1,1.221,1.064v-1.191ZM-26.729-2.48a2.368,2.368,0,0,0,1.074-.244,3.391,3.391,0,0,0,.957-.752V-7.793a2.837,2.837,0,0,0-.967-.723,2.769,2.769,0,0,0-1.162-.254q-2.168,0-2.168,3.105Q-28.994-2.48-26.729-2.48Zm7.422-8.125H-17V0h-2.3Zm1.152-1.523A1.433,1.433,0,0,1-19.2-12.5a1.327,1.327,0,0,1-.381-1,1.366,1.366,0,0,1,.371-1.025,1.45,1.45,0,0,1,1.055-.361,1.433,1.433,0,0,1,1.045.371,1.327,1.327,0,0,1,.381,1A1.366,1.366,0,0,1-17.1-12.49,1.45,1.45,0,0,1-18.154-12.129ZM-11.084.234a7.894,7.894,0,0,1-2.08-.273A6.33,6.33,0,0,1-14.932-.8l.8-1.875a5.773,5.773,0,0,0,3.047.879q1.875,0,1.875-1.172a.982.982,0,0,0-.322-.762A2.392,2.392,0,0,0-10.557-4.2l-1.387-.332a4.144,4.144,0,0,1-2.139-1.045,2.714,2.714,0,0,1-.674-1.943A3.043,3.043,0,0,1-13.73-9.961a4.325,4.325,0,0,1,2.9-.879,7.705,7.705,0,0,1,1.875.234,7.307,7.307,0,0,1,1.7.645l-.879,1.855a5.932,5.932,0,0,0-2.734-.7q-1.68,0-1.68,1.074a.9.9,0,0,0,.332.713,2.567,2.567,0,0,0,1.035.459l1.387.332A4.161,4.161,0,0,1-7.646-5.156a2.8,2.8,0,0,1,.664,1.973A3.1,3.1,0,0,1-8.057-.664,4.589,4.589,0,0,1-11.084.234ZM-.771.156Q-4.326.156-4.326-3.3V-8.613h-1.68v-1.992h1.68v-2.949h2.3v2.949H.947v1.992H-2.021v4.922a1.989,1.989,0,0,0,.381,1.357,1.6,1.6,0,0,0,1.24.42A4.391,4.391,0,0,0,.732-2.07L1.084-.117A6.211,6.211,0,0,1-.771.156ZM7.9-10.82a2.759,2.759,0,0,1,1.211.254L8.643-8.379a3.991,3.991,0,0,0-1.27-.2,2.558,2.558,0,0,0-1.191.254,2.331,2.331,0,0,0-.859.82V0h-2.3V-10.605h2.09v1.621A3.1,3.1,0,0,1,7.9-10.82Zm6.211-.039a4.451,4.451,0,0,1,2.959.9A3.162,3.162,0,0,1,18.135-7.4V0h-2.07V-1.484A3.38,3.38,0,0,1,12.92.215a3.223,3.223,0,0,1-2.383-.84A3.168,3.168,0,0,1,9.7-2.969a3.016,3.016,0,0,1,1.475-2.783A9.507,9.507,0,0,1,15.85-6.66v-.488q0-1.641-2.129-1.641a6.058,6.058,0,0,0-2.48.547l-.586-1.8A7.875,7.875,0,0,1,14.111-10.859Zm-.625,9.1A3.056,3.056,0,0,0,15.85-2.852V-5.078a7.541,7.541,0,0,0-2.988.5,1.509,1.509,0,0,0-.937,1.436Q11.924-1.758,13.486-1.758ZM25.029.156q-3.555,0-3.555-3.457V-8.613h-1.68v-1.992h1.68v-2.949h2.3v2.949h2.969v1.992H23.779v4.922a1.989,1.989,0,0,0,.381,1.357,1.6,1.6,0,0,0,1.24.42,4.391,4.391,0,0,0,1.133-.156l.352,1.953A6.211,6.211,0,0,1,25.029.156Zm3.828-10.762h2.3V0h-2.3Zm1.152-1.523a1.433,1.433,0,0,1-1.045-.371,1.327,1.327,0,0,1-.381-1,1.366,1.366,0,0,1,.371-1.025,1.45,1.45,0,0,1,1.055-.361,1.433,1.433,0,0,1,1.045.371,1.327,1.327,0,0,1,.381,1,1.366,1.366,0,0,1-.371,1.025A1.45,1.45,0,0,1,30.01-12.129ZM38.193.254a4.231,4.231,0,0,1-3.418-1.406,6.258,6.258,0,0,1-1.191-4.141,6.263,6.263,0,0,1,1.2-4.15,4.246,4.246,0,0,1,3.428-1.416,4.217,4.217,0,0,1,3.418,1.416,6.3,6.3,0,0,1,1.191,4.15,6.222,6.222,0,0,1-1.2,4.141A4.261,4.261,0,0,1,38.193.254Zm0-2.051a1.887,1.887,0,0,0,1.7-.879,4.883,4.883,0,0,0,.566-2.617q0-3.5-2.246-3.5-2.266,0-2.266,3.5a4.883,4.883,0,0,0,.566,2.617A1.869,1.869,0,0,0,38.193-1.8Zm12.3-9.062a3.059,3.059,0,0,1,2.363.908A3.614,3.614,0,0,1,53.7-7.4V0H51.4V-7.109q0-1.582-1.738-1.582a3.364,3.364,0,0,0-2.148.8V0h-2.3V-10.605h2.09v1.289A4.048,4.048,0,0,1,50.5-10.859Z" transform="translate(1286 677)" fill="#fff"/>
            <g id="Group_182" data-name="Group 182" transform="translate(607.25 717.254)">
              <path id="Path_476" data-name="Path 476" d="M577.147-48.293a.749.749,0,0,0-1.06,0,.749.749,0,0,0,0,1.06l5.683,5.683a.747.747,0,0,0,.53.22.749.749,0,0,0,.53-.22l13.84-13.84a.749.749,0,0,0,0-1.06.75.75,0,0,0-1.061,0L582.3-43.141Z" fill="#fff"/>
              <path id="Path_477" data-name="Path 477" d="M595.98-48.891a.75.75,0,0,0-.75.75v14.369H569.25v-25.98h20.4a.75.75,0,0,0,.75-.75.75.75,0,0,0-.75-.75H568.5a.75.75,0,0,0-.75.75v27.48a.75.75,0,0,0,.75.75h27.48a.75.75,0,0,0,.75-.75V-48.141A.75.75,0,0,0,595.98-48.891Z" fill="#fff"/>
            </g>
          </g>
        </g>
      </g>
    </g>
  </g>
</svg>
