<svg xmlns="http://www.w3.org/2000/svg" width="1627.822" height="425.993" viewBox="0 0 1627.822 425.993">
  <g id="Group_215" data-name="Group 215" transform="translate(-139.27 -590.007)">
    <g id="Group_209" data-name="Group 209">
      <path id="Path_556" data-name="Path 556" d="M-10.573-17.676v2.539L-17.409.244-20.143-.879-13.6-15.137h-8.13v-2.539ZM3.548-2.953H-1.233L-2.147,0H-4.362L.015-12.727h2.3L6.695,0H4.462ZM2.968-4.8,1.14-10.67-.67-4.8Zm17.578-7.928V0H18.49V-9.369L15.625-2.531h-2.2l-2.9-6.838V0h-2V-12.727h2.531l3.5,8.244,3.428-8.244Z" transform="translate(161 608)"/>
      <path id="Path_557" data-name="Path 557" d="M-.012.317a7.873,7.873,0,0,1-3.21-.61A4.8,4.8,0,0,1-5.347-2.026a4.575,4.575,0,0,1-.745-2.588A4.316,4.316,0,0,1-5.1-7.336,5.86,5.86,0,0,1-2.478-9.2,4.286,4.286,0,0,1-4.614-10.84,4.385,4.385,0,0,1-5.432-13.4a4.328,4.328,0,0,1,.671-2.4,4.44,4.44,0,0,1,1.892-1.611,6.652,6.652,0,0,1,2.856-.574,6.735,6.735,0,0,1,2.869.574,4.427,4.427,0,0,1,1.9,1.611,4.328,4.328,0,0,1,.671,2.4,4.222,4.222,0,0,1-.818,2.527,4.347,4.347,0,0,1-2.161,1.6A5.164,5.164,0,0,1,5.09-7.532a4.48,4.48,0,0,1,1,2.869,4.563,4.563,0,0,1-.757,2.612A4.963,4.963,0,0,1,3.2-.305,7.739,7.739,0,0,1-.012.317ZM.11-10.3A4.277,4.277,0,0,0,1.9-11.45a2.47,2.47,0,0,0,.647-1.685,2.32,2.32,0,0,0-.684-1.77,2.624,2.624,0,0,0-1.88-.647,2.61,2.61,0,0,0-1.868.635,2.3,2.3,0,0,0-.671,1.758,2.41,2.41,0,0,0,.708,1.685A4.609,4.609,0,0,0,.11-10.3ZM-.012-2.148a3.524,3.524,0,0,0,2.344-.72A2.407,2.407,0,0,0,3.186-4.81a2.7,2.7,0,0,0-.879-1.917A6.439,6.439,0,0,0-.11-8.179,5.3,5.3,0,0,0-2.368-6.8a2.845,2.845,0,0,0-.818,1.965,2.45,2.45,0,0,0,.842,1.965A3.475,3.475,0,0,0-.012-2.148Z" transform="translate(284 608)"/>
      <path id="Path_558" data-name="Path 558" d="M-.159-17.993A6.377,6.377,0,0,1,3-17.236a5.236,5.236,0,0,1,2.1,2.148,6.728,6.728,0,0,1,.745,3.223A9.615,9.615,0,0,1,5.09-8.044,16.931,16.931,0,0,1,2.454-4.028L-1.135.317-3.43-1.44.232-5.591l.9-1.1A6.068,6.068,0,0,1-.793-6.4,5.314,5.314,0,0,1-3.552-7.1,4.738,4.738,0,0,1-5.4-9.094a6.5,6.5,0,0,1-.647-2.966,6.443,6.443,0,0,1,.732-3.113,5.1,5.1,0,0,1,2.063-2.087A6.3,6.3,0,0,1-.159-17.993Zm-2.93,5.859a3.612,3.612,0,0,0,.818,2.515,2.953,2.953,0,0,0,2.307.9,5.585,5.585,0,0,0,2.295-.513,5.569,5.569,0,0,0,.586-2.612A3.958,3.958,0,0,0,2.1-14.5a2.819,2.819,0,0,0-2.258-.952,2.719,2.719,0,0,0-2.161.879A3.584,3.584,0,0,0-3.088-12.134Z" transform="translate(407 608)"/>
      <path id="Path_559" data-name="Path 559" d="M-4.993-17.676V0H-7.9V-14.673l-3.857,1.343-.83-2.393,5.078-1.953ZM5.6.317A5.233,5.233,0,0,1,.977-1.9Q-.549-4.126-.549-8.838q0-4.736,1.514-6.946a5.212,5.212,0,0,1,4.614-2.209,5.268,5.268,0,0,1,4.651,2.209q1.526,2.209,1.526,6.946,0,4.712-1.526,6.934A5.233,5.233,0,0,1,5.6.317Zm0-2.588A2.522,2.522,0,0,0,8.02-3.845a12.223,12.223,0,0,0,.757-4.993,12.049,12.049,0,0,0-.769-4.993,2.545,2.545,0,0,0-2.429-1.575,2.5,2.5,0,0,0-2.393,1.575,12.223,12.223,0,0,0-.757,4.993,12.223,12.223,0,0,0,.757,4.993A2.522,2.522,0,0,0,5.6-2.271Z" transform="translate(530 608)"/>
      <path id="Path_560" data-name="Path 560" d="M-2.954-17.676V0H-5.859V-14.673L-9.717-13.33l-.83-2.393,5.078-1.953Zm11.206,0V0H5.347V-14.673L1.489-13.33l-.83-2.393,5.078-1.953Z" transform="translate(653 608)"/>
      <path id="Path_561" data-name="Path 561" d="M-19.214-17.676V0h-2.905V-14.673l-3.857,1.343-.83-2.393,5.078-1.953ZM-4.468-2.539V0H-15.454V-2.563L-9.546-9.4a15.35,15.35,0,0,0,1.587-2.112,3.018,3.018,0,0,0,.439-1.5,2.11,2.11,0,0,0-.732-1.7,2.992,2.992,0,0,0-2-.623,6.6,6.6,0,0,0-2.051.342,8.141,8.141,0,0,0-2,.977l-1.318-2.222a9.083,9.083,0,0,1,2.612-1.27,9.9,9.9,0,0,1,3-.488,6.44,6.44,0,0,1,2.844.6,4.5,4.5,0,0,1,1.9,1.672,4.6,4.6,0,0,1,.671,2.49,5.486,5.486,0,0,1-.635,2.515A15.061,15.061,0,0,1-7.373-7.764l-4.663,5.225ZM8.06-12.727a4.1,4.1,0,0,1,3.076,1.116,4.328,4.328,0,0,1,1.09,3.155A4.309,4.309,0,0,1,11.1-5.282,4.234,4.234,0,0,1,7.954-4.148H5.563V0H3.454V-12.727H8.06Zm0,6.7q1.986,0,1.986-2.391,0-2.426-2.092-2.426H5.563v4.816Zm17.93-6.7V0H23.933V-9.369L21.067-2.531h-2.2l-2.9-6.838V0h-2V-12.727H16.5L20-4.482l3.428-8.244Z" transform="translate(776 608)"/>
      <path id="Path_562" data-name="Path 562" d="M2.649-17.676V0H-.256V-14.673L-4.114-13.33l-.83-2.393L.134-17.676Z" transform="translate(899 608)"/>
      <path id="Path_563" data-name="Path 563" d="M5.261-2.539V0H-5.725V-2.563L.183-9.4A15.35,15.35,0,0,0,1.77-11.511a3.018,3.018,0,0,0,.439-1.5,2.11,2.11,0,0,0-.732-1.7,2.992,2.992,0,0,0-2-.623,6.6,6.6,0,0,0-2.051.342,8.141,8.141,0,0,0-2,.977L-5.9-16.235A9.083,9.083,0,0,1-3.284-17.5a9.9,9.9,0,0,1,3-.488,6.44,6.44,0,0,1,2.844.6,4.5,4.5,0,0,1,1.9,1.672,4.6,4.6,0,0,1,.671,2.49A5.486,5.486,0,0,1,4.5-10.718,15.061,15.061,0,0,1,2.356-7.764L-2.307-2.539Z" transform="translate(1023 608)"/>
      <path id="Path_564" data-name="Path 564" d="M.757-10.937A5.146,5.146,0,0,1,4.138-9.216,5.413,5.413,0,0,1,5.4-5.542a6.012,6.012,0,0,1-.769,3.064A5.246,5.246,0,0,1,2.441-.415a7.077,7.077,0,0,1-3.3.732A10.419,10.419,0,0,1-3.784-.11,8.236,8.236,0,0,1-6.25-1.245l1.1-2.393a10.33,10.33,0,0,0,2.2.94,7.479,7.479,0,0,0,2.1.33A3.326,3.326,0,0,0,1.563-3.2a3.117,3.117,0,0,0,.854-2.344A2.977,2.977,0,0,0,1.6-7.764,3.079,3.079,0,0,0-.659-8.569a6.93,6.93,0,0,0-1.587.2l-1.123-1.44L1.66-15.137h-7.5v-2.539H4.834v2.539Z" transform="translate(1146 608)"/>
      <path id="Path_565" data-name="Path 565" d="M6.091-5.981v2.49H3.943V0H1.111V-3.491H-6.58v-2.49L-.134-17.676H3.943V-5.981Zm-4.98,0v-9.082L-3.577-5.981Z" transform="translate(1270 608)"/>
      <path id="Path_566" data-name="Path 566" d="M-.2-11.4a5.9,5.9,0,0,1,2.942.708,4.923,4.923,0,0,1,1.953,2,6.192,6.192,0,0,1,.7,2.979,6.285,6.285,0,0,1-.781,3.174,5.336,5.336,0,0,1-2.2,2.112,6.981,6.981,0,0,1-3.3.745,9.924,9.924,0,0,1-2.8-.4A7.34,7.34,0,0,1-5.957-1.147l1.074-2.368a9.745,9.745,0,0,0,2.051.867,7.024,7.024,0,0,0,1.953.305A3.258,3.258,0,0,0,1.55-3.223,3.293,3.293,0,0,0,2.417-5.64a3.177,3.177,0,0,0-.793-2.307A2.968,2.968,0,0,0-.61-8.765a5.832,5.832,0,0,0-1.416.183,5.877,5.877,0,0,0-1.367.525l-1.782-.952.464-8.667h9.3v2.539H-2.124l-.317,4.1A7.058,7.058,0,0,1-.2-11.4Z" transform="translate(1394 608)"/>
      <path id="Path_567" data-name="Path 567" d="M.793-11.279a5.314,5.314,0,0,1,2.759.708A4.738,4.738,0,0,1,5.4-8.582a6.5,6.5,0,0,1,.647,2.966A6.443,6.443,0,0,1,5.31-2.5,5.1,5.1,0,0,1,3.247-.415,6.3,6.3,0,0,1,.159.317,6.377,6.377,0,0,1-3-.439,5.236,5.236,0,0,1-5.1-2.588a6.728,6.728,0,0,1-.745-3.223A9.615,9.615,0,0,1-5.09-9.631a17.249,17.249,0,0,1,2.612-4.016l3.613-4.346,2.271,1.758-3.638,4.15q-.635.732-.928,1.1A6.936,6.936,0,0,1,.793-11.279ZM.159-2.222A2.727,2.727,0,0,0,2.307-3.1a3.548,3.548,0,0,0,.781-2.441,3.578,3.578,0,0,0-.83-2.515,2.961,2.961,0,0,0-2.295-.9,5.527,5.527,0,0,0-2.319.513,5.582,5.582,0,0,0-.562,2.612A3.958,3.958,0,0,0-2.1-3.174,2.819,2.819,0,0,0,.159-2.222Z" transform="translate(1515 608)"/>
      <path id="Path_568" data-name="Path 568" d="M5.383-17.676v2.539L-1.453.244-4.187-.879,2.356-15.137h-8.13v-2.539Z" transform="translate(1638 608)"/>
      <path id="Path_569" data-name="Path 569" d="M-.012.317a7.873,7.873,0,0,1-3.21-.61A4.8,4.8,0,0,1-5.347-2.026a4.575,4.575,0,0,1-.745-2.588A4.316,4.316,0,0,1-5.1-7.336,5.86,5.86,0,0,1-2.478-9.2,4.286,4.286,0,0,1-4.614-10.84,4.385,4.385,0,0,1-5.432-13.4a4.328,4.328,0,0,1,.671-2.4,4.44,4.44,0,0,1,1.892-1.611,6.652,6.652,0,0,1,2.856-.574,6.735,6.735,0,0,1,2.869.574,4.427,4.427,0,0,1,1.9,1.611,4.328,4.328,0,0,1,.671,2.4,4.222,4.222,0,0,1-.818,2.527,4.347,4.347,0,0,1-2.161,1.6A5.164,5.164,0,0,1,5.09-7.532a4.48,4.48,0,0,1,1,2.869,4.563,4.563,0,0,1-.757,2.612A4.963,4.963,0,0,1,3.2-.305,7.739,7.739,0,0,1-.012.317ZM.11-10.3A4.277,4.277,0,0,0,1.9-11.45a2.47,2.47,0,0,0,.647-1.685,2.32,2.32,0,0,0-.684-1.77,2.624,2.624,0,0,0-1.88-.647,2.61,2.61,0,0,0-1.868.635,2.3,2.3,0,0,0-.671,1.758,2.41,2.41,0,0,0,.708,1.685A4.609,4.609,0,0,0,.11-10.3ZM-.012-2.148a3.524,3.524,0,0,0,2.344-.72A2.407,2.407,0,0,0,3.186-4.81a2.7,2.7,0,0,0-.879-1.917A6.439,6.439,0,0,0-.11-8.179,5.3,5.3,0,0,0-2.368-6.8a2.845,2.845,0,0,0-.818,1.965,2.45,2.45,0,0,0,.842,1.965A3.475,3.475,0,0,0-.012-2.148Z" transform="translate(1761 608)"/>
      <line id="Line_104" data-name="Line 104" y2="384" transform="translate(160.5 632)" fill="none" stroke="#d7d2cb" stroke-width="1"/>
      <line id="Line_105" data-name="Line 105" y2="384" transform="translate(283.5 632)" fill="none" stroke="#d7d2cb" stroke-width="1"/>
      <line id="Line_106" data-name="Line 106" y2="384" transform="translate(406.5 632)" fill="none" stroke="#d7d2cb" stroke-width="1"/>
      <line id="Line_107" data-name="Line 107" y2="384" transform="translate(529.5 632)" fill="none" stroke="#d7d2cb" stroke-width="1"/>
      <line id="Line_108" data-name="Line 108" y2="384" transform="translate(652.5 632)" fill="none" stroke="#d7d2cb" stroke-width="1"/>
      <line id="Line_109" data-name="Line 109" y2="384" transform="translate(775.5 632)" fill="none" stroke="#d7d2cb" stroke-width="1"/>
      <line id="Line_110" data-name="Line 110" y2="384" transform="translate(898.5 632)" fill="none" stroke="#d7d2cb" stroke-width="1"/>
      <line id="Line_111" data-name="Line 111" y2="384" transform="translate(1022.5 632)" fill="none" stroke="#d7d2cb" stroke-width="1"/>
      <line id="Line_112" data-name="Line 112" y2="384" transform="translate(1145.5 632)" fill="none" stroke="#d7d2cb" stroke-width="1"/>
      <line id="Line_113" data-name="Line 113" y2="384" transform="translate(1268.5 632)" fill="none" stroke="#d7d2cb" stroke-width="1"/>
      <line id="Line_114" data-name="Line 114" y2="384" transform="translate(1391.5 632)" fill="none" stroke="#d7d2cb" stroke-width="1"/>
      <line id="Line_115" data-name="Line 115" y2="384" transform="translate(1514.5 632)" fill="none" stroke="#d7d2cb" stroke-width="1"/>
      <line id="Line_116" data-name="Line 116" y2="384" transform="translate(1637.5 632)" fill="none" stroke="#d7d2cb" stroke-width="1"/>
      <line id="Line_117" data-name="Line 117" y2="384" transform="translate(1760.5 632)" fill="none" stroke="#d7d2cb" stroke-width="1"/>
      <g id="Group_146" data-name="Group 146" transform="translate(16399 23360)">
        <rect id="Rectangle_926" data-name="Rectangle 926" width="1171" height="64" transform="translate(-16239 -22712)" fill="#1d24a0"/>
        <g id="Group_188" data-name="Group 188" transform="translate(-16911 -23352)">
          <path id="Path_570" data-name="Path 570" d="M-49.111-5.059h-2.031V0h-2.344V-14.141h4.941a4.6,4.6,0,0,1,3.389,1.191,4.494,4.494,0,0,1,1.2,3.34,4.961,4.961,0,0,1-.7,2.734,3.76,3.76,0,0,1-2.031,1.543L-43.135,0h-2.812ZM-51.143-7.07h2.6q2.168,0,2.168-2.5t-2.246-2.5h-2.52Zm18.184,1.328a6.549,6.549,0,0,1-.1,1.152H-39.7q.293,2.734,2.852,2.734a5.2,5.2,0,0,0,2.6-.684l.84,1.738A5.827,5.827,0,0,1-35.1-.039,7.249,7.249,0,0,1-37.08.234a4.623,4.623,0,0,1-3.652-1.455,5.934,5.934,0,0,1-1.289-4.072A6.255,6.255,0,0,1-40.811-9.4a4.177,4.177,0,0,1,3.4-1.455,4.117,4.117,0,0,1,3.281,1.348A5.561,5.561,0,0,1-32.959-5.742Zm-4.512-3.086q-1.934,0-2.207,2.617h4.414a3.073,3.073,0,0,0-.615-1.934A1.97,1.97,0,0,0-37.471-8.828Zm15.078-1.777V-.293A4.479,4.479,0,0,1-23.643,3.1a4.9,4.9,0,0,1-3.535,1.2,8.3,8.3,0,0,1-1.787-.2,6.461,6.461,0,0,1-1.572-.547l.664-1.855a5.972,5.972,0,0,0,2.48.566q2.7,0,2.7-2.559V-1.738A3.19,3.19,0,0,1-27.451-.332a3.375,3.375,0,0,1-2.881-1.387,6.432,6.432,0,0,1-1.025-3.887,6.3,6.3,0,0,1,1.045-3.877,3.476,3.476,0,0,1,2.939-1.377,3.642,3.642,0,0,1,1.67.381,3.218,3.218,0,0,1,1.221,1.064v-1.191ZM-26.729-2.48a2.368,2.368,0,0,0,1.074-.244,3.391,3.391,0,0,0,.957-.752V-7.793a2.837,2.837,0,0,0-.967-.723,2.769,2.769,0,0,0-1.162-.254q-2.168,0-2.168,3.105Q-28.994-2.48-26.729-2.48Zm7.422-8.125H-17V0h-2.3Zm1.152-1.523A1.433,1.433,0,0,1-19.2-12.5a1.327,1.327,0,0,1-.381-1,1.366,1.366,0,0,1,.371-1.025,1.45,1.45,0,0,1,1.055-.361,1.433,1.433,0,0,1,1.045.371,1.327,1.327,0,0,1,.381,1A1.366,1.366,0,0,1-17.1-12.49,1.45,1.45,0,0,1-18.154-12.129ZM-11.084.234a7.894,7.894,0,0,1-2.08-.273A6.33,6.33,0,0,1-14.932-.8l.8-1.875a5.773,5.773,0,0,0,3.047.879q1.875,0,1.875-1.172a.982.982,0,0,0-.322-.762A2.392,2.392,0,0,0-10.557-4.2l-1.387-.332a4.144,4.144,0,0,1-2.139-1.045,2.714,2.714,0,0,1-.674-1.943A3.043,3.043,0,0,1-13.73-9.961a4.325,4.325,0,0,1,2.9-.879,7.705,7.705,0,0,1,1.875.234,7.307,7.307,0,0,1,1.7.645l-.879,1.855a5.932,5.932,0,0,0-2.734-.7q-1.68,0-1.68,1.074a.9.9,0,0,0,.332.713,2.567,2.567,0,0,0,1.035.459l1.387.332A4.161,4.161,0,0,1-7.646-5.156a2.8,2.8,0,0,1,.664,1.973A3.1,3.1,0,0,1-8.057-.664,4.589,4.589,0,0,1-11.084.234ZM-.771.156Q-4.326.156-4.326-3.3V-8.613h-1.68v-1.992h1.68v-2.949h2.3v2.949H.947v1.992H-2.021v4.922a1.989,1.989,0,0,0,.381,1.357,1.6,1.6,0,0,0,1.24.42A4.391,4.391,0,0,0,.732-2.07L1.084-.117A6.211,6.211,0,0,1-.771.156ZM7.9-10.82a2.759,2.759,0,0,1,1.211.254L8.643-8.379a3.991,3.991,0,0,0-1.27-.2,2.558,2.558,0,0,0-1.191.254,2.331,2.331,0,0,0-.859.82V0h-2.3V-10.605h2.09v1.621A3.1,3.1,0,0,1,7.9-10.82Zm6.211-.039a4.451,4.451,0,0,1,2.959.9A3.162,3.162,0,0,1,18.135-7.4V0h-2.07V-1.484A3.38,3.38,0,0,1,12.92.215a3.223,3.223,0,0,1-2.383-.84A3.168,3.168,0,0,1,9.7-2.969a3.016,3.016,0,0,1,1.475-2.783A9.507,9.507,0,0,1,15.85-6.66v-.488q0-1.641-2.129-1.641a6.058,6.058,0,0,0-2.48.547l-.586-1.8A7.875,7.875,0,0,1,14.111-10.859Zm-.625,9.1A3.056,3.056,0,0,0,15.85-2.852V-5.078a7.541,7.541,0,0,0-2.988.5,1.509,1.509,0,0,0-.937,1.436Q11.924-1.758,13.486-1.758ZM25.029.156q-3.555,0-3.555-3.457V-8.613h-1.68v-1.992h1.68v-2.949h2.3v2.949h2.969v1.992H23.779v4.922a1.989,1.989,0,0,0,.381,1.357,1.6,1.6,0,0,0,1.24.42,4.391,4.391,0,0,0,1.133-.156l.352,1.953A6.211,6.211,0,0,1,25.029.156Zm3.828-10.762h2.3V0h-2.3Zm1.152-1.523a1.433,1.433,0,0,1-1.045-.371,1.327,1.327,0,0,1-.381-1,1.366,1.366,0,0,1,.371-1.025,1.45,1.45,0,0,1,1.055-.361,1.433,1.433,0,0,1,1.045.371,1.327,1.327,0,0,1,.381,1,1.366,1.366,0,0,1-.371,1.025A1.45,1.45,0,0,1,30.01-12.129ZM38.193.254a4.231,4.231,0,0,1-3.418-1.406,6.258,6.258,0,0,1-1.191-4.141,6.263,6.263,0,0,1,1.2-4.15,4.246,4.246,0,0,1,3.428-1.416,4.217,4.217,0,0,1,3.418,1.416,6.3,6.3,0,0,1,1.191,4.15,6.222,6.222,0,0,1-1.2,4.141A4.261,4.261,0,0,1,38.193.254Zm0-2.051a1.887,1.887,0,0,0,1.7-.879,4.883,4.883,0,0,0,.566-2.617q0-3.5-2.246-3.5-2.266,0-2.266,3.5a4.883,4.883,0,0,0,.566,2.617A1.869,1.869,0,0,0,38.193-1.8Zm12.3-9.062a3.059,3.059,0,0,1,2.363.908A3.614,3.614,0,0,1,53.7-7.4V0H51.4V-7.109q0-1.582-1.738-1.582a3.364,3.364,0,0,0-2.148.8V0h-2.3V-10.605h2.09v1.289A4.048,4.048,0,0,1,50.5-10.859Z" transform="translate(1286 677)" fill="#fff"/>
          <g id="Group_182" data-name="Group 182" transform="translate(607.25 717.254)">
            <path id="Path_476" data-name="Path 476" d="M577.147-48.293a.749.749,0,0,0-1.06,0,.749.749,0,0,0,0,1.06l5.683,5.683a.747.747,0,0,0,.53.22.749.749,0,0,0,.53-.22l13.84-13.84a.749.749,0,0,0,0-1.06.75.75,0,0,0-1.061,0L582.3-43.141Z" fill="#fff"/>
            <path id="Path_477" data-name="Path 477" d="M595.98-48.891a.75.75,0,0,0-.75.75v14.369H569.25v-25.98h20.4a.75.75,0,0,0,.75-.75.75.75,0,0,0-.75-.75H568.5a.75.75,0,0,0-.75.75v27.48a.75.75,0,0,0,.75.75h27.48a.75.75,0,0,0,.75-.75V-48.141A.75.75,0,0,0,595.98-48.891Z" fill="#fff"/>
          </g>
        </g>
      </g>
      <g id="Group_151" data-name="Group 151" transform="translate(16399 23347)">
        <rect id="Rectangle_922" data-name="Rectangle 922" width="831" height="64" transform="translate(-15777 -22483)" fill="#97d653"/>
        <g id="Group_192" data-name="Group 192" transform="translate(-22 691)">
          <path id="Path_576" data-name="Path 576" d="M10.586-2.09V0H1.641V-14.141h8.691v2.09H3.984v3.77H8.672v2.109H3.984V-2.09ZM18.262,0,16.133-3.613,14.043,0h-2.5l3.379-5.391L11.68-10.605h2.559l1.973,3.418,2.051-3.418h2.5L17.4-5.41,20.8,0ZM27.91-10.859a3.084,3.084,0,0,1,2.383.908,3.614,3.614,0,0,1,.84,2.549V0h-2.3V-7.109q0-1.582-1.758-1.582a3.236,3.236,0,0,0-1.133.2,3.7,3.7,0,0,0-1.035.605V0H22.6V-15.039h2.3v5.488A4.011,4.011,0,0,1,27.91-10.859Zm6.211.254h2.3V0h-2.3Zm1.152-1.523a1.433,1.433,0,0,1-1.045-.371,1.327,1.327,0,0,1-.381-1,1.366,1.366,0,0,1,.371-1.025,1.45,1.45,0,0,1,1.055-.361,1.433,1.433,0,0,1,1.045.371,1.327,1.327,0,0,1,.381,1,1.366,1.366,0,0,1-.371,1.025A1.45,1.45,0,0,1,35.273-12.129Zm9.3,1.27a3.272,3.272,0,0,1,2.852,1.465,7.126,7.126,0,0,1,1.016,4.1A6.975,6.975,0,0,1,47.4-1.2,3.365,3.365,0,0,1,44.492.254a3.722,3.722,0,0,1-1.67-.371A3.139,3.139,0,0,1,41.6-1.172V0h-2.09V-15.039h2.3v5.566A3.2,3.2,0,0,1,44.57-10.859Zm-.625,9.043q2.129,0,2.129-3.4,0-3.477-2.227-3.477a2.387,2.387,0,0,0-1.064.234,3.53,3.53,0,0,0-.967.742v4.922a2.837,2.837,0,0,0,.967.723A2.769,2.769,0,0,0,43.945-1.816Zm6.914-8.789h2.3V0h-2.3Zm1.152-1.523a1.433,1.433,0,0,1-1.045-.371,1.327,1.327,0,0,1-.381-1,1.366,1.366,0,0,1,.371-1.025,1.45,1.45,0,0,1,1.055-.361,1.433,1.433,0,0,1,1.045.371,1.327,1.327,0,0,1,.381,1,1.366,1.366,0,0,1-.371,1.025A1.45,1.45,0,0,1,52.012-12.129ZM60.234.156Q56.68.156,56.68-3.3V-8.613H55v-1.992h1.68v-2.949h2.3v2.949h2.969v1.992H58.984v4.922a1.989,1.989,0,0,0,.381,1.357,1.6,1.6,0,0,0,1.24.42,4.391,4.391,0,0,0,1.133-.156L62.09-.117A6.211,6.211,0,0,1,60.234.156Zm3.828-10.762h2.3V0h-2.3Zm1.152-1.523A1.433,1.433,0,0,1,64.17-12.5a1.327,1.327,0,0,1-.381-1,1.366,1.366,0,0,1,.371-1.025,1.45,1.45,0,0,1,1.055-.361,1.433,1.433,0,0,1,1.045.371,1.327,1.327,0,0,1,.381,1,1.366,1.366,0,0,1-.371,1.025A1.45,1.45,0,0,1,65.215-12.129ZM73.4.254A4.231,4.231,0,0,1,69.98-1.152a6.258,6.258,0,0,1-1.191-4.141,6.263,6.263,0,0,1,1.2-4.15,4.246,4.246,0,0,1,3.428-1.416,4.217,4.217,0,0,1,3.418,1.416,6.3,6.3,0,0,1,1.191,4.15,6.222,6.222,0,0,1-1.2,4.141A4.261,4.261,0,0,1,73.4.254Zm0-2.051a1.887,1.887,0,0,0,1.7-.879,4.883,4.883,0,0,0,.566-2.617q0-3.5-2.246-3.5-2.266,0-2.266,3.5a4.883,4.883,0,0,0,.566,2.617A1.869,1.869,0,0,0,73.4-1.8Zm12.3-9.062a3.059,3.059,0,0,1,2.363.908,3.614,3.614,0,0,1,.84,2.549V0H86.6V-7.109q0-1.582-1.738-1.582a3.364,3.364,0,0,0-2.148.8V0h-2.3V-10.605H82.5v1.289A4.048,4.048,0,0,1,85.7-10.859Zm20.859-3.281V0h-2.344V-6.133H98.457V0H96.113V-14.141h2.344v5.918h5.762v-5.918Zm6.66,3.281a4.451,4.451,0,0,1,2.959.9A3.162,3.162,0,0,1,117.246-7.4V0h-2.07V-1.484a3.38,3.38,0,0,1-3.145,1.7,3.223,3.223,0,0,1-2.383-.84,3.168,3.168,0,0,1-.84-2.344,3.016,3.016,0,0,1,1.475-2.783,9.507,9.507,0,0,1,4.678-.908v-.488q0-1.641-2.129-1.641a6.058,6.058,0,0,0-2.48.547l-.586-1.8A7.875,7.875,0,0,1,113.223-10.859Zm-.625,9.1a3.056,3.056,0,0,0,2.363-1.094V-5.078a7.541,7.541,0,0,0-2.988.5,1.509,1.509,0,0,0-.937,1.436Q111.035-1.758,112.6-1.758Zm10.2,1.895a2.374,2.374,0,0,1-2.676-2.7v-12.48h2.3V-2.988a1.154,1.154,0,0,0,.234.8.966.966,0,0,0,.742.254,5.5,5.5,0,0,0,.723-.059l.156,1.953A6.1,6.1,0,0,1,122.793.137Zm6.25,0a2.374,2.374,0,0,1-2.676-2.7v-12.48h2.3V-2.988a1.154,1.154,0,0,0,.234.8.966.966,0,0,0,.742.254,5.5,5.5,0,0,0,.723-.059l.156,1.953A6.1,6.1,0,0,1,129.043.137Zm6.445.1a7.894,7.894,0,0,1-2.08-.273A6.33,6.33,0,0,1,131.641-.8l.8-1.875a5.773,5.773,0,0,0,3.047.879q1.875,0,1.875-1.172a.982.982,0,0,0-.322-.762,2.392,2.392,0,0,0-1.025-.469l-1.387-.332a4.144,4.144,0,0,1-2.139-1.045,2.714,2.714,0,0,1-.674-1.943,3.043,3.043,0,0,1,1.025-2.441,4.325,4.325,0,0,1,2.9-.879,7.705,7.705,0,0,1,1.875.234,7.307,7.307,0,0,1,1.7.645l-.879,1.855a5.932,5.932,0,0,0-2.734-.7q-1.68,0-1.68,1.074a.9.9,0,0,0,.332.713,2.567,2.567,0,0,0,1.035.459l1.387.332a4.161,4.161,0,0,1,2.148,1.074,2.8,2.8,0,0,1,.664,1.973,3.1,3.1,0,0,1-1.074,2.52A4.589,4.589,0,0,1,135.488.234Zm13.965-11.094a4.451,4.451,0,0,1,2.959.9A3.162,3.162,0,0,1,153.477-7.4V0h-2.07V-1.484a3.38,3.38,0,0,1-3.145,1.7,3.223,3.223,0,0,1-2.383-.84,3.168,3.168,0,0,1-.84-2.344,3.016,3.016,0,0,1,1.475-2.783,9.507,9.507,0,0,1,4.678-.908v-.488q0-1.641-2.129-1.641a6.058,6.058,0,0,0-2.48.547l-.586-1.8A7.875,7.875,0,0,1,149.453-10.859Zm-.625,9.1a3.056,3.056,0,0,0,2.363-1.094V-5.078a7.541,7.541,0,0,0-2.988.5,1.509,1.509,0,0,0-.937,1.436Q147.266-1.758,148.828-1.758Zm12.852-9.1a3.059,3.059,0,0,1,2.363.908,3.614,3.614,0,0,1,.84,2.549V0h-2.3V-7.109q0-1.582-1.738-1.582a3.364,3.364,0,0,0-2.148.8V0h-2.3V-10.605h2.09v1.289A4.048,4.048,0,0,1,161.68-10.859ZM174,0V-1.465A3.251,3.251,0,0,1,171.035.254,3.279,3.279,0,0,1,168.184-1.2a7.118,7.118,0,0,1-1.016-4.111A6.984,6.984,0,0,1,168.2-9.395a3.358,3.358,0,0,1,2.91-1.465,3.779,3.779,0,0,1,1.5.293,3.184,3.184,0,0,1,1.172.859v-5.332h2.3V0Zm-2.246-1.895a2.387,2.387,0,0,0,1.064-.234,3.389,3.389,0,0,0,.967-.762v-4.9a2.837,2.837,0,0,0-.967-.723,2.769,2.769,0,0,0-1.162-.254q-2.129,0-2.129,3.4Q169.531-1.895,171.758-1.895ZM189.043.234a6.122,6.122,0,0,1-4.756-1.846A7.371,7.371,0,0,1,182.6-6.777a9.8,9.8,0,0,1,.771-4.043,5.964,5.964,0,0,1,2.207-2.646,6.069,6.069,0,0,1,3.369-.928,7.567,7.567,0,0,1,2.061.283,6.477,6.477,0,0,1,1.787.791l-.8,1.816a6.918,6.918,0,0,0-3.086-.762,3.35,3.35,0,0,0-2.871,1.387,6.554,6.554,0,0,0-1.016,3.926,5.823,5.823,0,0,0,1.045,3.77,3.777,3.777,0,0,0,3.1,1.27,5.848,5.848,0,0,0,2.949-.684l.8,1.777a4.688,4.688,0,0,1-1.65.771A8.3,8.3,0,0,1,189.043.234Zm9.551.02a4.231,4.231,0,0,1-3.418-1.406,6.258,6.258,0,0,1-1.191-4.141,6.263,6.263,0,0,1,1.2-4.15,4.246,4.246,0,0,1,3.428-1.416,4.217,4.217,0,0,1,3.418,1.416,6.3,6.3,0,0,1,1.191,4.15,6.222,6.222,0,0,1-1.2,4.141A4.261,4.261,0,0,1,198.594.254Zm0-2.051a1.887,1.887,0,0,0,1.7-.879,4.882,4.882,0,0,0,.566-2.617q0-3.5-2.246-3.5-2.266,0-2.266,3.5a4.882,4.882,0,0,0,.566,2.617A1.869,1.869,0,0,0,198.594-1.8ZM211.777,0V-1.465A3.251,3.251,0,0,1,208.809.254,3.279,3.279,0,0,1,205.957-1.2a7.118,7.118,0,0,1-1.016-4.111,6.984,6.984,0,0,1,1.035-4.082,3.358,3.358,0,0,1,2.91-1.465,3.779,3.779,0,0,1,1.5.293,3.184,3.184,0,0,1,1.172.859v-5.332h2.3V0Zm-2.246-1.895a2.387,2.387,0,0,0,1.064-.234,3.389,3.389,0,0,0,.967-.762v-4.9a2.837,2.837,0,0,0-.967-.723,2.769,2.769,0,0,0-1.162-.254q-2.129,0-2.129,3.4Q207.3-1.895,209.531-1.895Zm15.742-3.848a6.549,6.549,0,0,1-.1,1.152h-6.641q.293,2.734,2.852,2.734a5.2,5.2,0,0,0,2.6-.684l.84,1.738a5.827,5.827,0,0,1-1.689.762,7.249,7.249,0,0,1-1.982.273A4.623,4.623,0,0,1,217.5-1.221a5.934,5.934,0,0,1-1.289-4.072A6.255,6.255,0,0,1,217.422-9.4a4.177,4.177,0,0,1,3.4-1.455A4.117,4.117,0,0,1,224.1-9.512,5.561,5.561,0,0,1,225.273-5.742Zm-4.512-3.086q-1.934,0-2.207,2.617h4.414a3.073,3.073,0,0,0-.615-1.934A1.97,1.97,0,0,0,220.762-8.828ZM240-2.109V0h-8.2V-14.141h2.344V-2.109Zm5.527-8.75a4.451,4.451,0,0,1,2.959.9A3.162,3.162,0,0,1,249.551-7.4V0h-2.07V-1.484a3.38,3.38,0,0,1-3.145,1.7,3.223,3.223,0,0,1-2.383-.84,3.168,3.168,0,0,1-.84-2.344,3.016,3.016,0,0,1,1.475-2.783,9.507,9.507,0,0,1,4.678-.908v-.488q0-1.641-2.129-1.641a6.058,6.058,0,0,0-2.48.547l-.586-1.8A7.875,7.875,0,0,1,245.527-10.859Zm-.625,9.1a3.056,3.056,0,0,0,2.363-1.094V-5.078a7.541,7.541,0,0,0-2.988.5,1.509,1.509,0,0,0-.937,1.436Q243.34-1.758,244.9-1.758Zm12.617-9.1a3.272,3.272,0,0,1,2.852,1.465,7.126,7.126,0,0,1,1.016,4.1A6.975,6.975,0,0,1,260.352-1.2a3.365,3.365,0,0,1-2.91,1.455,3.722,3.722,0,0,1-1.67-.371,3.139,3.139,0,0,1-1.221-1.055V0h-2.09V-15.039h2.3v5.566A3.2,3.2,0,0,1,257.52-10.859Zm-.625,9.043q2.129,0,2.129-3.4,0-3.477-2.227-3.477a2.387,2.387,0,0,0-1.064.234,3.53,3.53,0,0,0-.967.742v4.922a2.837,2.837,0,0,0,.967.723A2.769,2.769,0,0,0,256.895-1.816Z" transform="translate(-15441 -23135)"/>
          <path id="Path_499" data-name="Path 499" d="M4670.05-53.3l-9.332-9.333a.768.768,0,0,0-1-.039l-.773-.772a10.277,10.277,0,0,0,1.715-5.689,10.348,10.348,0,0,0-10.336-10.337,10.349,10.349,0,0,0-10.336,10.337,10.348,10.348,0,0,0,10.336,10.336,10.266,10.266,0,0,0,5.885-1.85l.741.742a.745.745,0,0,0,.039,1l9.332,9.332a.75.75,0,0,0,.531.219.749.749,0,0,0,.53-.219l2.669-2.669a.751.751,0,0,0,.22-.53A.751.751,0,0,0,4670.05-53.3ZM4641.487-69.13a8.847,8.847,0,0,1,8.836-8.837,8.847,8.847,0,0,1,8.836,8.837,8.8,8.8,0,0,1-2.411,6.047l-.379.379a8.792,8.792,0,0,1-6.046,2.41A8.847,8.847,0,0,1,4641.487-69.13Zm16.313,7.116.225-.225.621.62-.646.646-.621-.62.057-.057Q4657.624-61.829,4657.8-62.014Zm9.051,10.855-8.272-8.272,1.609-1.608,8.271,8.272Z" transform="translate(-20139.986 -23077.533)" fill="#1a1a1a"/>
        </g>
      </g>
      <g id="Group_152" data-name="Group 152" transform="translate(16461 23198)">
        <rect id="Rectangle_921" data-name="Rectangle 921" width="339" height="64" transform="translate(-15624 -22406)" fill="#00aede"/>
        <g id="Group_193" data-name="Group 193" transform="translate(-162 691)">
          <path id="Path_574" data-name="Path 574" d="M-72.1-12.031h-3.594V0h-2.344V-12.031h-3.574v-2.109H-72.1Zm8.926,6.289a6.549,6.549,0,0,1-.1,1.152h-6.641q.293,2.734,2.852,2.734a5.2,5.2,0,0,0,2.6-.684l.84,1.738a5.827,5.827,0,0,1-1.689.762,7.249,7.249,0,0,1-1.982.273,4.623,4.623,0,0,1-3.652-1.455,5.934,5.934,0,0,1-1.289-4.072A6.255,6.255,0,0,1-71.025-9.4a4.177,4.177,0,0,1,3.4-1.455,4.117,4.117,0,0,1,3.281,1.348A5.561,5.561,0,0,1-63.174-5.742Zm-4.512-3.086q-1.934,0-2.207,2.617h4.414a3.073,3.073,0,0,0-.615-1.934A1.97,1.97,0,0,0-67.686-8.828ZM-56.65.234a4.759,4.759,0,0,1-3.691-1.426,5.7,5.7,0,0,1-1.309-4,6.892,6.892,0,0,1,.605-2.979,4.616,4.616,0,0,1,1.719-1.982,4.725,4.725,0,0,1,2.578-.7,5.957,5.957,0,0,1,1.689.244,4.782,4.782,0,0,1,1.455.693l-.84,1.8a5.54,5.54,0,0,0-2.344-.625,2.15,2.15,0,0,0-1.846.9,4.218,4.218,0,0,0-.654,2.52q0,3.457,2.754,3.457a4.814,4.814,0,0,0,2.246-.605l.8,1.777A5.181,5.181,0,0,1-56.65.234Zm10.469-11.094a3.084,3.084,0,0,1,2.383.908,3.614,3.614,0,0,1,.84,2.549V0h-2.3V-7.109q0-1.582-1.758-1.582a3.236,3.236,0,0,0-1.133.2,3.7,3.7,0,0,0-1.035.605V0h-2.3V-15.039h2.3v5.488A4.011,4.011,0,0,1-46.182-10.859Zm11.465,0a3.059,3.059,0,0,1,2.363.908,3.614,3.614,0,0,1,.84,2.549V0h-2.3V-7.109q0-1.582-1.738-1.582a3.364,3.364,0,0,0-2.148.8V0h-2.3V-10.605h2.09v1.289A4.048,4.048,0,0,1-34.717-10.859Zm6.191.254h2.3V0h-2.3Zm1.152-1.523a1.433,1.433,0,0,1-1.045-.371,1.327,1.327,0,0,1-.381-1,1.366,1.366,0,0,1,.371-1.025,1.45,1.45,0,0,1,1.055-.361,1.433,1.433,0,0,1,1.045.371,1.327,1.327,0,0,1,.381,1,1.366,1.366,0,0,1-.371,1.025A1.45,1.45,0,0,1-27.373-12.129Zm8.5,12.363a4.759,4.759,0,0,1-3.691-1.426,5.7,5.7,0,0,1-1.309-4,6.892,6.892,0,0,1,.605-2.979,4.616,4.616,0,0,1,1.719-1.982,4.725,4.725,0,0,1,2.578-.7,5.957,5.957,0,0,1,1.689.244,4.782,4.782,0,0,1,1.455.693l-.84,1.8a5.54,5.54,0,0,0-2.344-.625,2.15,2.15,0,0,0-1.846.9,4.218,4.218,0,0,0-.654,2.52q0,3.457,2.754,3.457a4.814,4.814,0,0,0,2.246-.605l.8,1.777A5.181,5.181,0,0,1-18.877.234Zm8.457-11.094a4.451,4.451,0,0,1,2.959.9A3.162,3.162,0,0,1-6.4-7.4V0h-2.07V-1.484a3.38,3.38,0,0,1-3.145,1.7,3.223,3.223,0,0,1-2.383-.84,3.168,3.168,0,0,1-.84-2.344,3.016,3.016,0,0,1,1.475-2.783A9.507,9.507,0,0,1-8.682-6.66v-.488q0-1.641-2.129-1.641a6.058,6.058,0,0,0-2.48.547l-.586-1.8A7.875,7.875,0,0,1-10.42-10.859Zm-.625,9.1A3.056,3.056,0,0,0-8.682-2.852V-5.078a7.541,7.541,0,0,0-2.988.5,1.509,1.509,0,0,0-.937,1.436Q-12.607-1.758-11.045-1.758ZM-.85.137a2.374,2.374,0,0,1-2.676-2.7v-12.48h2.3V-2.988a1.154,1.154,0,0,0,.234.8.966.966,0,0,0,.742.254,5.5,5.5,0,0,0,.723-.059L.635-.039A6.1,6.1,0,0,1-.85.137Zm11.465.1A9.419,9.419,0,0,1,8.164-.088,7.545,7.545,0,0,1,6.045-1l.762-1.875a7.617,7.617,0,0,0,3.809,1.055A3.313,3.313,0,0,0,12.588-2.3a1.659,1.659,0,0,0,.664-1.426,1.77,1.77,0,0,0-.479-1.279,3.2,3.2,0,0,0-1.514-.771l-1.6-.449A5.328,5.328,0,0,1,7.021-7.676a3.661,3.661,0,0,1-.82-2.5,3.95,3.95,0,0,1,1.23-3.086,4.941,4.941,0,0,1,3.438-1.113,10.242,10.242,0,0,1,2.178.244,10.633,10.633,0,0,1,2.119.693l-.781,1.875a10.111,10.111,0,0,0-3.555-.762,2.919,2.919,0,0,0-1.758.449,1.528,1.528,0,0,0-.605,1.309,1.751,1.751,0,0,0,.488,1.279,3.274,3.274,0,0,0,1.523.771l1.6.449a5.284,5.284,0,0,1,2.637,1.455,3.7,3.7,0,0,1,.82,2.51,4.029,4.029,0,0,1-1.3,3.193A5.3,5.3,0,0,1,10.615.234ZM26.064-5.742a6.549,6.549,0,0,1-.1,1.152H19.326q.293,2.734,2.852,2.734a5.2,5.2,0,0,0,2.6-.684L25.615-.8a5.827,5.827,0,0,1-1.689.762,7.249,7.249,0,0,1-1.982.273,4.623,4.623,0,0,1-3.652-1.455A5.934,5.934,0,0,1,17-5.293,6.255,6.255,0,0,1,18.213-9.4a4.177,4.177,0,0,1,3.4-1.455,4.117,4.117,0,0,1,3.281,1.348A5.561,5.561,0,0,1,26.064-5.742ZM21.553-8.828q-1.934,0-2.207,2.617H23.76a3.073,3.073,0,0,0-.615-1.934A1.97,1.97,0,0,0,21.553-8.828ZM31.162.234a7.894,7.894,0,0,1-2.08-.273A6.331,6.331,0,0,1,27.314-.8l.8-1.875a5.773,5.773,0,0,0,3.047.879q1.875,0,1.875-1.172a.982.982,0,0,0-.322-.762A2.392,2.392,0,0,0,31.689-4.2L30.3-4.531a4.144,4.144,0,0,1-2.139-1.045A2.714,2.714,0,0,1,27.49-7.52a3.043,3.043,0,0,1,1.025-2.441,4.325,4.325,0,0,1,2.9-.879,7.705,7.705,0,0,1,1.875.234,7.307,7.307,0,0,1,1.7.645l-.879,1.855a5.932,5.932,0,0,0-2.734-.7q-1.68,0-1.68,1.074a.9.9,0,0,0,.332.713,2.567,2.567,0,0,0,1.035.459l1.387.332A4.161,4.161,0,0,1,34.6-5.156a2.8,2.8,0,0,1,.664,1.973,3.1,3.1,0,0,1-1.074,2.52A4.589,4.589,0,0,1,31.162.234Zm9.063,0a7.894,7.894,0,0,1-2.08-.273A6.33,6.33,0,0,1,36.377-.8l.8-1.875a5.773,5.773,0,0,0,3.047.879Q42.1-1.8,42.1-2.969a.982.982,0,0,0-.322-.762A2.392,2.392,0,0,0,40.752-4.2l-1.387-.332a4.144,4.144,0,0,1-2.139-1.045,2.714,2.714,0,0,1-.674-1.943,3.043,3.043,0,0,1,1.025-2.441,4.325,4.325,0,0,1,2.9-.879,7.705,7.705,0,0,1,1.875.234,7.307,7.307,0,0,1,1.7.645l-.879,1.855a5.932,5.932,0,0,0-2.734-.7q-1.68,0-1.68,1.074a.9.9,0,0,0,.332.713,2.567,2.567,0,0,0,1.035.459l1.387.332a4.161,4.161,0,0,1,2.148,1.074,2.8,2.8,0,0,1,.664,1.973,3.1,3.1,0,0,1-1.074,2.52A4.589,4.589,0,0,1,40.225.234Zm6.367-10.84h2.3V0h-2.3Zm1.152-1.523A1.433,1.433,0,0,1,46.7-12.5a1.327,1.327,0,0,1-.381-1,1.366,1.366,0,0,1,.371-1.025,1.45,1.45,0,0,1,1.055-.361,1.433,1.433,0,0,1,1.045.371,1.327,1.327,0,0,1,.381,1A1.366,1.366,0,0,1,48.8-12.49,1.45,1.45,0,0,1,47.744-12.129ZM55.928.254A4.231,4.231,0,0,1,52.51-1.152a6.258,6.258,0,0,1-1.191-4.141,6.263,6.263,0,0,1,1.2-4.15,4.246,4.246,0,0,1,3.428-1.416,4.217,4.217,0,0,1,3.418,1.416,6.3,6.3,0,0,1,1.191,4.15,6.222,6.222,0,0,1-1.2,4.141A4.261,4.261,0,0,1,55.928.254Zm0-2.051a1.887,1.887,0,0,0,1.7-.879,4.883,4.883,0,0,0,.566-2.617q0-3.5-2.246-3.5-2.266,0-2.266,3.5a4.883,4.883,0,0,0,.566,2.617A1.869,1.869,0,0,0,55.928-1.8Zm12.3-9.062a3.059,3.059,0,0,1,2.363.908,3.614,3.614,0,0,1,.84,2.549V0h-2.3V-7.109q0-1.582-1.738-1.582a3.364,3.364,0,0,0-2.148.8V0h-2.3V-10.605h2.09v1.289A4.048,4.048,0,0,1,68.232-10.859ZM77.217.234a7.894,7.894,0,0,1-2.08-.273A6.331,6.331,0,0,1,73.369-.8l.8-1.875a5.773,5.773,0,0,0,3.047.879q1.875,0,1.875-1.172a.982.982,0,0,0-.322-.762A2.392,2.392,0,0,0,77.744-4.2l-1.387-.332a4.144,4.144,0,0,1-2.139-1.045,2.714,2.714,0,0,1-.674-1.943A3.043,3.043,0,0,1,74.57-9.961a4.325,4.325,0,0,1,2.9-.879,7.705,7.705,0,0,1,1.875.234,7.307,7.307,0,0,1,1.7.645l-.879,1.855a5.932,5.932,0,0,0-2.734-.7q-1.68,0-1.68,1.074a.9.9,0,0,0,.332.713,2.567,2.567,0,0,0,1.035.459l1.387.332a4.161,4.161,0,0,1,2.148,1.074,2.8,2.8,0,0,1,.664,1.973,3.1,3.1,0,0,1-1.074,2.52A4.589,4.589,0,0,1,77.217.234ZM-48.125,13.141a4.451,4.451,0,0,1,2.959.9A3.162,3.162,0,0,1-44.1,16.6V24h-2.07V22.516a3.38,3.38,0,0,1-3.145,1.7,3.223,3.223,0,0,1-2.383-.84,3.168,3.168,0,0,1-.84-2.344,3.016,3.016,0,0,1,1.475-2.783,9.507,9.507,0,0,1,4.678-.908v-.488q0-1.641-2.129-1.641a6.058,6.058,0,0,0-2.48.547l-.586-1.8A7.875,7.875,0,0,1-48.125,13.141Zm-.625,9.1a3.056,3.056,0,0,0,2.363-1.094V18.922a7.541,7.541,0,0,0-2.988.5,1.509,1.509,0,0,0-.937,1.436Q-50.312,22.242-48.75,22.242Zm12.852-9.1a3.059,3.059,0,0,1,2.363.908A3.614,3.614,0,0,1-32.7,16.6V24H-35V16.891q0-1.582-1.738-1.582a3.364,3.364,0,0,0-2.148.8V24h-2.3V13.395h2.09v1.289A4.048,4.048,0,0,1-35.9,13.141ZM-23.574,24V22.535a3.251,3.251,0,0,1-2.969,1.719A3.279,3.279,0,0,1-29.395,22.8a7.118,7.118,0,0,1-1.016-4.111,6.984,6.984,0,0,1,1.035-4.082,3.358,3.358,0,0,1,2.91-1.465,3.778,3.778,0,0,1,1.5.293,3.185,3.185,0,0,1,1.172.859V8.961h2.3V24Zm-2.246-1.895a2.387,2.387,0,0,0,1.064-.234,3.389,3.389,0,0,0,.967-.762v-4.9a2.837,2.837,0,0,0-.967-.723,2.769,2.769,0,0,0-1.162-.254q-2.129,0-2.129,3.4Q-28.047,22.105-25.82,22.105ZM-5.9,11.969H-9.492V24h-2.344V11.969H-15.41V9.859H-5.9Zm7.246,1.172a3.084,3.084,0,0,1,2.383.908A3.614,3.614,0,0,1,4.57,16.6V24h-2.3V16.891q0-1.582-1.758-1.582a3.236,3.236,0,0,0-1.133.2,3.7,3.7,0,0,0-1.035.605V24h-2.3V8.961h2.3v5.488A4.011,4.011,0,0,1,1.348,13.141Zm14.531,5.117a6.549,6.549,0,0,1-.1,1.152H9.141q.293,2.734,2.852,2.734a5.2,5.2,0,0,0,2.6-.684l.84,1.738a5.827,5.827,0,0,1-1.689.762,7.249,7.249,0,0,1-1.982.273,4.623,4.623,0,0,1-3.652-1.455,5.934,5.934,0,0,1-1.289-4.072A6.255,6.255,0,0,1,8.027,14.6a4.177,4.177,0,0,1,3.4-1.455,4.117,4.117,0,0,1,3.281,1.348A5.561,5.561,0,0,1,15.879,18.258Zm-4.512-3.086q-1.934,0-2.207,2.617h4.414a3.073,3.073,0,0,0-.615-1.934A1.97,1.97,0,0,0,11.367,15.172Zm10.273-2.031a4.451,4.451,0,0,1,2.959.9A3.162,3.162,0,0,1,25.664,16.6V24h-2.07V22.516a3.38,3.38,0,0,1-3.145,1.7,3.223,3.223,0,0,1-2.383-.84,3.168,3.168,0,0,1-.84-2.344A3.016,3.016,0,0,1,18.7,18.248a9.507,9.507,0,0,1,4.678-.908v-.488q0-1.641-2.129-1.641a6.058,6.058,0,0,0-2.48.547l-.586-1.8A7.875,7.875,0,0,1,21.641,13.141Zm-.625,9.1a3.056,3.056,0,0,0,2.363-1.094V18.922a7.541,7.541,0,0,0-2.988.5,1.509,1.509,0,0,0-.937,1.436Q19.453,22.242,21.016,22.242Zm11.543,1.914Q29,24.156,29,20.7V15.387h-1.68V13.395H29V10.445h2.3v2.949h2.969v1.992H31.309v4.922a1.989,1.989,0,0,0,.381,1.357,1.6,1.6,0,0,0,1.24.42,4.391,4.391,0,0,0,1.133-.156l.352,1.953A6.211,6.211,0,0,1,32.559,24.156Zm11.953-5.9a6.549,6.549,0,0,1-.1,1.152H37.773q.293,2.734,2.852,2.734a5.2,5.2,0,0,0,2.6-.684l.84,1.738a5.827,5.827,0,0,1-1.689.762,7.249,7.249,0,0,1-1.982.273,4.623,4.623,0,0,1-3.652-1.455,5.934,5.934,0,0,1-1.289-4.072A6.255,6.255,0,0,1,36.66,14.6a4.177,4.177,0,0,1,3.4-1.455,4.117,4.117,0,0,1,3.281,1.348A5.561,5.561,0,0,1,44.512,18.258ZM40,15.172q-1.934,0-2.207,2.617h4.414a3.073,3.073,0,0,0-.615-1.934A1.97,1.97,0,0,0,40,15.172ZM51.66,13.18a2.759,2.759,0,0,1,1.211.254L52.4,15.621a3.991,3.991,0,0,0-1.27-.2,2.558,2.558,0,0,0-1.191.254,2.331,2.331,0,0,0-.859.82V24h-2.3V13.395h2.09v1.621A3.1,3.1,0,0,1,51.66,13.18Z" transform="translate(-15263 -23070)"/>
          <g id="Group_187" data-name="Group 187" transform="translate(-16249.75 -23017.746)">
            <path id="Path_492" data-name="Path 492" d="M872.986-44.012V-59.126a2.129,2.129,0,0,0-2.127-2.124H848.874a2.129,2.129,0,0,0-2.124,2.124v15.115a2.128,2.128,0,0,0,2.124,2.123h3.376v6.12a.75.75,0,0,0,.407.667.745.745,0,0,0,.343.083.749.749,0,0,0,.436-.14l9.422-6.73h8.005A2.128,2.128,0,0,0,872.986-44.012Zm-10.368.624a.752.752,0,0,0-.436.14l-8.432,6.022v-5.412a.75.75,0,0,0-.75-.75h-4.125a.626.626,0,0,1-.625-.624V-59.125a.625.625,0,0,1,.624-.625h21.987a.626.626,0,0,1,.625.624v15.114a.625.625,0,0,1-.624.624Z"/>
            <path id="Path_493" data-name="Path 493" d="M877.728-57.128h-1.374a.75.75,0,0,0-.75.75.75.75,0,0,0,.75.75h1.374a.625.625,0,0,1,.624.624v15.113a.625.625,0,0,1-.624.625h-4.122a.75.75,0,0,0-.75.75v3.939L867.205-39.1a.754.754,0,0,0-.469-.164h-2.748a.75.75,0,0,0-.75.75.75.75,0,0,0,.75.75h2.485l6.664,5.335a.75.75,0,0,0,.469.165.76.76,0,0,0,.325-.074.752.752,0,0,0,.425-.676v-4.75h3.373a2.128,2.128,0,0,0,2.123-2.124V-55A2.129,2.129,0,0,0,877.728-57.128Z"/>
          </g>
        </g>
      </g>
      <g id="Group_150" data-name="Group 150" transform="translate(16399 23351)">
        <rect id="Rectangle_928" data-name="Rectangle 928" width="124" height="64" transform="translate(-15193 -22559)" fill="#2138e3"/>
        <g id="Group_196" data-name="Group 196" transform="translate(676)">
          <path id="Path_575" data-name="Path 575" d="M-36.621.234a9.419,9.419,0,0,1-2.451-.322A7.545,7.545,0,0,1-41.191-1l.762-1.875a7.617,7.617,0,0,0,3.809,1.055A3.313,3.313,0,0,0-34.648-2.3a1.659,1.659,0,0,0,.664-1.426,1.77,1.77,0,0,0-.479-1.279,3.2,3.2,0,0,0-1.514-.771l-1.6-.449a5.328,5.328,0,0,1-2.637-1.445,3.661,3.661,0,0,1-.82-2.5,3.95,3.95,0,0,1,1.23-3.086,4.941,4.941,0,0,1,3.438-1.113,10.242,10.242,0,0,1,2.178.244,10.633,10.633,0,0,1,2.119.693l-.781,1.875a10.111,10.111,0,0,0-3.555-.762,2.919,2.919,0,0,0-1.758.449,1.528,1.528,0,0,0-.605,1.309,1.751,1.751,0,0,0,.488,1.279,3.274,3.274,0,0,0,1.523.771l1.6.449A5.284,5.284,0,0,1-32.52-6.611,3.7,3.7,0,0,1-31.7-4.1,4.029,4.029,0,0,1-33-.908,5.3,5.3,0,0,1-36.621.234Zm12.344-11.094a3.272,3.272,0,0,1,2.852,1.465,7.126,7.126,0,0,1,1.016,4.1A6.975,6.975,0,0,1-21.445-1.2,3.365,3.365,0,0,1-24.355.254a3.778,3.778,0,0,1-1.5-.293A3.185,3.185,0,0,1-27.031-.9V4.043h-2.3V-10.605h2.09v1.465A3.278,3.278,0,0,1-24.277-10.859ZM-24.9-1.816q2.129,0,2.129-3.4,0-3.477-2.227-3.477a2.387,2.387,0,0,0-1.064.234,3.53,3.53,0,0,0-.967.742v4.922a2.837,2.837,0,0,0,.967.723A2.769,2.769,0,0,0-24.9-1.816Zm10.82,2.07A4.231,4.231,0,0,1-17.5-1.152a6.258,6.258,0,0,1-1.191-4.141,6.263,6.263,0,0,1,1.2-4.15,4.246,4.246,0,0,1,3.428-1.416,4.217,4.217,0,0,1,3.418,1.416,6.3,6.3,0,0,1,1.191,4.15,6.222,6.222,0,0,1-1.2,4.141A4.261,4.261,0,0,1-14.082.254Zm0-2.051a1.887,1.887,0,0,0,1.7-.879,4.883,4.883,0,0,0,.566-2.617q0-3.5-2.246-3.5-2.266,0-2.266,3.5a4.883,4.883,0,0,0,.566,2.617A1.869,1.869,0,0,0-14.082-1.8Zm11,1.953Q-6.641.156-6.641-3.3V-8.613H-8.32v-1.992h1.68v-2.949h2.3v2.949h2.969v1.992H-4.336v4.922a1.989,1.989,0,0,0,.381,1.357,1.6,1.6,0,0,0,1.24.42A4.391,4.391,0,0,0-1.582-2.07L-1.23-.117A6.211,6.211,0,0,1-3.086.156ZM3.34.137a2.374,2.374,0,0,1-2.676-2.7v-12.48h2.3V-2.988a1.154,1.154,0,0,0,.234.8.966.966,0,0,0,.742.254,5.5,5.5,0,0,0,.723-.059L4.824-.039A6.1,6.1,0,0,1,3.34.137ZM7.383-10.605h2.3V0h-2.3Zm1.152-1.523A1.433,1.433,0,0,1,7.49-12.5a1.327,1.327,0,0,1-.381-1,1.366,1.366,0,0,1,.371-1.025,1.45,1.45,0,0,1,1.055-.361,1.433,1.433,0,0,1,1.045.371,1.327,1.327,0,0,1,.381,1A1.366,1.366,0,0,1,9.59-12.49,1.45,1.45,0,0,1,8.535-12.129Zm12.539,1.523V-.293A4.479,4.479,0,0,1,19.824,3.1a4.9,4.9,0,0,1-3.535,1.2A8.3,8.3,0,0,1,14.5,4.1a6.461,6.461,0,0,1-1.572-.547L13.594,1.7a5.972,5.972,0,0,0,2.48.566q2.7,0,2.7-2.559V-1.738A3.19,3.19,0,0,1,16.016-.332a3.375,3.375,0,0,1-2.881-1.387,6.432,6.432,0,0,1-1.025-3.887,6.3,6.3,0,0,1,1.045-3.877,3.476,3.476,0,0,1,2.939-1.377,3.642,3.642,0,0,1,1.67.381,3.218,3.218,0,0,1,1.221,1.064v-1.191ZM16.738-2.48a2.368,2.368,0,0,0,1.074-.244,3.391,3.391,0,0,0,.957-.752V-7.793a2.837,2.837,0,0,0-.967-.723,2.769,2.769,0,0,0-1.162-.254q-2.168,0-2.168,3.105Q14.473-2.48,16.738-2.48Zm12.7-8.379a3.084,3.084,0,0,1,2.383.908,3.614,3.614,0,0,1,.84,2.549V0h-2.3V-7.109q0-1.582-1.758-1.582a3.236,3.236,0,0,0-1.133.2,3.7,3.7,0,0,0-1.035.605V0h-2.3V-15.039h2.3v5.488A4.011,4.011,0,0,1,29.434-10.859ZM39.59.156q-3.555,0-3.555-3.457V-8.613h-1.68v-1.992h1.68v-2.949h2.3v2.949h2.969v1.992H38.34v4.922a1.989,1.989,0,0,0,.381,1.357,1.6,1.6,0,0,0,1.24.42,4.391,4.391,0,0,0,1.133-.156l.352,1.953A6.211,6.211,0,0,1,39.59.156Zm-68.1,24.078a9.419,9.419,0,0,1-2.451-.322A7.545,7.545,0,0,1-33.076,23l.762-1.875a7.617,7.617,0,0,0,3.809,1.055,3.313,3.313,0,0,0,1.973-.488,1.659,1.659,0,0,0,.664-1.426,1.77,1.77,0,0,0-.479-1.279,3.2,3.2,0,0,0-1.514-.771l-1.6-.449A5.328,5.328,0,0,1-32.1,16.324a3.661,3.661,0,0,1-.82-2.5,3.95,3.95,0,0,1,1.23-3.086,4.941,4.941,0,0,1,3.438-1.113,10.242,10.242,0,0,1,2.178.244,10.633,10.633,0,0,1,2.119.693l-.781,1.875a10.111,10.111,0,0,0-3.555-.762,2.919,2.919,0,0,0-1.758.449,1.528,1.528,0,0,0-.605,1.309,1.751,1.751,0,0,0,.488,1.279,3.274,3.274,0,0,0,1.523.771l1.6.449A5.284,5.284,0,0,1-24.4,17.389a3.7,3.7,0,0,1,.82,2.51,4.029,4.029,0,0,1-1.3,3.193A5.3,5.3,0,0,1-28.506,24.234Zm15.449-5.977a6.549,6.549,0,0,1-.1,1.152h-6.641q.293,2.734,2.852,2.734a5.2,5.2,0,0,0,2.6-.684l.84,1.738a5.827,5.827,0,0,1-1.689.762,7.249,7.249,0,0,1-1.982.273,4.623,4.623,0,0,1-3.652-1.455,5.934,5.934,0,0,1-1.289-4.072A6.255,6.255,0,0,1-20.908,14.6a4.177,4.177,0,0,1,3.4-1.455,4.117,4.117,0,0,1,3.281,1.348A5.561,5.561,0,0,1-13.057,18.258Zm-4.512-3.086q-1.934,0-2.207,2.617h4.414a3.073,3.073,0,0,0-.615-1.934A1.97,1.97,0,0,0-17.568,15.172Zm9.609,9.063a7.894,7.894,0,0,1-2.08-.273,6.33,6.33,0,0,1-1.768-.762l.8-1.875a5.773,5.773,0,0,0,3.047.879q1.875,0,1.875-1.172a.982.982,0,0,0-.322-.762A2.392,2.392,0,0,0-7.432,19.8l-1.387-.332a4.144,4.144,0,0,1-2.139-1.045,2.714,2.714,0,0,1-.674-1.943,3.043,3.043,0,0,1,1.025-2.441,4.325,4.325,0,0,1,2.9-.879,7.705,7.705,0,0,1,1.875.234,7.307,7.307,0,0,1,1.7.645l-.879,1.855a5.932,5.932,0,0,0-2.734-.7q-1.68,0-1.68,1.074a.9.9,0,0,0,.332.713,2.567,2.567,0,0,0,1.035.459l1.387.332a4.161,4.161,0,0,1,2.148,1.074,2.8,2.8,0,0,1,.664,1.973,3.1,3.1,0,0,1-1.074,2.52A4.589,4.589,0,0,1-7.959,24.234Zm9.063,0a7.894,7.894,0,0,1-2.08-.273A6.33,6.33,0,0,1-2.744,23.2l.8-1.875A5.773,5.773,0,0,0,1.1,22.2q1.875,0,1.875-1.172a.982.982,0,0,0-.322-.762A2.392,2.392,0,0,0,1.631,19.8L.244,19.469a4.144,4.144,0,0,1-2.139-1.045,2.714,2.714,0,0,1-.674-1.943,3.043,3.043,0,0,1,1.025-2.441,4.325,4.325,0,0,1,2.9-.879,7.705,7.705,0,0,1,1.875.234,7.307,7.307,0,0,1,1.7.645l-.879,1.855a5.932,5.932,0,0,0-2.734-.7q-1.68,0-1.68,1.074a.9.9,0,0,0,.332.713,2.567,2.567,0,0,0,1.035.459l1.387.332a4.161,4.161,0,0,1,2.148,1.074,2.8,2.8,0,0,1,.664,1.973,3.1,3.1,0,0,1-1.074,2.52A4.589,4.589,0,0,1,1.1,24.234Zm6.367-10.84h2.3V24h-2.3Zm1.152-1.523A1.433,1.433,0,0,1,7.578,11.5a1.327,1.327,0,0,1-.381-1,1.366,1.366,0,0,1,.371-1.025,1.45,1.45,0,0,1,1.055-.361,1.433,1.433,0,0,1,1.045.371,1.327,1.327,0,0,1,.381,1,1.366,1.366,0,0,1-.371,1.025A1.45,1.45,0,0,1,8.623,11.871Zm8.184,12.383a4.231,4.231,0,0,1-3.418-1.406A6.258,6.258,0,0,1,12.2,18.707a6.263,6.263,0,0,1,1.2-4.15,4.246,4.246,0,0,1,3.428-1.416,4.217,4.217,0,0,1,3.418,1.416,6.3,6.3,0,0,1,1.191,4.15,6.222,6.222,0,0,1-1.2,4.141A4.261,4.261,0,0,1,16.807,24.254Zm0-2.051a1.887,1.887,0,0,0,1.7-.879,4.883,4.883,0,0,0,.566-2.617q0-3.5-2.246-3.5-2.266,0-2.266,3.5a4.883,4.883,0,0,0,.566,2.617A1.869,1.869,0,0,0,16.807,22.2Zm12.3-9.062a3.059,3.059,0,0,1,2.363.908,3.614,3.614,0,0,1,.84,2.549V24h-2.3V16.891q0-1.582-1.738-1.582a3.364,3.364,0,0,0-2.148.8V24h-2.3V13.395h2.09v1.289A4.048,4.048,0,0,1,29.111,13.141Z" transform="translate(-15793 -22532)" fill="#fff"/>
          <g id="Group_207" data-name="Group 207" transform="translate(-20627.633 -26172.816)">
            <path id="Path_510" data-name="Path 510" d="M4785.82,3644.365a8.247,8.247,0,0,0-16.494,0c-.045.448-.119,2.838,2.783,6.072a5.1,5.1,0,0,1,.734,2.357c.017.151.034.263.047.322a3.765,3.765,0,0,1-.014.662c0,.011,0,.022,0,.033s-.006.022-.006.033V3658a.7.7,0,0,0,.146.427l1.39,1.8a4.477,4.477,0,0,0,6.346-.021l1.372-1.78a.7.7,0,0,0,.146-.427v-4.156c0-.012-.007-.024-.008-.036s0-.021,0-.032a3.8,3.8,0,0,1-.013-.658c.013-.06.03-.175.048-.328a5.1,5.1,0,0,1,.72-2.338C4785.938,3647.2,4785.865,3644.814,4785.82,3644.365Zm-4.947,11.924h-6.6v-1.745h6.6Zm-1.2,3.035a3.122,3.122,0,0,1-4.169.028l-1.227-1.591v-.073h6.6v.073Zm2.3-9.79a6.2,6.2,0,0,0-1.052,3.083c-.011.09-.019.159-.025.194a1.906,1.906,0,0,0-.041.333H4774.3a1.922,1.922,0,0,0-.039-.327c-.007-.04-.014-.108-.026-.2a6.207,6.207,0,0,0-1.066-3.1c-2.675-2.982-2.449-4.991-2.448-5a.63.63,0,0,0,.009-.113,6.847,6.847,0,1,1,13.694,0,1.014,1.014,0,0,0,.007.1C4784.431,3644.527,4784.657,3646.535,4781.968,3649.534Z" transform="translate(-0.38 -0.408)" fill="#fff"/>
            <path id="Path_511" data-name="Path 511" d="M4777.76,3639.054a5.664,5.664,0,0,0-5.659,5.658.7.7,0,0,0,1.4,0,4.262,4.262,0,0,1,4.259-4.258.7.7,0,0,0,0-1.4Z" transform="translate(-0.566 -0.602)" fill="#fff"/>
            <path id="Path_512" data-name="Path 512" d="M4778.426,3634.82a.7.7,0,0,0,.7-.7v-3.376a.7.7,0,0,0-1.4,0v3.376A.7.7,0,0,0,4778.426,3634.82Z" transform="translate(-0.942)" fill="#fff"/>
            <path id="Path_513" data-name="Path 513" d="M4785.739,3638a.7.7,0,0,0,.494-.2l2.388-2.388a.7.7,0,0,0-.99-.989l-2.387,2.387a.7.7,0,0,0,.5,1.195Z" transform="translate(-1.43 -0.278)" fill="#fff"/>
            <path id="Path_514" data-name="Path 514" d="M4792.09,3644.138h-3.376a.7.7,0,1,0,0,1.4h3.376a.7.7,0,1,0,0-1.4Z" transform="translate(-1.629 -0.942)" fill="#fff"/>
            <path id="Path_515" data-name="Path 515" d="M4786.1,3651.656a.7.7,0,0,0-.99.989l2.387,2.388a.7.7,0,0,0,.989-.99Z" transform="translate(-1.421 -1.43)" fill="#fff"/>
            <path id="Path_516" data-name="Path 516" d="M4770.257,3651.523l-2.387,2.387a.7.7,0,1,0,.989.989l2.388-2.386a.7.7,0,0,0-.99-.99Z" transform="translate(-0.269 -1.421)" fill="#fff"/>
            <path id="Path_517" data-name="Path 517" d="M4768.407,3644.649a.7.7,0,0,0-.7-.7h-3.375a.7.7,0,0,0,0,1.4h3.375A.7.7,0,0,0,4768.407,3644.649Z" transform="translate(0 -0.929)" fill="#fff"/>
            <path id="Path_518" data-name="Path 518" d="M4770.39,3637.659a.7.7,0,0,0,.99-.99l-2.387-2.387a.7.7,0,0,0-.989.989Z" transform="translate(-0.278 -0.269)" fill="#fff"/>
          </g>
        </g>
      </g>
      <g id="Group_149" data-name="Group 149" transform="translate(16399 23351)">
        <rect id="Rectangle_925" data-name="Rectangle 925" width="154" height="64" transform="translate(-15870 -22559)" fill="#2138e3"/>
        <g id="Group_195" data-name="Group 195" transform="translate(16)">
          <path id="Path_573" data-name="Path 573" d="M-36.621.234a9.419,9.419,0,0,1-2.451-.322A7.545,7.545,0,0,1-41.191-1l.762-1.875a7.617,7.617,0,0,0,3.809,1.055A3.313,3.313,0,0,0-34.648-2.3a1.659,1.659,0,0,0,.664-1.426,1.77,1.77,0,0,0-.479-1.279,3.2,3.2,0,0,0-1.514-.771l-1.6-.449a5.328,5.328,0,0,1-2.637-1.445,3.661,3.661,0,0,1-.82-2.5,3.95,3.95,0,0,1,1.23-3.086,4.941,4.941,0,0,1,3.438-1.113,10.242,10.242,0,0,1,2.178.244,10.633,10.633,0,0,1,2.119.693l-.781,1.875a10.111,10.111,0,0,0-3.555-.762,2.919,2.919,0,0,0-1.758.449,1.528,1.528,0,0,0-.605,1.309,1.751,1.751,0,0,0,.488,1.279,3.274,3.274,0,0,0,1.523.771l1.6.449A5.284,5.284,0,0,1-32.52-6.611,3.7,3.7,0,0,1-31.7-4.1,4.029,4.029,0,0,1-33-.908,5.3,5.3,0,0,1-36.621.234Zm12.344-11.094a3.272,3.272,0,0,1,2.852,1.465,7.126,7.126,0,0,1,1.016,4.1A6.975,6.975,0,0,1-21.445-1.2,3.365,3.365,0,0,1-24.355.254a3.778,3.778,0,0,1-1.5-.293A3.185,3.185,0,0,1-27.031-.9V4.043h-2.3V-10.605h2.09v1.465A3.278,3.278,0,0,1-24.277-10.859ZM-24.9-1.816q2.129,0,2.129-3.4,0-3.477-2.227-3.477a2.387,2.387,0,0,0-1.064.234,3.53,3.53,0,0,0-.967.742v4.922a2.837,2.837,0,0,0,.967.723A2.769,2.769,0,0,0-24.9-1.816Zm10.82,2.07A4.231,4.231,0,0,1-17.5-1.152a6.258,6.258,0,0,1-1.191-4.141,6.263,6.263,0,0,1,1.2-4.15,4.246,4.246,0,0,1,3.428-1.416,4.217,4.217,0,0,1,3.418,1.416,6.3,6.3,0,0,1,1.191,4.15,6.222,6.222,0,0,1-1.2,4.141A4.261,4.261,0,0,1-14.082.254Zm0-2.051a1.887,1.887,0,0,0,1.7-.879,4.883,4.883,0,0,0,.566-2.617q0-3.5-2.246-3.5-2.266,0-2.266,3.5a4.883,4.883,0,0,0,.566,2.617A1.869,1.869,0,0,0-14.082-1.8Zm11,1.953Q-6.641.156-6.641-3.3V-8.613H-8.32v-1.992h1.68v-2.949h2.3v2.949h2.969v1.992H-4.336v4.922a1.989,1.989,0,0,0,.381,1.357,1.6,1.6,0,0,0,1.24.42A4.391,4.391,0,0,0-1.582-2.07L-1.23-.117A6.211,6.211,0,0,1-3.086.156ZM3.34.137a2.374,2.374,0,0,1-2.676-2.7v-12.48h2.3V-2.988a1.154,1.154,0,0,0,.234.8.966.966,0,0,0,.742.254,5.5,5.5,0,0,0,.723-.059L4.824-.039A6.1,6.1,0,0,1,3.34.137ZM7.383-10.605h2.3V0h-2.3Zm1.152-1.523A1.433,1.433,0,0,1,7.49-12.5a1.327,1.327,0,0,1-.381-1,1.366,1.366,0,0,1,.371-1.025,1.45,1.45,0,0,1,1.055-.361,1.433,1.433,0,0,1,1.045.371,1.327,1.327,0,0,1,.381,1A1.366,1.366,0,0,1,9.59-12.49,1.45,1.45,0,0,1,8.535-12.129Zm12.539,1.523V-.293A4.479,4.479,0,0,1,19.824,3.1a4.9,4.9,0,0,1-3.535,1.2A8.3,8.3,0,0,1,14.5,4.1a6.461,6.461,0,0,1-1.572-.547L13.594,1.7a5.972,5.972,0,0,0,2.48.566q2.7,0,2.7-2.559V-1.738A3.19,3.19,0,0,1,16.016-.332a3.375,3.375,0,0,1-2.881-1.387,6.432,6.432,0,0,1-1.025-3.887,6.3,6.3,0,0,1,1.045-3.877,3.476,3.476,0,0,1,2.939-1.377,3.642,3.642,0,0,1,1.67.381,3.218,3.218,0,0,1,1.221,1.064v-1.191ZM16.738-2.48a2.368,2.368,0,0,0,1.074-.244,3.391,3.391,0,0,0,.957-.752V-7.793a2.837,2.837,0,0,0-.967-.723,2.769,2.769,0,0,0-1.162-.254q-2.168,0-2.168,3.105Q14.473-2.48,16.738-2.48Zm12.7-8.379a3.084,3.084,0,0,1,2.383.908,3.614,3.614,0,0,1,.84,2.549V0h-2.3V-7.109q0-1.582-1.758-1.582a3.236,3.236,0,0,0-1.133.2,3.7,3.7,0,0,0-1.035.605V0h-2.3V-15.039h2.3v5.488A4.011,4.011,0,0,1,29.434-10.859ZM39.59.156q-3.555,0-3.555-3.457V-8.613h-1.68v-1.992h1.68v-2.949h2.3v2.949h2.969v1.992H38.34v4.922a1.989,1.989,0,0,0,.381,1.357,1.6,1.6,0,0,0,1.24.42,4.391,4.391,0,0,0,1.133-.156l.352,1.953A6.211,6.211,0,0,1,39.59.156Zm-68.1,24.078a9.419,9.419,0,0,1-2.451-.322A7.545,7.545,0,0,1-33.076,23l.762-1.875a7.617,7.617,0,0,0,3.809,1.055,3.313,3.313,0,0,0,1.973-.488,1.659,1.659,0,0,0,.664-1.426,1.77,1.77,0,0,0-.479-1.279,3.2,3.2,0,0,0-1.514-.771l-1.6-.449A5.328,5.328,0,0,1-32.1,16.324a3.661,3.661,0,0,1-.82-2.5,3.95,3.95,0,0,1,1.23-3.086,4.941,4.941,0,0,1,3.438-1.113,10.242,10.242,0,0,1,2.178.244,10.633,10.633,0,0,1,2.119.693l-.781,1.875a10.111,10.111,0,0,0-3.555-.762,2.919,2.919,0,0,0-1.758.449,1.528,1.528,0,0,0-.605,1.309,1.751,1.751,0,0,0,.488,1.279,3.274,3.274,0,0,0,1.523.771l1.6.449A5.284,5.284,0,0,1-24.4,17.389a3.7,3.7,0,0,1,.82,2.51,4.029,4.029,0,0,1-1.3,3.193A5.3,5.3,0,0,1-28.506,24.234Zm15.449-5.977a6.549,6.549,0,0,1-.1,1.152h-6.641q.293,2.734,2.852,2.734a5.2,5.2,0,0,0,2.6-.684l.84,1.738a5.827,5.827,0,0,1-1.689.762,7.249,7.249,0,0,1-1.982.273,4.623,4.623,0,0,1-3.652-1.455,5.934,5.934,0,0,1-1.289-4.072A6.255,6.255,0,0,1-20.908,14.6a4.177,4.177,0,0,1,3.4-1.455,4.117,4.117,0,0,1,3.281,1.348A5.561,5.561,0,0,1-13.057,18.258Zm-4.512-3.086q-1.934,0-2.207,2.617h4.414a3.073,3.073,0,0,0-.615-1.934A1.97,1.97,0,0,0-17.568,15.172Zm9.609,9.063a7.894,7.894,0,0,1-2.08-.273,6.33,6.33,0,0,1-1.768-.762l.8-1.875a5.773,5.773,0,0,0,3.047.879q1.875,0,1.875-1.172a.982.982,0,0,0-.322-.762A2.392,2.392,0,0,0-7.432,19.8l-1.387-.332a4.144,4.144,0,0,1-2.139-1.045,2.714,2.714,0,0,1-.674-1.943,3.043,3.043,0,0,1,1.025-2.441,4.325,4.325,0,0,1,2.9-.879,7.705,7.705,0,0,1,1.875.234,7.307,7.307,0,0,1,1.7.645l-.879,1.855a5.932,5.932,0,0,0-2.734-.7q-1.68,0-1.68,1.074a.9.9,0,0,0,.332.713,2.567,2.567,0,0,0,1.035.459l1.387.332a4.161,4.161,0,0,1,2.148,1.074,2.8,2.8,0,0,1,.664,1.973,3.1,3.1,0,0,1-1.074,2.52A4.589,4.589,0,0,1-7.959,24.234Zm9.063,0a7.894,7.894,0,0,1-2.08-.273A6.33,6.33,0,0,1-2.744,23.2l.8-1.875A5.773,5.773,0,0,0,1.1,22.2q1.875,0,1.875-1.172a.982.982,0,0,0-.322-.762A2.392,2.392,0,0,0,1.631,19.8L.244,19.469a4.144,4.144,0,0,1-2.139-1.045,2.714,2.714,0,0,1-.674-1.943,3.043,3.043,0,0,1,1.025-2.441,4.325,4.325,0,0,1,2.9-.879,7.705,7.705,0,0,1,1.875.234,7.307,7.307,0,0,1,1.7.645l-.879,1.855a5.932,5.932,0,0,0-2.734-.7q-1.68,0-1.68,1.074a.9.9,0,0,0,.332.713,2.567,2.567,0,0,0,1.035.459l1.387.332a4.161,4.161,0,0,1,2.148,1.074,2.8,2.8,0,0,1,.664,1.973,3.1,3.1,0,0,1-1.074,2.52A4.589,4.589,0,0,1,1.1,24.234Zm6.367-10.84h2.3V24h-2.3Zm1.152-1.523A1.433,1.433,0,0,1,7.578,11.5a1.327,1.327,0,0,1-.381-1,1.366,1.366,0,0,1,.371-1.025,1.45,1.45,0,0,1,1.055-.361,1.433,1.433,0,0,1,1.045.371,1.327,1.327,0,0,1,.381,1,1.366,1.366,0,0,1-.371,1.025A1.45,1.45,0,0,1,8.623,11.871Zm8.184,12.383a4.231,4.231,0,0,1-3.418-1.406A6.258,6.258,0,0,1,12.2,18.707a6.263,6.263,0,0,1,1.2-4.15,4.246,4.246,0,0,1,3.428-1.416,4.217,4.217,0,0,1,3.418,1.416,6.3,6.3,0,0,1,1.191,4.15,6.222,6.222,0,0,1-1.2,4.141A4.261,4.261,0,0,1,16.807,24.254Zm0-2.051a1.887,1.887,0,0,0,1.7-.879,4.883,4.883,0,0,0,.566-2.617q0-3.5-2.246-3.5-2.266,0-2.266,3.5a4.883,4.883,0,0,0,.566,2.617A1.869,1.869,0,0,0,16.807,22.2Zm12.3-9.062a3.059,3.059,0,0,1,2.363.908,3.614,3.614,0,0,1,.84,2.549V24h-2.3V16.891q0-1.582-1.738-1.582a3.364,3.364,0,0,0-2.148.8V24h-2.3V13.395h2.09v1.289A4.048,4.048,0,0,1,29.111,13.141Z" transform="translate(-15793 -22532)" fill="#fff"/>
          <g id="Group_206" data-name="Group 206" transform="translate(-20635.633 -26172.816)">
            <path id="Path_510-2" data-name="Path 510" d="M4785.82,3644.365a8.247,8.247,0,0,0-16.494,0c-.045.448-.119,2.838,2.783,6.072a5.1,5.1,0,0,1,.734,2.357c.017.151.034.263.047.322a3.765,3.765,0,0,1-.014.662c0,.011,0,.022,0,.033s-.006.022-.006.033V3658a.7.7,0,0,0,.146.427l1.39,1.8a4.477,4.477,0,0,0,6.346-.021l1.372-1.78a.7.7,0,0,0,.146-.427v-4.156c0-.012-.007-.024-.008-.036s0-.021,0-.032a3.8,3.8,0,0,1-.013-.658c.013-.06.03-.175.048-.328a5.1,5.1,0,0,1,.72-2.338C4785.938,3647.2,4785.865,3644.814,4785.82,3644.365Zm-4.947,11.924h-6.6v-1.745h6.6Zm-1.2,3.035a3.122,3.122,0,0,1-4.169.028l-1.227-1.591v-.073h6.6v.073Zm2.3-9.79a6.2,6.2,0,0,0-1.052,3.083c-.011.09-.019.159-.025.194a1.906,1.906,0,0,0-.041.333H4774.3a1.922,1.922,0,0,0-.039-.327c-.007-.04-.014-.108-.026-.2a6.207,6.207,0,0,0-1.066-3.1c-2.675-2.982-2.449-4.991-2.448-5a.63.63,0,0,0,.009-.113,6.847,6.847,0,1,1,13.694,0,1.014,1.014,0,0,0,.007.1C4784.431,3644.527,4784.657,3646.535,4781.968,3649.534Z" transform="translate(-0.38 -0.408)" fill="#fff"/>
            <path id="Path_511-2" data-name="Path 511" d="M4777.76,3639.054a5.664,5.664,0,0,0-5.659,5.658.7.7,0,0,0,1.4,0,4.262,4.262,0,0,1,4.259-4.258.7.7,0,0,0,0-1.4Z" transform="translate(-0.566 -0.602)" fill="#fff"/>
            <path id="Path_512-2" data-name="Path 512" d="M4778.426,3634.82a.7.7,0,0,0,.7-.7v-3.376a.7.7,0,0,0-1.4,0v3.376A.7.7,0,0,0,4778.426,3634.82Z" transform="translate(-0.942)" fill="#fff"/>
            <path id="Path_513-2" data-name="Path 513" d="M4785.739,3638a.7.7,0,0,0,.494-.2l2.388-2.388a.7.7,0,0,0-.99-.989l-2.387,2.387a.7.7,0,0,0,.5,1.195Z" transform="translate(-1.43 -0.278)" fill="#fff"/>
            <path id="Path_514-2" data-name="Path 514" d="M4792.09,3644.138h-3.376a.7.7,0,1,0,0,1.4h3.376a.7.7,0,1,0,0-1.4Z" transform="translate(-1.629 -0.942)" fill="#fff"/>
            <path id="Path_515-2" data-name="Path 515" d="M4786.1,3651.656a.7.7,0,0,0-.99.989l2.387,2.388a.7.7,0,0,0,.989-.99Z" transform="translate(-1.421 -1.43)" fill="#fff"/>
            <path id="Path_516-2" data-name="Path 516" d="M4770.257,3651.523l-2.387,2.387a.7.7,0,1,0,.989.989l2.388-2.386a.7.7,0,0,0-.99-.99Z" transform="translate(-0.269 -1.421)" fill="#fff"/>
            <path id="Path_517-2" data-name="Path 517" d="M4768.407,3644.649a.7.7,0,0,0-.7-.7h-3.375a.7.7,0,0,0,0,1.4h3.375A.7.7,0,0,0,4768.407,3644.649Z" transform="translate(0 -0.929)" fill="#fff"/>
            <path id="Path_518-2" data-name="Path 518" d="M4770.39,3637.659a.7.7,0,0,0,.99-.99l-2.387-2.387a.7.7,0,0,0-.989.989Z" transform="translate(-0.278 -0.269)" fill="#fff"/>
          </g>
        </g>
      </g>
      <g id="Breakfast" transform="translate(16399 24047)">
        <rect id="Rectangle_915" data-name="Rectangle 915" width="216" height="64" transform="translate(-16116 -23327)" fill="#ffb046"/>
        <g id="Group_189" data-name="Group 189" transform="translate(19)">
          <path id="Path_571" data-name="Path 571" d="M-33.965-7.461A3.2,3.2,0,0,1-31.328-4.18,3.979,3.979,0,0,1-32.52-1.094,4.757,4.757,0,0,1-35.859,0h-5.625V-14.141h4.961A4.656,4.656,0,0,1-33.281-13.1a3.766,3.766,0,0,1,1.152,2.939A2.591,2.591,0,0,1-33.965-7.461Zm-5.2-4.59v3.809h2.637q2.012,0,2.012-1.875,0-1.934-2.129-1.934Zm3.418,9.961A1.8,1.8,0,0,0-33.73-4.141a1.865,1.865,0,0,0-2.129-2.09h-3.3V-2.09Zm11.66-8.73a2.759,2.759,0,0,1,1.211.254l-.469,2.188a3.991,3.991,0,0,0-1.27-.2A2.558,2.558,0,0,0-25.8-8.32a2.331,2.331,0,0,0-.859.82V0h-2.3V-10.605h2.09v1.621A3.1,3.1,0,0,1-24.082-10.82Zm10.977,5.078a6.549,6.549,0,0,1-.1,1.152h-6.641q.293,2.734,2.852,2.734a5.2,5.2,0,0,0,2.6-.684l.84,1.738a5.827,5.827,0,0,1-1.689.762,7.249,7.249,0,0,1-1.982.273,4.623,4.623,0,0,1-3.652-1.455,5.934,5.934,0,0,1-1.289-4.072A6.255,6.255,0,0,1-20.957-9.4a4.177,4.177,0,0,1,3.4-1.455,4.117,4.117,0,0,1,3.281,1.348A5.561,5.561,0,0,1-13.105-5.742Zm-4.512-3.086q-1.934,0-2.207,2.617h4.414a3.073,3.073,0,0,0-.615-1.934A1.97,1.97,0,0,0-17.617-8.828Zm10.273-2.031a4.451,4.451,0,0,1,2.959.9A3.162,3.162,0,0,1-3.32-7.4V0h-2.07V-1.484A3.38,3.38,0,0,1-8.535.215a3.223,3.223,0,0,1-2.383-.84,3.168,3.168,0,0,1-.84-2.344,3.016,3.016,0,0,1,1.475-2.783A9.507,9.507,0,0,1-5.605-6.66v-.488q0-1.641-2.129-1.641a6.058,6.058,0,0,0-2.48.547l-.586-1.8A7.875,7.875,0,0,1-7.344-10.859Zm-.625,9.1A3.056,3.056,0,0,0-5.605-2.852V-5.078a7.541,7.541,0,0,0-2.988.5,1.509,1.509,0,0,0-.937,1.436Q-9.531-1.758-7.969-1.758ZM3.125-4.414,1.895-2.988V0H-.41V-15.039h2.3v9.16l3.867-4.727H8.438L4.609-6.133,8.691,0H6.035Zm7.676-4.2H9.141v-1.992h1.68v-.937a3.589,3.589,0,0,1,1.074-2.783,4.313,4.313,0,0,1,3.027-.986,5.828,5.828,0,0,1,1.133.1V-13.2a7.74,7.74,0,0,0-1.133-.078q-1.816,0-1.816,1.738v.938h2.578v1.992H13.105V0H10.8Zm9.98-2.246a4.451,4.451,0,0,1,2.959.9A3.162,3.162,0,0,1,24.8-7.4V0h-2.07V-1.484A3.38,3.38,0,0,1,19.59.215a3.223,3.223,0,0,1-2.383-.84,3.168,3.168,0,0,1-.84-2.344,3.016,3.016,0,0,1,1.475-2.783A9.507,9.507,0,0,1,22.52-6.66v-.488q0-1.641-2.129-1.641a6.058,6.058,0,0,0-2.48.547l-.586-1.8A7.875,7.875,0,0,1,20.781-10.859Zm-.625,9.1A3.056,3.056,0,0,0,22.52-2.852V-5.078a7.541,7.541,0,0,0-2.988.5,1.509,1.509,0,0,0-.937,1.436Q18.594-1.758,20.156-1.758ZM30.547.234a7.894,7.894,0,0,1-2.08-.273A6.331,6.331,0,0,1,26.7-.8l.8-1.875a5.773,5.773,0,0,0,3.047.879q1.875,0,1.875-1.172A.982.982,0,0,0,32.1-3.73,2.392,2.392,0,0,0,31.074-4.2l-1.387-.332a4.144,4.144,0,0,1-2.139-1.045,2.714,2.714,0,0,1-.674-1.943A3.043,3.043,0,0,1,27.9-9.961a4.325,4.325,0,0,1,2.9-.879,7.705,7.705,0,0,1,1.875.234,7.307,7.307,0,0,1,1.7.645L33.5-8.105a5.932,5.932,0,0,0-2.734-.7q-1.68,0-1.68,1.074a.9.9,0,0,0,.332.713,2.567,2.567,0,0,0,1.035.459l1.387.332a4.161,4.161,0,0,1,2.148,1.074,2.8,2.8,0,0,1,.664,1.973,3.1,3.1,0,0,1-1.074,2.52A4.589,4.589,0,0,1,30.547.234ZM40.859.156Q37.3.156,37.3-3.3V-8.613h-1.68v-1.992H37.3v-2.949h2.3v2.949h2.969v1.992H39.609v4.922a1.989,1.989,0,0,0,.381,1.357,1.6,1.6,0,0,0,1.24.42,4.391,4.391,0,0,0,1.133-.156l.352,1.953A6.211,6.211,0,0,1,40.859.156Z" transform="translate(-16007 -23288)"/>
          <g id="Group_200" data-name="Group 200" transform="translate(-18761.273 -23132.012)">
            <path id="Path_495" data-name="Path 495" d="M2690.083-177.988c-1.652,0-2.936,1.423-3.52,3.9-.556,2.358-2.132,9.391-2.575,11.441a1.242,1.242,0,0,0,.249,1.046,1.249,1.249,0,0,0,.977.465h1.869v10.614a3,3,0,0,0,3,3,3,3,0,0,0,3-3v-24.469A3,3,0,0,0,2690.083-177.988Zm1.5,27.469a1.5,1.5,0,0,1-1.5,1.5,1.5,1.5,0,0,1-1.5-1.5v-12.114h-3.062c.514-2.361,1.972-8.862,2.5-11.108.406-1.72,1.175-2.747,2.06-2.747a1.52,1.52,0,0,1,1.5,1.5Z" fill="#1a1a1a"/>
            <path id="Path_496" data-name="Path 496" d="M2680.674-177.988h-8.6a1.8,1.8,0,0,0-1.8,1.8v8.56a4.856,4.856,0,0,0,3.1,4.517v12.59a3,3,0,0,0,3,3,3,3,0,0,0,3-3v-12.59a4.856,4.856,0,0,0,3.1-4.517v-8.56A1.8,1.8,0,0,0,2680.674-177.988Zm.3,10.362a3.36,3.36,0,0,1-2.538,3.245l-.563.145v13.717a1.5,1.5,0,0,1-1.5,1.5,1.5,1.5,0,0,1-1.5-1.5v-13.717l-.563-.145a3.36,3.36,0,0,1-2.538-3.245v-8.56a.306.306,0,0,1,.3-.3h1.893v4.5a.75.75,0,0,0,.75.75.75.75,0,0,0,.75-.75v-4.5h1.836v4.6a.75.75,0,0,0,.75.75.75.75,0,0,0,.75-.75v-4.6h1.869a.306.306,0,0,1,.3.3Z" fill="#1a1a1a"/>
          </g>
        </g>
      </g>
      <g id="Lunch" transform="translate(16399 24047)">
        <rect id="Rectangle_917" data-name="Rectangle 917" width="246" height="64" transform="translate(-15684 -23327)" fill="#ffb046"/>
        <g id="Group_190" data-name="Group 190" transform="translate(480)">
          <path id="Path_572" data-name="Path 572" d="M-17.1-2.109V0h-8.2V-14.141h2.344V-2.109Zm10.176-8.5V0H-9.033V-1.426A3.62,3.62,0,0,1-12.178.254a2.963,2.963,0,0,1-2.3-.9,3.631,3.631,0,0,1-.82-2.539v-7.422H-13V-3.5q0,1.6,1.68,1.6a2.559,2.559,0,0,0,1.1-.234,3.41,3.41,0,0,0,.986-.742v-7.734Zm8.34-.254a3.059,3.059,0,0,1,2.363.908A3.614,3.614,0,0,1,4.619-7.4V0h-2.3V-7.109q0-1.582-1.738-1.582a3.364,3.364,0,0,0-2.148.8V0h-2.3V-10.605h2.09v1.289A4.048,4.048,0,0,1,1.416-10.859ZM11.826.234A4.759,4.759,0,0,1,8.135-1.191a5.7,5.7,0,0,1-1.309-4,6.892,6.892,0,0,1,.605-2.979A4.616,4.616,0,0,1,9.15-10.156a4.725,4.725,0,0,1,2.578-.7,5.957,5.957,0,0,1,1.689.244,4.782,4.782,0,0,1,1.455.693l-.84,1.8a5.54,5.54,0,0,0-2.344-.625,2.15,2.15,0,0,0-1.846.9,4.218,4.218,0,0,0-.654,2.52q0,3.457,2.754,3.457a4.814,4.814,0,0,0,2.246-.605L14.99-.7A5.181,5.181,0,0,1,11.826.234ZM22.295-10.859a3.084,3.084,0,0,1,2.383.908,3.614,3.614,0,0,1,.84,2.549V0h-2.3V-7.109q0-1.582-1.758-1.582a3.236,3.236,0,0,0-1.133.2,3.7,3.7,0,0,0-1.035.605V0h-2.3V-15.039h2.3v5.488A4.011,4.011,0,0,1,22.295-10.859Z" transform="translate(-16019 -23288)"/>
          <g id="Group_201" data-name="Group 201" transform="translate(-18761.273 -23132.012)">
            <path id="Path_495-2" data-name="Path 495" d="M2690.083-177.988c-1.652,0-2.936,1.423-3.52,3.9-.556,2.358-2.132,9.391-2.575,11.441a1.242,1.242,0,0,0,.249,1.046,1.249,1.249,0,0,0,.977.465h1.869v10.614a3,3,0,0,0,3,3,3,3,0,0,0,3-3v-24.469A3,3,0,0,0,2690.083-177.988Zm1.5,27.469a1.5,1.5,0,0,1-1.5,1.5,1.5,1.5,0,0,1-1.5-1.5v-12.114h-3.062c.514-2.361,1.972-8.862,2.5-11.108.406-1.72,1.175-2.747,2.06-2.747a1.52,1.52,0,0,1,1.5,1.5Z" fill="#1a1a1a"/>
            <path id="Path_496-2" data-name="Path 496" d="M2680.674-177.988h-8.6a1.8,1.8,0,0,0-1.8,1.8v8.56a4.856,4.856,0,0,0,3.1,4.517v12.59a3,3,0,0,0,3,3,3,3,0,0,0,3-3v-12.59a4.856,4.856,0,0,0,3.1-4.517v-8.56A1.8,1.8,0,0,0,2680.674-177.988Zm.3,10.362a3.36,3.36,0,0,1-2.538,3.245l-.563.145v13.717a1.5,1.5,0,0,1-1.5,1.5,1.5,1.5,0,0,1-1.5-1.5v-13.717l-.563-.145a3.36,3.36,0,0,1-2.538-3.245v-8.56a.306.306,0,0,1,.3-.3h1.893v4.5a.75.75,0,0,0,.75.75.75.75,0,0,0,.75-.75v-4.5h1.836v4.6a.75.75,0,0,0,.75.75.75.75,0,0,0,.75-.75v-4.6h1.869a.306.306,0,0,1,.3.3Z" fill="#1a1a1a"/>
          </g>
        </g>
      </g>
    </g>
  </g>
</svg>
