<svg xmlns="http://www.w3.org/2000/svg" width="13.969" height="13.969" viewBox="0 0 13.969 13.969">
  <path id="Path_83" data-name="Path 83" d="M1.746,6.111A4.323,4.323,0,0,1,6.111,1.746a4.323,4.323,0,0,1,4.365,4.365,4.323,4.323,0,0,1-4.365,4.365A4.323,4.323,0,0,1,1.746,6.111Zm10.738,7.6a.864.864,0,0,0,1.222-1.222L11,9.778a5.977,5.977,0,0,0,1.222-3.667A6.074,6.074,0,0,0,6.111,0,6.074,6.074,0,0,0,0,6.111a6.074,6.074,0,0,0,6.111,6.111A5.977,5.977,0,0,0,9.778,11Z" transform="translate(-0.001 0.001)" fill="#6e6a69"/>
</svg>
