<svg xmlns="http://www.w3.org/2000/svg" width="37.373" height="52.699" viewBox="0 0 37.373 52.699">
  <path id="Subtraction_3" data-name="Subtraction 3" d="M18.687,52.7h0A86.426,86.426,0,0,1,9.343,41.835,61.1,61.1,0,0,1,2.92,30.911,30.538,30.538,0,0,1,0,18.686a18.692,18.692,0,0,1,35.9-7.274,18.569,18.569,0,0,1,1.468,7.274,30.639,30.639,0,0,1-2.92,12.261,60.74,60.74,0,0,1-6.424,10.92A85.485,85.485,0,0,1,18.687,52.7Zm.455-41.761a7.292,7.292,0,1,0,7.292,7.292A7.3,7.3,0,0,0,19.142,10.938Z" fill="#6e6a69"/>
</svg>
