<svg xmlns="http://www.w3.org/2000/svg" width="28.595" height="40.32" viewBox="0 0 28.595 40.32">
  <path id="Subtraction_1" data-name="Subtraction 1" d="M14.3,40.32h0a66.125,66.125,0,0,1-7.148-8.311A46.75,46.75,0,0,1,2.234,23.65,23.365,23.365,0,0,1,0,14.3,14.3,14.3,0,0,1,27.471,8.732,14.208,14.208,0,0,1,28.594,14.3a23.442,23.442,0,0,1-2.234,9.381,46.473,46.473,0,0,1-4.915,8.355A65.4,65.4,0,0,1,14.3,40.32Zm.348-31.952a5.579,5.579,0,1,0,5.579,5.579A5.586,5.586,0,0,0,14.645,8.369Z" fill="#1428a0"/>
</svg>
