<?xml version="1.0" encoding="UTF-8"?>
<!-- width="24px" height="24px" -->
<svg viewBox="0 0 24 24" version="1.1" xmlns="http://www.w3.org/2000/svg" xmlns:xlink="http://www.w3.org/1999/xlink">
    <!-- Generator: Sketch 54.1 (76490) - https://sketchapp.com -->
    <title>np_send_2603602_FFFFFF</title>
    <desc>Created with Sketch.</desc>
    <g id="Page-1" stroke="none" stroke-width="1" fill="#ffffff" fill-rule="evenodd">
        <g id="np_send_2603602_FFFFFF" fill="#ffffff" fill-rule="nonzero">
            <path d="M23.7734286,11.4877143 C23.7287857,11.3816886 23.6640543,11.2845886 23.5836971,11.202 L23.5836971,11.1428486 C23.5011086,11.0580257 23.4040086,10.9899457 23.2979829,10.94084 L1.86941143,0.226554286 C1.46092571,0.02008 0.969868571,0.06584 0.607125714,0.344857143 C0.243297143,0.623874286 0.0725257143,1.08705714 0.166268571,1.53571429 L2.47652571,12 L0.09484,22.4642857 C0.00109142857,22.9129429 0.171848571,23.3761143 0.535697143,23.6551429 C0.749982857,23.8214371 1.01449714,23.9096057 1.28569714,23.9051429 C1.47208,23.9084911 1.65735429,23.8627314 1.82141143,23.7734457 L23.2499829,13.05916 C23.3571257,13.0100514 23.4531086,12.9419714 23.5356971,12.8571514 L23.5356971,12.798 C23.6160543,12.7154114 23.6807857,12.6183114 23.7265457,12.5122857 C23.729894,12.47992 23.729894,12.4486686 23.7265457,12.4163029 C23.8370371,12.1495629 23.8370371,11.8504457 23.7265457,11.5837029 C23.7466349,11.5546857 23.76226,11.52232 23.77342,11.48772 L23.7734286,11.4877143 Z M17.6662857,10.8091429 L4.57142857,10.8091429 L2.97657143,3.46428571 L17.6662857,10.8091429 Z M4.57142857,13.1897143 L17.6662857,13.1897143 L2.97657143,20.5357143 L4.57142857,13.1897143 Z" id="Shape"></path>
        </g>
    </g>
</svg>
