<svg xmlns="http://www.w3.org/2000/svg" width="46.557" height="28.631" viewBox="0 0 46.557 28.631">
  <g id="noun_Bike_1975201" transform="translate(0 0.001)">
    <g id="Group_39" data-name="Group 39" transform="translate(0 0)">
      <path id="Path_60" data-name="Path 60" d="M9.614,58.676a9.614,9.614,0,1,1,9.614-9.614A9.625,9.625,0,0,1,9.614,58.676Zm0-17.634a8.02,8.02,0,1,0,8.02,8.02A8.029,8.029,0,0,0,9.614,41.041Z" transform="translate(0 -30.045)" fill="#1428A0"/>
      <path id="Path_61" data-name="Path 61" d="M68.313,58.676a9.614,9.614,0,1,1,9.614-9.614A9.625,9.625,0,0,1,68.313,58.676Zm0-17.634a8.02,8.02,0,1,0,8.02,8.02A8.029,8.029,0,0,0,68.313,41.041Z" transform="translate(-31.371 -30.045)" fill="#1428A0"/>
      <path id="Path_62" data-name="Path 62" d="M52.217,33.682H36.335a.8.8,0,1,1,0-1.594H52.217a.8.8,0,1,1,0,1.594Z" transform="translate(-18.993 -26.112)" fill="#1428A0"/>
      <path id="Path_63" data-name="Path 63" d="M19.734,45.925a.8.8,0,0,1-.673-1.222L26.79,32.46a.8.8,0,1,1,1.348.851L20.409,45.554A.8.8,0,0,1,19.734,45.925Z" transform="translate(-10.121 -26.112)" fill="#1428A0"/>
      <path id="Path_64" data-name="Path 64" d="M50.711,44.651a.8.8,0,0,1-.61-1.308l9.188-10.968A.8.8,0,0,1,60.511,33.4L51.322,44.365A.8.8,0,0,1,50.711,44.651Z" transform="translate(-26.676 -26.112)" fill="#1428A0"/>
      <path id="Path_65" data-name="Path 65" d="M38.772,37.551a.8.8,0,0,1-.732-.483l-7.17-16.7a.8.8,0,1,1,1.464-.629l7.17,16.7a.8.8,0,0,1-.731,1.111Z" transform="translate(-16.463 -19.251)" fill="#1428A0"/>
      <path id="Path_66" data-name="Path 66" d="M31.42,59.98H19.735a.8.8,0,1,1,0-1.594H31.42a.8.8,0,0,1,0,1.594Z" transform="translate(-10.121 -40.167)" fill="#1428A0"/>
      <path id="Path_67" data-name="Path 67" d="M33.5,20.847H26.752a.8.8,0,1,1,0-1.594H33.5a.8.8,0,1,1,0,1.594Z" transform="translate(-13.871 -19.253)" fill="#1428A0"/>
      <path id="Path_68" data-name="Path 68" d="M74.166,40.346a.8.8,0,0,1-.762-.565L69.686,27.538a.8.8,0,0,1-.035-.231v-4.86a.8.8,0,0,1,1.594,0v4.742l3.684,12.13a.8.8,0,0,1-.531.994A.785.785,0,0,1,74.166,40.346Z" transform="translate(-37.224 -20.533)" fill="#1428A0"/>
      <path id="Path_69" data-name="Path 69" d="M75.281,28.023a.8.8,0,0,1,0-1.594,1.6,1.6,0,0,0,1.566-1.593,1.582,1.582,0,0,0-1.566-1.593H70.448a.8.8,0,1,1,0-1.594h4.834a3.187,3.187,0,0,1,0,6.374Z" transform="translate(-37.224 -20.533)" fill="#1428A0"/>
      <path id="Path_70" data-name="Path 70" d="M46.508,59.732a2.47,2.47,0,0,1,0-4.94,2.5,2.5,0,0,1,2.47,2.47A2.473,2.473,0,0,1,46.508,59.732Zm0-3.346a.888.888,0,0,0-.876.877.866.866,0,0,0,.876.876.887.887,0,0,0,.876-.876A.9.9,0,0,0,46.508,56.386Z" transform="translate(-23.536 -38.246)" fill="#1428A0"/>
    </g>
  </g>
</svg>
