<svg xmlns="http://www.w3.org/2000/svg" width="20.891" height="28.672" viewBox="0 0 20.891 28.672">
  <path id="Path_73" data-name="Path 73" d="M1438.989,296.925v10.316h-5.674V278.571h9.629a17.363,17.363,0,0,1,5.244.688,9.568,9.568,0,0,1,3.482,1.87,6.943,6.943,0,0,1,1.935,2.794,9.823,9.823,0,0,1,.6,3.46,11.744,11.744,0,0,1-.538,3.525,7.592,7.592,0,0,1-1.827,3.052,9.333,9.333,0,0,1-3.4,2.149,14.463,14.463,0,0,1-5.2.817Zm0-13.411v8.468h3.7a8.166,8.166,0,0,0,4.233-.946,3.545,3.545,0,0,0,1.569-3.31,3.864,3.864,0,0,0-1.29-3.116q-1.289-1.1-4.512-1.1Z" transform="translate(-1433.314 -278.571)" fill="#D7D2CB"/>
</svg>
