<svg xmlns="http://www.w3.org/2000/svg" width="23.451" height="28.947" viewBox="0 0 23.451 28.947">
  <g id="noun_Bus_1442007" transform="translate(0 -0.001)">
    <g id="Group_40" data-name="Group 40">
      <path id="Path_72" data-name="Path 72" d="M6.362,0H17.09a6.412,6.412,0,0,1,6.362,5.985V23.678a2,2,0,0,1-1.957,2l-.075,1.468a1.816,1.816,0,0,1-1.845,1.807H18.558a1.807,1.807,0,0,1-1.807-1.807V25.673H6.7v1.468a1.784,1.784,0,0,1-1.807,1.807H3.877a1.793,1.793,0,0,1-1.845-1.807V25.673a2.041,2.041,0,0,1-2.033-2V5.985A6.386,6.386,0,0,1,6.362,0ZM7.378,2.334h8.7a.579.579,0,0,1,.565.565V4.028a.579.579,0,0,1-.565.565h-8.7a.579.579,0,0,1-.565-.565V2.9A.579.579,0,0,1,7.378,2.334ZM2.936,7.529a1,1,0,0,0-.979.979V17.73a1,1,0,0,0,.979.979H20.516a1,1,0,0,0,.979-.979V8.507a1,1,0,0,0-.979-.979Zm16.45,13.363A1.478,1.478,0,0,0,17.918,22.4a1.468,1.468,0,0,0,2.936,0A1.478,1.478,0,0,0,19.386,20.892Zm-15.321,0A1.478,1.478,0,0,1,5.534,22.4a1.446,1.446,0,0,1-1.468,1.468A1.446,1.446,0,0,1,2.6,22.4,1.478,1.478,0,0,1,4.065,20.892Z" fill="#1428A0" fill-rule="evenodd"/>
    </g>
  </g>
</svg>
