<svg xmlns="http://www.w3.org/2000/svg" width="133.632" height="114.34" viewBox="0 0 133.632 114.34"><path d="M4684.465,409.009a127.119,127.119,0,0,1-.45,25.374,103.21,103.21,0,0,1-5.909,24.221,94.252,94.252,0,0,1-12.224,22.425,112.581,112.581,0,0,1-42.511,34.332,91.347,91.347,0,0,1-23.543,6.936,96.974,96.974,0,0,1-24.01.561,153.935,153.935,0,0,1-24.558-4.535l3.365-22.843a92.6,92.6,0,0,0,18.907,3.977,79.156,79.156,0,0,0,19.387-.392,75.062,75.062,0,0,0,19.337-5.555,83.919,83.919,0,0,0,19.032-11.729q17.777-14.263,24.679-32.419t4.229-39.7Z" transform="translate(-4551.262 -409.01)" fill="#ff4337"/></svg>