<svg xmlns="http://www.w3.org/2000/svg" width="86.666" height="146.48" viewBox="0 0 86.666 146.48"><path d="M4871.492,281.752a67.418,67.418,0,0,1,16.047-5.12,21.482,21.482,0,0,1,21.829,8.463,64.881,64.881,0,0,1,8.174,14.273l6.214,14.176a52.483,52.483,0,0,0,3.544,6.895,10.025,10.025,0,0,0,3.813,3.729,8.491,8.491,0,0,0,5.149.619,32.27,32.27,0,0,0,7.7-2.506l8.008,18.267a35.649,35.649,0,0,0-7.093,3.893,8.052,8.052,0,0,0-3.067,4.133,10.03,10.03,0,0,0,.16,5.33,52.052,52.052,0,0,0,2.669,7.279l6.6,15.051a64.821,64.821,0,0,1,4.959,15.685,21.477,21.477,0,0,1-8.569,21.787,67.334,67.334,0,0,1-14.637,8.333l-1.608.705-8.009-18.267a48.367,48.367,0,0,0,7.3-3.81,9.011,9.011,0,0,0,3.479-3.79,7.677,7.677,0,0,0,.107-4.925,50.24,50.24,0,0,0-2.67-7.279l-6.6-15.051q-4.037-9.206-4.083-16.067a18.5,18.5,0,0,1,4.664-12.41,18.084,18.084,0,0,1-12.359-4.947q-4.942-4.718-8.978-13.922l-6.213-14.176a50.5,50.5,0,0,0-3.545-6.895,7.657,7.657,0,0,0-3.7-3.258,9.009,9.009,0,0,0-5.143-.01,48.4,48.4,0,0,0-7.752,2.788l-8.006-18.267Z" transform="translate(-4869.883 -276.264)" fill="#fff"/></svg>