<svg xmlns="http://www.w3.org/2000/svg" width="74.271" height="58.225" viewBox="0 0 74.271 58.225"><path d="M4701.317,420.212a12.931,12.931,0,0,1-5.938-8.124q-1.048-4.88,2.283-9.906t8.192-5.9a13.1,13.1,0,0,1,9.752,2.371,12.724,12.724,0,0,1,5.808,8.038q1.044,4.883-2.285,9.906t-8.191,5.9A12.882,12.882,0,0,1,4701.317,420.212Zm47.738,31.641a12.915,12.915,0,0,1-5.939-8.124q-1.049-4.88,2.282-9.906t8.192-5.9a13.089,13.089,0,0,1,9.751,2.373,12.708,12.708,0,0,1,5.806,8.036q1.047,4.883-2.283,9.906t-8.191,5.9A12.867,12.867,0,0,1,4749.055,451.853Z" transform="translate(-4695.127 -396.102)" fill="#fff"/></svg>