<svg xmlns="http://www.w3.org/2000/svg" width="79.255" height="62.133" viewBox="0 0 79.255 62.133"><path d="M4701.732,421.83a13.8,13.8,0,0,1-6.337-8.669q-1.118-5.208,2.436-10.571t8.741-6.291a13.974,13.974,0,0,1,10.407,2.53,13.577,13.577,0,0,1,6.2,8.577q1.115,5.21-2.438,10.571T4712,424.267A13.746,13.746,0,0,1,4701.732,421.83Zm50.941,33.765a13.781,13.781,0,0,1-6.338-8.669q-1.119-5.208,2.436-10.571t8.742-6.291a13.968,13.968,0,0,1,10.406,2.532,13.561,13.561,0,0,1,6.2,8.575q1.117,5.21-2.437,10.571t-8.741,6.291A13.729,13.729,0,0,1,4752.674,455.594Z" transform="translate(-4695.128 -396.102)" fill="#fff"/></svg>