<svg xmlns="http://www.w3.org/2000/svg" width="178.062" height="160.262" viewBox="0 0 178.062 160.262"><path d="M89.677,48.4a34.434,34.434,0,0,1-2.1,11.774,35.193,35.193,0,0,1-6.129,10.645,37.6,37.6,0,0,1-9.919,8.306,41.8,41.8,0,0,1-13.468,4.919v18.71H36.129V83.887a55.417,55.417,0,0,1-20.323-7.339,65.048,65.048,0,0,1-15-12.661l20-15.645a31.23,31.23,0,0,0,6.855,8.145,32.613,32.613,0,0,0,8.952,5.4V30.662a107.423,107.423,0,0,1-11.29-4.274,39.609,39.609,0,0,1-10.081-6.371,31.588,31.588,0,0,1-7.258-9.274A27.723,27.723,0,0,1,5.161-2.241,29.6,29.6,0,0,1,7.419-13.774a32.2,32.2,0,0,1,6.371-9.758,38.672,38.672,0,0,1,9.758-7.419,39.441,39.441,0,0,1,12.581-4.194V-52.08H58.064v17.419A45.258,45.258,0,0,1,73.87-28.693a71.3,71.3,0,0,1,12.258,9.839L67.9-5.145a25.051,25.051,0,0,0-10.484-8.71V14.21q5.645,1.935,11.452,4.6a43.928,43.928,0,0,1,10.4,6.613,31.5,31.5,0,0,1,7.5,9.6A28.924,28.924,0,0,1,89.677,48.4Zm-22.258-.161A9,9,0,0,0,64.6,41.388a25.377,25.377,0,0,0-7.177-4.6V62.436a17.447,17.447,0,0,0,7.339-5.887A14.147,14.147,0,0,0,67.419,48.242ZM27.1-3.048a8.625,8.625,0,0,0,2.581,6.613,22.408,22.408,0,0,0,6.935,4.194V-14.983A15.241,15.241,0,0,0,29.6-10.225,11.22,11.22,0,0,0,27.1-3.048Z" transform="translate(42.725 103.469) rotate(-56)" fill="#ffb046"/></svg>