<svg xmlns="http://www.w3.org/2000/svg" width="58.332" height="117.525" viewBox="0 0 58.332 117.525"><path d="M4931.794,512.369a13.175,13.175,0,0,1,6.364-8.048q4.509-2.357,10.354-.452t8.022,6.442a13.358,13.358,0,0,1,.324,10.226,12.964,12.964,0,0,1-6.316,7.893q-4.511,2.355-10.352.452t-8.022-6.442A13.123,13.123,0,0,1,4931.794,512.369Zm12.988-15.839q1.176-7.273,2.913-15.466t3.826-16.7q2.093-8.5,4.44-17.01t4.853-16.193l5.863-17.991,20.6,6.716-5.864,17.99q-2.507,7.69-5.544,15.967t-6.36,16.383q-3.324,8.1-6.749,15.746t-6.758,14.211Z" transform="matrix(1, -0.017, 0.017, 1, -4937.436, -326.07)" fill="#00b3e3"/></svg>