<svg xmlns="http://www.w3.org/2000/svg" width="139.743" height="133.281" viewBox="0 0 139.743 133.281"><path d="M4784.2,273.093a54.281,54.281,0,0,1,11.707-11.954,42.048,42.048,0,0,1,10.809-5.637,33.9,33.9,0,0,1,9.931-1.769q4.794-.089,8.945-.458a32.467,32.467,0,0,0,7.79-1.637,14.332,14.332,0,0,0,6.609-5.2,13.727,13.727,0,0,0,2.721-11.015q-1.039-6.033-7.065-10.578a15.774,15.774,0,0,0-11.443-3.495,20.594,20.594,0,0,0-10.924,4.65l-13.024-18.636a35.547,35.547,0,0,1,22.3-8.2q12.405-.2,25.556,9.719a49.558,49.558,0,0,1,11.31,11.65,37.037,37.037,0,0,1,5.754,13.171,31.972,31.972,0,0,1-.085,13.648,33.743,33.743,0,0,1-6.212,13.079,28.8,28.8,0,0,1-19.373,12.29,52.227,52.227,0,0,1-9.925.618,55.516,55.516,0,0,0-9.874.551,30.6,30.6,0,0,0-9.583,3.16q-4.746,2.445-9.341,8.536l-1.1,1.456-16.575-12.506Zm-16.236,15.259a13.97,13.97,0,0,1,9.161-5.879q5.336-.809,10.545,3.119t5.825,9.231q.621,5.3-3.2,10.374a13.753,13.753,0,0,1-9.059,5.739q-5.34.809-10.546-3.117t-5.826-9.232A13.924,13.924,0,0,1,4767.963,288.351Z" transform="translate(-1816.797 4504.308) rotate(-70)" fill="#00b3e3"/></svg>