<svg xmlns="http://www.w3.org/2000/svg" width="96.597" height="106.195" viewBox="0 0 96.597 106.195"><path d="M4782.653,267.211a49.969,49.969,0,0,1,10.775-11,38.7,38.7,0,0,1,9.949-5.189,31.2,31.2,0,0,1,9.141-1.629q4.413-.082,8.233-.421a29.881,29.881,0,0,0,7.17-1.507,13.191,13.191,0,0,0,6.083-4.788,12.635,12.635,0,0,0,2.5-10.139q-.957-5.553-6.5-9.736a14.518,14.518,0,0,0-10.533-3.217,18.956,18.956,0,0,0-10.055,4.28l-11.988-17.154a32.719,32.719,0,0,1,20.53-7.545q11.418-.183,23.523,8.946a45.619,45.619,0,0,1,10.41,10.723,34.091,34.091,0,0,1,5.3,12.123,29.42,29.42,0,0,1-.078,12.562,31.059,31.059,0,0,1-5.718,12.039,26.509,26.509,0,0,1-17.832,11.312,48.072,48.072,0,0,1-9.135.568,51.1,51.1,0,0,0-9.088.507,28.17,28.17,0,0,0-8.821,2.908,26.5,26.5,0,0,0-8.6,7.857l-1.011,1.341-15.256-11.511Zm-14.945,14.045a12.861,12.861,0,0,1,8.433-5.411q4.912-.745,9.706,2.871t5.361,8.5a13.036,13.036,0,0,1-2.948,9.549,12.658,12.658,0,0,1-8.338,5.282q-4.915.745-9.707-2.869t-5.362-8.5A12.817,12.817,0,0,1,4767.708,281.255Z" transform="matrix(0.999, 0.035, -0.035, 0.999, -4751.324, -365.326)" fill="#ff4337"/></svg>