<svg xmlns="http://www.w3.org/2000/svg" width="79.973" height="79.023" viewBox="0 0 79.973 79.023"><path d="M42.414,47.93q-9.695,2.521-11.091-2.843a9.923,9.923,0,0,1-.1-4.6q.5-2.33,1.351-4.976,1.152-4.044,2.114-8.81A23.841,23.841,0,0,0,34.1,15.952Q31.258,5.018,22.113,1.668T0,1.69L4.184,17.782q9.9-2.573,11.4,3.2a10.437,10.437,0,0,1-.179,5.664Q14.533,29.632,13.425,33a54.157,54.157,0,0,0-1.635,7.693,23.792,23.792,0,0,0,.758,9.273q2.683,10.32,11.913,13.974t22.189.288Z" transform="translate(48.156) rotate(47)" fill="#00b3e3"/></svg>