<svg xmlns="http://www.w3.org/2000/svg" width="74.957" height="90.537" viewBox="0 0 74.957 90.537"><path d="M4730.9,341.626q5.08-8.8,9.95-5.987a10.052,10.052,0,0,1,3.389,3.206q1.326,2.019,2.634,4.516,2.1,3.71,4.856,7.8a24.208,24.208,0,0,0,8.184,7.223q9.92,5.729,18.85,1.507T4794.48,343.9l-14.6-8.432q-5.187,8.983-10.428,5.958a10.575,10.575,0,0,1-3.963-4.162q-1.532-2.756-3.178-5.952a54.832,54.832,0,0,0-4.393-6.657,24.133,24.133,0,0,0-7.237-6.052q-9.363-5.407-18.571-1.341t-16,15.822Z" transform="translate(2354.029 -4121.393) rotate(115)" fill="#ff4337"/></svg>